<svg width="47" height="27" viewBox="0 0 47 27" fill="none" xmlns="http://www.w3.org/2000/svg">
<path fill-rule="evenodd" clip-rule="evenodd" d="M7.00173 14.2486L2.67456 8.60545L8.39093 3.10153L16.8918 2.22676L16.7131 6.24326C17.2336 5.63075 17.8079 5.07623 18.4358 4.58232L18.4435 4.57626L18.4512 4.57028C19.2641 3.9437 20.145 3.44807 21.0913 3.09252C22.0318 2.72397 23.0119 2.54208 24.0066 2.62052C24.8758 2.67562 25.7127 2.866 26.491 3.22128C27.2192 3.55362 27.8757 3.99619 28.4453 4.5518C28.9714 5.05205 29.4217 5.62124 29.7433 6.26879C29.7994 6.37912 29.854 6.49085 29.9069 6.60394C30.5029 5.8468 31.1756 5.17144 31.9245 4.58232L31.9322 4.57626L31.94 4.57028C32.7528 3.94369 33.6338 3.44805 34.5801 3.0925C35.5206 2.72396 36.5006 2.54208 37.4953 2.62052C38.3645 2.67562 39.2014 2.866 39.9798 3.22128C40.7079 3.55362 41.3644 3.99619 41.9341 4.5518C42.4602 5.05205 42.9105 5.62124 43.232 6.26879C43.6982 7.18463 44.0519 8.19664 44.3074 9.28925C44.5906 10.4288 44.7125 11.6099 44.6818 12.8254C44.6502 14.0732 44.4376 15.325 44.0569 16.5763C43.655 17.8971 43.0196 19.1502 42.1747 20.3344L42.1649 20.3482L42.1548 20.3619C41.6658 21.0232 41.0729 21.6009 40.3941 22.1001C39.6995 22.6109 38.9378 23.0063 38.1174 23.2864C37.3 23.5834 36.4502 23.7483 35.576 23.783C34.6442 23.8201 33.7307 23.6806 32.848 23.3715C31.9314 23.0597 31.1057 22.5554 30.3713 21.8992L30.3525 21.8823L30.3341 21.865C29.7725 21.3371 29.3011 20.7127 28.9061 20.0173C28.8344 20.1235 28.761 20.2292 28.686 20.3344L28.6761 20.3482L28.666 20.3619C28.177 21.0232 27.5841 21.6009 26.9054 22.1001C26.2107 22.6109 25.4491 23.0063 24.6287 23.2864C23.8112 23.5834 22.9614 23.7483 22.0873 23.783C21.1555 23.8201 20.2419 23.6806 19.3593 23.3715C18.4426 23.0597 17.6169 22.5554 16.8826 21.8992L16.8637 21.8823L16.8453 21.865C16.5599 21.5967 16.2977 21.3034 16.0571 20.9886L15.9333 23.7705L7.15115 22.607L7.10523 14.1602L7.00173 14.2486ZM7.30549 11.3577L5.34938 8.80666L9.28155 5.02063L14.7906 4.45374L14.0321 21.501L9.14183 20.8531L9.08195 9.83921L7.30549 11.3577ZM16.2439 16.7882C16.3902 17.3131 16.5815 17.8379 16.8181 18.3628C17.204 19.2132 17.6697 19.8948 18.2153 20.4077C18.7742 20.9071 19.373 21.2648 20.0117 21.4807C20.6638 21.7102 21.3291 21.8114 22.0078 21.7844C22.6864 21.7574 23.3385 21.6292 23.9639 21.3998C24.6026 21.1838 25.1881 20.8801 25.7204 20.4887C26.2527 20.0973 26.6984 19.6586 27.0577 19.1727C27.3908 18.7058 27.6825 18.232 27.9329 17.7511C28.2327 17.1755 28.4733 16.5898 28.6545 15.994C28.6917 15.8718 28.727 15.7498 28.7604 15.6281C28.7605 15.6276 28.7606 15.6271 28.7608 15.6267C29.0256 14.6601 29.1698 13.7095 29.1935 12.7749C29.1939 12.7569 29.1943 12.739 29.1947 12.721C29.1947 12.7212 29.1947 12.7209 29.1947 12.721C29.2164 11.688 29.1095 10.7 28.8741 9.75823C28.8664 9.72502 28.8585 9.69194 28.8506 9.65899C28.8496 9.65453 28.8485 9.65006 28.8474 9.6456C28.7708 9.32807 28.6855 9.02227 28.5916 8.72819C28.4116 8.16462 28.1997 7.64413 27.9559 7.16672C27.7563 6.7618 27.4569 6.37037 27.0577 5.99244C26.6585 5.60102 26.1928 5.28383 25.6605 5.04088C25.1282 4.79792 24.5294 4.6562 23.8641 4.61571C23.212 4.56172 22.5267 4.67645 21.8082 4.95989C21.0497 5.24334 20.3378 5.64151 19.6724 6.15441C19.0204 6.66732 18.4349 7.2612 17.9159 7.93607C17.4103 8.61095 16.9844 9.36005 16.6385 10.1834C16.5991 10.2791 16.5613 10.3755 16.5249 10.4726C16.2538 11.1965 16.0654 11.9572 15.9598 12.7547C15.8401 13.6455 15.8467 14.5701 15.9798 15.5284C16.0389 15.9483 16.127 16.3682 16.2439 16.7882ZM30.5194 9.34699C30.5138 9.35769 30.5083 9.36839 30.5028 9.37911C30.3686 9.63884 30.2434 9.90693 30.1272 10.1834C29.7946 10.9932 29.5683 11.8503 29.4486 12.7547C29.4474 12.7635 29.4462 12.7724 29.445 12.7813C29.329 13.6639 29.3368 14.5796 29.4685 15.5284C29.504 15.7801 29.5498 16.0318 29.6061 16.2836C29.7236 16.8097 29.8865 17.3357 30.0948 17.8618C30.1609 18.0288 30.2316 18.1958 30.3069 18.3628C30.6928 19.2132 31.1585 19.8948 31.7041 20.4077C32.263 20.9071 32.8618 21.2648 33.5005 21.4807C34.1525 21.7102 34.8179 21.8114 35.4965 21.7844C36.1752 21.7574 36.8272 21.6292 37.4526 21.3998C38.0914 21.1838 38.6769 20.8801 39.2091 20.4887C39.7414 20.0973 40.1872 19.6586 40.5465 19.1727C41.2784 18.1469 41.8106 17.0873 42.1433 15.994C42.476 14.9007 42.6556 13.8277 42.6822 12.7749C42.7088 11.7221 42.6024 10.7165 42.3629 9.75823C42.1366 8.78641 41.8306 7.92258 41.4447 7.16672C41.2451 6.7618 40.9457 6.37037 40.5465 5.99244C40.1473 5.60102 39.6815 5.28383 39.1493 5.04088C38.617 4.79792 38.0182 4.6562 37.3528 4.61571C36.7008 4.56172 36.0155 4.67645 35.2969 4.95989C34.5384 5.24334 33.8265 5.64151 33.1612 6.15441C32.5091 6.66732 31.9236 7.2612 31.4047 7.93607C31.1636 8.25781 30.9407 8.59642 30.7359 8.9519C30.6613 9.08136 30.5892 9.21306 30.5194 9.34699ZM21.888 10.3454C21.4622 10.6828 21.0963 11.2159 20.7902 11.9448C20.4974 12.6602 20.3843 13.5173 20.4509 14.5161C20.5041 15.4474 20.6837 16.1155 20.9898 16.5204C21.2959 16.9119 21.6418 17.1076 22.0277 17.1076C22.4269 17.1076 22.8128 16.9456 23.1854 16.6217C23.5713 16.2977 23.8641 15.8793 24.0637 15.3664C24.2633 14.84 24.403 14.3608 24.4828 13.9289C24.5627 13.4835 24.5959 13.0786 24.5826 12.7142C24.5826 12.3497 24.5494 12.019 24.4828 11.7221C24.4163 11.4252 24.3365 11.162 24.2433 10.9325C23.9905 10.3386 23.6379 10.0079 23.1854 9.94044C22.7463 9.85946 22.3138 9.99443 21.888 10.3454ZM22.515 13.5704C22.5678 13.2746 22.5865 13.0389 22.5852 12.8558C22.4971 13.1266 22.4367 13.4773 22.4328 13.9282C22.4677 13.798 22.4948 13.6789 22.515 13.5704ZM34.279 11.9448C34.585 11.2159 34.951 10.6828 35.3768 10.3454C35.8026 9.99443 36.2351 9.85946 36.6742 9.94044C37.1266 10.0079 37.4793 10.3386 37.7321 10.9325C37.8252 11.162 37.9051 11.4252 37.9716 11.7221C38.0381 12.019 38.0714 12.3497 38.0714 12.7142C38.0847 13.0786 38.0514 13.4835 37.9716 13.9289C37.8918 14.3608 37.752 14.84 37.5524 15.3664C37.3528 15.8793 37.0601 16.2977 36.6742 16.6217C36.3016 16.9456 35.9157 17.1076 35.5165 17.1076C35.1306 17.1076 34.7846 16.9119 34.4786 16.5204C34.1725 16.1155 33.9929 15.4474 33.9396 14.5161C33.8731 13.5173 33.9862 12.6602 34.279 11.9448ZM35.9215 13.9282C35.9255 13.4773 35.9859 13.1266 36.074 12.8558C36.0753 13.0389 36.0565 13.2747 36.0038 13.5706C35.9836 13.679 35.9565 13.7981 35.9215 13.9282Z" fill="black"/>
<path fill-rule="evenodd" clip-rule="evenodd" d="M5.11015 15.0685L5.16067 24.3608L17.8343 26.0399L17.8835 24.9333C18.1499 25.0557 18.4242 25.1657 18.7065 25.262C19.8201 25.6508 20.9818 25.8286 22.1668 25.7815C23.2364 25.7389 24.2838 25.5375 25.2933 25.1728C26.2957 24.8286 27.2334 24.3414 28.0902 23.7113C28.3306 23.5345 28.5638 23.3484 28.7888 23.1527C28.8464 23.2099 28.9048 23.2664 28.9642 23.3222L29.001 23.3568L29.0387 23.3905C29.9487 24.2036 31.0011 24.8544 32.1955 25.2621C33.309 25.6508 34.4707 25.8286 35.6555 25.7815C36.7251 25.7389 37.7726 25.5375 38.7821 25.1728C39.7845 24.8286 40.7221 24.3414 41.579 23.7113C42.4042 23.1045 43.1442 22.3877 43.7629 21.5509L43.7832 21.5235L43.8028 21.496C43.8028 21.496 43.8029 21.4959 43.8028 21.496C44.7607 20.1534 45.4992 18.7067 45.9702 17.1585C46.3991 15.7493 46.6447 14.3186 46.6811 12.876C46.716 11.4975 46.5785 10.1411 46.2517 8.82054C45.9667 7.60566 45.5651 6.44528 45.0187 5.37C44.5761 4.48183 43.9758 3.73504 43.3215 3.11119C42.5814 2.3915 41.7343 1.82362 40.8103 1.40185C39.7867 0.934642 38.7121 0.695371 37.6381 0.625579C36.3024 0.522754 35.028 0.770812 33.8636 1.2252C32.7296 1.65279 31.6796 2.2458 30.7192 2.98614C30.7192 2.98608 30.7191 2.98619 30.7192 2.98614L30.7034 2.99827L30.688 3.01037C30.6881 3.01032 30.688 3.01043 30.688 3.01037C30.5098 3.15061 30.3351 3.29511 30.1644 3.44347C30.0558 3.32899 29.945 3.21823 29.8326 3.11109C29.0926 2.39145 28.2455 1.8236 27.3215 1.40185C26.2977 0.934547 25.2229 0.695266 24.1487 0.625529C22.8132 0.522833 21.539 0.770895 20.3748 1.22522C19.8692 1.41586 19.3803 1.63938 18.9086 1.89418L18.9929 0L7.5004 1.18261L0 8.40425L5.11015 15.0685ZM7.15116 22.607L15.9333 23.7705L15.977 22.7887L16.0571 20.9886C16.2977 21.3034 16.5599 21.5967 16.8453 21.865L16.8637 21.8823L16.8826 21.8992C17.2288 22.2085 17.5952 22.4841 17.9819 22.7217C18.4156 22.9881 18.8747 23.2067 19.3593 23.3715C20.242 23.6806 21.1555 23.8201 22.0873 23.783C22.9614 23.7483 23.8112 23.5834 24.6287 23.2864C25.4491 23.0063 26.2107 22.6109 26.9054 22.1001C27.1221 21.9407 27.33 21.7734 27.5286 21.5978C27.9521 21.2235 28.3331 20.8121 28.666 20.3619L28.6761 20.3482L28.686 20.3344C28.761 20.2292 28.8344 20.1235 28.9061 20.0173C29.0817 20.3265 29.2725 20.6217 29.4795 20.9006C29.4795 20.9006 29.4795 20.9005 29.4795 20.9006C29.4906 20.9155 29.5018 20.9305 29.513 20.9454C29.5255 20.9619 29.538 20.9783 29.5505 20.9947C29.5631 21.0112 29.5758 21.0276 29.5886 21.044C29.5886 21.044 29.5885 21.0439 29.5886 21.044C29.768 21.2744 29.9593 21.493 30.1629 21.6984C30.219 21.7549 30.2761 21.8105 30.3341 21.865L30.3525 21.8823L30.3714 21.8992C31.1057 22.5554 31.9314 23.0597 32.848 23.3715C33.7307 23.6806 34.6442 23.8201 35.576 23.783C36.4502 23.7483 37.3 23.5834 38.1174 23.2864C38.9379 23.0063 39.6995 22.6109 40.3941 22.1001C41.0729 21.6009 41.6658 21.0232 42.1548 20.3619L42.1649 20.3482L42.1747 20.3344C43.0196 19.1502 43.655 17.8971 44.0569 16.5763C44.4376 15.325 44.6502 14.0732 44.6818 12.8254C44.7125 11.6099 44.5906 10.4288 44.3074 9.28925C44.0519 8.19664 43.6983 7.18463 43.232 6.26879C42.9105 5.62124 42.4602 5.05205 41.9341 4.5518C41.3645 3.99619 40.7079 3.55362 39.9798 3.22128C39.2015 2.866 38.3646 2.67562 37.4953 2.62052C36.5007 2.54208 35.5206 2.72396 34.5801 3.0925C33.6338 3.44805 32.7528 3.94369 31.94 4.57028L31.9323 4.57626L31.9246 4.58232C31.7321 4.73369 31.5447 4.89075 31.3624 5.05343C31.0748 5.30993 30.7998 5.5804 30.5374 5.86453C30.5318 5.87063 30.5261 5.87674 30.5205 5.88286C30.3077 6.11425 30.1031 6.35466 29.9069 6.60394C29.854 6.49085 29.7995 6.37912 29.7433 6.26879C29.4862 5.75113 29.1469 5.28354 28.7523 4.86122C28.6533 4.75526 28.5509 4.65214 28.4454 4.5518C27.8757 3.99619 27.2192 3.55362 26.4911 3.22128C25.7127 2.866 24.8758 2.67562 24.0066 2.62052C23.0119 2.54208 22.0318 2.72397 21.0913 3.09252C20.2792 3.39766 19.5152 3.80598 18.8011 4.31171C18.6831 4.39525 18.5665 4.48145 18.4513 4.57028L18.4435 4.57626L18.4358 4.58232C17.8079 5.07623 17.2336 5.63075 16.7131 6.24326L16.8918 2.22676L8.39094 3.10153L2.67457 8.60544L7.00174 14.2486L7.10524 14.1602L7.15116 22.607ZM16.2438 16.7876C16.2437 16.7874 16.2439 16.7878 16.2438 16.7876C16.39 17.3125 16.5816 17.8379 16.8181 18.3628C17.204 19.2132 17.6698 19.8948 18.2153 20.4077C18.7742 20.9071 19.373 21.2648 20.0118 21.4807C20.6638 21.7102 21.3291 21.8114 22.0078 21.7844C22.6864 21.7574 23.3385 21.6292 23.9639 21.3998C24.6026 21.1838 25.1881 20.8801 25.7204 20.4887C26.2527 20.0973 26.6984 19.6586 27.0577 19.1727C27.3908 18.7058 27.6826 18.232 27.933 17.7511C27.9329 17.7512 27.933 17.7511 27.933 17.7511C28.1412 17.3513 28.3209 16.9464 28.4719 16.5369C28.5383 16.3569 28.5992 16.1759 28.6545 15.994C28.6917 15.8718 28.727 15.7498 28.7604 15.6281L28.7608 15.6267C29.0256 14.6601 29.1698 13.7095 29.1935 12.7749L29.1941 12.7483L29.1947 12.7211C29.2163 11.6882 29.1095 10.6999 28.8741 9.75823C28.8664 9.72502 28.8586 9.69194 28.8506 9.65899L28.8474 9.6456C28.7708 9.32816 28.6856 9.02244 28.5917 8.72845C28.5917 8.72854 28.5917 8.72836 28.5917 8.72845C28.4116 8.16488 28.1997 7.64413 27.9559 7.16672C27.7563 6.7618 27.4569 6.37037 27.0577 5.99244C26.6585 5.60102 26.1928 5.28383 25.6605 5.04088C25.1282 4.79792 24.5294 4.6562 23.8641 4.61571C23.2121 4.56172 22.5267 4.67645 21.8082 4.95989C21.0497 5.24334 20.3378 5.64151 19.6724 6.15441C19.0204 6.66732 18.4349 7.2612 17.9159 7.93607C17.4103 8.61095 16.9845 9.36005 16.6385 10.1834C16.5991 10.2791 16.5613 10.3755 16.525 10.4726C16.525 10.4724 16.5249 10.4728 16.525 10.4726C16.2539 11.1964 16.0654 11.9574 15.9598 12.7547C15.8401 13.6455 15.8467 14.5701 15.9798 15.5284C16.0389 15.9481 16.1269 16.3678 16.2438 16.7876ZM14.7906 4.45374L9.28156 5.02063L5.3494 8.80666L7.3055 11.3577L9.08196 9.83921L9.14184 20.8531L14.0321 21.501L14.7906 4.45374ZM30.5028 9.37911C30.3686 9.63884 30.2434 9.90693 30.1272 10.1834C29.7987 10.9832 29.574 11.829 29.4531 12.721C29.4529 12.7228 29.4526 12.7247 29.4524 12.7264C29.4511 12.7358 29.4498 12.7452 29.4486 12.7547L29.4451 12.7813C29.329 13.6639 29.3368 14.5796 29.4685 15.5284C29.4828 15.6295 29.4987 15.7307 29.5163 15.8318C29.5164 15.8324 29.5165 15.8329 29.5166 15.8335C29.5166 15.8334 29.5166 15.8336 29.5166 15.8335C29.5167 15.834 29.5169 15.8349 29.517 15.8355C29.543 15.9849 29.5727 16.1342 29.6061 16.2836C29.7236 16.8096 29.8865 17.3356 30.0947 17.8615C30.0947 17.8615 30.0947 17.8616 30.0947 17.8615C30.1608 18.0286 30.2316 18.1958 30.3069 18.3628C30.6928 19.2132 31.1585 19.8948 31.7041 20.4077C32.263 20.9071 32.8618 21.2648 33.5005 21.4807C34.1526 21.7102 34.8179 21.8114 35.4965 21.7844C36.1752 21.7574 36.8272 21.6292 37.4526 21.3998C38.0914 21.1838 38.6769 20.8801 39.2092 20.4887C39.7414 20.0973 40.1872 19.6586 40.5465 19.1727C41.2784 18.1469 41.8106 17.0873 42.1433 15.994C42.476 14.9007 42.6556 13.8277 42.6822 12.7749C42.7089 11.7221 42.6024 10.7165 42.3629 9.75823C42.1367 8.78641 41.8306 7.92258 41.4447 7.16672C41.2451 6.7618 40.9457 6.37037 40.5465 5.99244C40.1473 5.60102 39.6815 5.28383 39.1493 5.04088C38.617 4.79792 38.0182 4.6562 37.3528 4.61571C36.7008 4.56172 36.0155 4.67645 35.2969 4.95989C34.5385 5.24334 33.8265 5.64151 33.1612 6.15441C32.5092 6.66732 31.9237 7.2612 31.4047 7.93607C31.1636 8.25781 30.9407 8.59642 30.7359 8.9519C30.736 8.95182 30.7359 8.95198 30.7359 8.9519C30.6838 9.04241 30.6327 9.13425 30.5829 9.22695C30.5829 9.22691 30.5829 9.22698 30.5829 9.22695C30.5797 9.23291 30.5765 9.23898 30.5733 9.24495C30.5733 9.24485 30.5732 9.24506 30.5733 9.24495C30.5552 9.27872 30.5372 9.31294 30.5194 9.34699L30.5028 9.37911ZM31.9742 10.9507C32.0696 10.7243 32.1714 10.5066 32.2796 10.2972ZM32.2796 10.2972L32.2932 10.271C32.35 10.1619 32.4086 10.0549 32.469 9.95021C32.6323 9.66662 32.8087 9.39855 32.9978 9.14531C33.4141 8.6055 33.878 8.13622 34.3899 7.73249C34.9007 7.33988 35.4354 7.04322 35.997 6.83335L36.014 6.82702L36.0308 6.82038C36.5152 6.62933 36.8922 6.58441 37.1878 6.60889L37.2096 6.61069L37.2314 6.61201C37.6853 6.63964 38.0389 6.73252 38.3188 6.86031C38.6498 7.01139 38.9204 7.19909 39.1463 7.4205L39.1588 7.43278L39.1715 7.44483C39.4348 7.6941 39.5761 7.89944 39.6508 8.05101L39.657 8.06362L39.6634 8.07614C39.9639 8.66466 40.2193 9.37116 40.415 10.2117L40.4186 10.2275L40.4226 10.2432C40.6155 11.0153 40.7052 11.84 40.6829 12.7244C40.6612 13.5823 40.5145 14.4765 40.2299 15.4118C39.968 16.2727 39.5421 17.1338 38.9289 17.9963C38.7006 18.3023 38.4048 18.5976 38.0243 18.8774C37.6612 19.1445 37.2599 19.3537 36.8121 19.5051L36.7878 19.5133L36.7638 19.5221C36.3378 19.6784 35.8916 19.7671 35.4171 19.786C34.9956 19.8028 34.5823 19.7412 34.1644 19.5942L34.1528 19.5901L34.1411 19.5861C33.7912 19.4678 33.4297 19.2634 33.0565 18.9339C32.7474 18.6382 32.427 18.1944 32.1292 17.5386C32.0668 17.4001 32.0085 17.2624 31.9544 17.1256C31.7828 16.6922 31.6515 16.2664 31.558 15.8475C31.5133 15.6476 31.4771 15.4489 31.4493 15.2513C31.3406 14.4675 31.3371 13.7332 31.428 13.042L31.4313 13.0172C31.529 12.2793 31.7113 11.5925 31.9742 10.9507M12.1311 19.2317L12.6895 6.6805L11.0657 6.8476L11.1323 19.0993L12.1311 19.2317ZM26.9032 10.1146C26.8373 9.84139 26.7649 9.58228 26.6865 9.33681C26.5361 8.86619 26.3642 8.44746 26.1747 8.07615L26.1683 8.06362L26.162 8.05101C26.0873 7.89944 25.9461 7.6941 25.6827 7.44483L25.67 7.43278L25.6575 7.4205C25.4317 7.19909 25.1611 7.0114 24.83 6.86031C24.5501 6.73252 24.1966 6.63964 23.7426 6.61201L23.7208 6.61069L23.699 6.60889C23.4034 6.58441 23.0264 6.62933 22.5421 6.82038L22.5252 6.82702L22.5083 6.83335C21.9467 7.04321 21.412 7.33986 20.9012 7.73244C20.3893 8.13617 19.9254 8.60545 19.5091 9.14524C19.1118 9.6772 18.7694 10.2766 18.4855 10.9507C18.4552 11.0246 18.426 11.0991 18.3979 11.1741M26.9032 10.1146L26.906 10.1261C26.9059 10.126 26.906 10.1262 26.906 10.1261C26.9128 10.1544 26.9195 10.1831 26.9262 10.2117L26.9299 10.2275L26.9338 10.2432C27.1234 11.002 27.2133 11.8121 27.1952 12.6791L27.1941 12.7242C27.1749 13.4861 27.057 14.2764 26.8319 15.0981L26.8315 15.0994C26.8315 15.0996 26.8313 15.1003 26.8312 15.1005C26.8029 15.2037 26.7729 15.3075 26.7412 15.4118C26.5973 15.8848 26.4043 16.3564 26.1591 16.8274C25.9566 17.2161 25.7178 17.6059 25.4402 17.9963C25.2118 18.3023 24.9161 18.5976 24.5355 18.8774C24.1724 19.1445 23.7711 19.3537 23.3233 19.5051L23.299 19.5133L23.275 19.5221C22.849 19.6784 22.4029 19.7671 21.9283 19.786C21.5068 19.8028 21.0935 19.7412 20.6757 19.5942L20.664 19.5901L20.6523 19.5861C20.3024 19.4678 19.941 19.2634 19.5677 18.9339C19.2587 18.6382 18.9383 18.1944 18.6404 17.5387C18.4436 17.1017 18.288 16.6728 18.1706 16.2515C18.0767 15.9145 18.0071 15.5813 17.9605 15.2514C17.8508 14.4598 17.8482 13.7185 17.942 13.0211L17.9425 13.0172C18.0291 12.3637 18.1819 11.7507 18.3979 11.1741M18.9427 11.1789L18.9462 11.1705C19.3249 10.2686 19.8557 9.40972 20.6307 8.78993C21.3859 8.17286 22.3819 7.76994 23.515 7.96766C24.8963 8.18856 25.685 9.21291 26.0835 10.1491L26.0901 10.1646L26.0965 10.1802C26.2392 10.5318 26.3491 10.9037 26.4345 11.2848C26.5362 11.7388 26.5805 12.207 26.5826 12.6786C26.5985 13.2031 26.5484 13.7409 26.4515 14.2818L26.4496 14.2925C26.3429 14.8697 26.1646 15.4666 25.9338 16.0755L25.9307 16.0836L25.9275 16.0917C25.6196 16.8829 25.1442 17.5847 24.4845 18.1424C23.8393 18.6992 23.0092 19.1076 22.0277 19.1076C20.8564 19.1076 19.9806 18.4766 19.4143 17.7524L19.4042 17.7395L19.3943 17.7264C18.7232 16.8385 18.5149 15.6788 18.4547 14.6395C18.3749 13.4266 18.5034 12.2524 18.9392 11.1873L18.9427 11.1789ZM23.1854 16.6217C23.5713 16.2977 23.8641 15.8793 24.0637 15.3664C24.2633 14.84 24.403 14.3608 24.4829 13.9289C24.5627 13.4835 24.596 13.0786 24.5827 12.7142C24.5827 12.3497 24.5494 12.019 24.4829 11.7221C24.4163 11.4252 24.3365 11.162 24.2433 10.9325C23.9905 10.3386 23.6379 10.0079 23.1854 9.94044C22.7463 9.85946 22.3138 9.99443 21.888 10.3454C21.4622 10.6828 21.0963 11.2159 20.7902 11.9448C20.4975 12.6602 20.3843 13.5173 20.4509 14.5161C20.5041 15.4474 20.6838 16.1155 20.9898 16.5204C21.2959 16.9119 21.6418 17.1076 22.0277 17.1076C22.4269 17.1076 22.8128 16.9456 23.1854 16.6217ZM22.4328 13.9282C22.4339 13.7967 22.4399 13.6738 22.4499 13.5588C22.4499 13.5587 22.4499 13.559 22.4499 13.5588C22.4743 13.2798 22.5229 13.0476 22.5853 12.8558C22.5865 13.0389 22.5678 13.2746 22.515 13.5704C22.4948 13.6789 22.4678 13.798 22.4328 13.9282ZM37.7321 10.9325C37.4793 10.3386 37.1266 10.0079 36.6742 9.94044C36.2351 9.85946 35.8026 9.99443 35.3768 10.3454C34.951 10.6828 34.585 11.2159 34.279 11.9448C33.9862 12.6602 33.8731 13.5173 33.9396 14.5161C33.9929 15.4474 34.1725 16.1155 34.4786 16.5204C34.7846 16.9119 35.1306 17.1076 35.5165 17.1076C35.9157 17.1076 36.3016 16.9456 36.6742 16.6217C37.0601 16.2977 37.3528 15.8793 37.5525 15.3664C37.7521 14.84 37.8918 14.3608 37.9716 13.9289C38.0515 13.4835 38.0847 13.0786 38.0714 12.7142C38.0714 12.3497 38.0381 12.019 37.9716 11.7221C37.9051 11.4252 37.8252 11.162 37.7321 10.9325ZM40.0713 12.6786C40.0692 12.207 40.0249 11.7387 39.9232 11.2848C39.8378 10.9037 39.7279 10.5318 39.5852 10.1802L39.5789 10.1646L39.5723 10.1491C39.1737 9.21293 38.3851 8.18859 37.0038 7.96767C35.8707 7.76993 34.8748 8.17283 34.1196 8.78986C33.3445 9.40966 32.8137 10.2685 32.4349 11.1705L32.4314 11.1789L32.428 11.1873C31.9921 12.2524 31.8637 13.4267 31.9434 14.6396C32.0037 15.6788 32.212 16.8386 32.8831 17.7264L32.8929 17.7395L32.903 17.7524C33.4693 18.4766 34.3451 19.1076 35.5165 19.1076C36.4979 19.1076 37.3281 18.6991 37.9733 18.1424C38.633 17.5846 39.1084 16.8829 39.4163 16.0917L39.4194 16.0836L39.4225 16.0755C39.6534 15.4666 39.8316 14.8697 39.9383 14.2925L39.9402 14.2818C40.0372 13.7409 40.0873 13.2031 40.0713 12.6786ZM35.9215 13.9282C35.9227 13.7968 35.9286 13.6739 35.9387 13.559C35.9386 13.5592 35.9387 13.5588 35.9387 13.559C35.9631 13.2799 36.0116 13.0476 36.074 12.8558C36.0753 13.0389 36.0565 13.2747 36.0038 13.5706C35.9836 13.679 35.9565 13.7981 35.9215 13.9282Z" fill="black"/>
<path d="M7.30547 11.3577L5.34937 8.80666L9.28153 5.02063L14.7906 4.45374L14.0321 21.501L9.14181 20.8531L9.08193 9.83921L7.30547 11.3577Z" fill="white"/>
<path d="M27.0577 19.1727C26.6984 19.6586 26.2526 20.0973 25.7204 20.4887C25.1881 20.8801 24.6026 21.1838 23.9639 21.3998C23.3384 21.6292 22.6864 21.7574 22.0078 21.7844C21.3291 21.8114 20.6638 21.7102 20.0117 21.4807C19.373 21.2648 18.7742 20.9071 18.2153 20.4077C17.6697 19.8948 17.204 19.2132 16.8181 18.3628C16.3923 17.418 16.1128 16.4732 15.9798 15.5284C15.8467 14.5701 15.84 13.6455 15.9598 12.7547C16.0796 11.8503 16.3058 10.9932 16.6384 10.1834C16.9844 9.36005 17.4102 8.61095 17.9159 7.93608C18.4349 7.2612 19.0204 6.66732 19.6724 6.15441C20.3377 5.64151 21.0497 5.24334 21.8081 4.95989C22.5267 4.67645 23.212 4.56172 23.8641 4.61571C24.5294 4.6562 25.1282 4.79792 25.6605 5.04088C26.1927 5.28383 26.6585 5.60102 27.0577 5.99245C27.4569 6.37037 27.7563 6.7618 27.9559 7.16672C28.3418 7.92258 28.6479 8.78641 28.8741 9.75823C29.1136 10.7165 29.2201 11.7221 29.1934 12.7749C29.1668 13.8277 28.9872 14.9007 28.6545 15.994C28.3218 17.0873 27.7896 18.1469 27.0577 19.1727ZM24.2433 10.9325C23.9905 10.3386 23.6378 10.0079 23.1854 9.94044C22.7463 9.85946 22.3138 9.99443 21.888 10.3454C21.4622 10.6828 21.0962 11.216 20.7902 11.9448C20.4974 12.6602 20.3843 13.5173 20.4509 14.5161C20.5041 15.4474 20.6837 16.1155 20.9898 16.5204C21.2958 16.9119 21.6418 17.1076 22.0277 17.1076C22.4269 17.1076 22.8128 16.9456 23.1854 16.6217C23.5713 16.2977 23.8641 15.8793 24.0637 15.3664C24.2633 14.84 24.403 14.3608 24.4828 13.9289C24.5627 13.4835 24.5959 13.0786 24.5826 12.7142C24.5826 12.3497 24.5494 12.019 24.4828 11.7221C24.4163 11.4252 24.3364 11.162 24.2433 10.9325Z" fill="white"/>
<path d="M40.5465 19.1727C40.1872 19.6586 39.7414 20.0973 39.2091 20.4887C38.6768 20.8801 38.0913 21.1838 37.4526 21.3998C36.8272 21.6292 36.1752 21.7574 35.4965 21.7844C34.8179 21.8114 34.1525 21.7102 33.5005 21.4807C32.8618 21.2648 32.263 20.9071 31.7041 20.4077C31.1585 19.8948 30.6927 19.2132 30.3068 18.3628C29.881 17.418 29.6016 16.4732 29.4685 15.5284C29.3354 14.5701 29.3288 13.6455 29.4486 12.7547C29.5683 11.8503 29.7945 10.9932 30.1272 10.1834C30.4732 9.36005 30.899 8.61095 31.4047 7.93608C31.9236 7.2612 32.5091 6.66732 33.1612 6.15441C33.8265 5.64151 34.5384 5.24334 35.2969 4.95989C36.0155 4.67645 36.7008 4.56172 37.3528 4.61571C38.0182 4.6562 38.617 4.79792 39.1492 5.04088C39.6815 5.28383 40.1473 5.60102 40.5465 5.99245C40.9457 6.37037 41.2451 6.7618 41.4447 7.16672C41.8306 7.92258 42.1366 8.78641 42.3628 9.75823C42.6024 10.7165 42.7088 11.7221 42.6822 12.7749C42.6556 13.8277 42.4759 14.9007 42.1433 15.994C41.8106 17.0873 41.2783 18.1469 40.5465 19.1727ZM37.7321 10.9325C37.4792 10.3386 37.1266 10.0079 36.6742 9.94044C36.235 9.85946 35.8026 9.99443 35.3768 10.3454C34.9509 10.6828 34.585 11.216 34.2789 11.9448C33.9862 12.6602 33.8731 13.5173 33.9396 14.5161C33.9928 15.4474 34.1725 16.1155 34.4785 16.5204C34.7846 16.9119 35.1306 17.1076 35.5165 17.1076C35.9157 17.1076 36.3016 16.9456 36.6742 16.6217C37.0601 16.2977 37.3528 15.8793 37.5524 15.3664C37.752 14.84 37.8917 14.3608 37.9716 13.9289C38.0514 13.4835 38.0847 13.0786 38.0714 12.7142C38.0714 12.3497 38.0381 12.019 37.9716 11.7221C37.905 11.4252 37.8252 11.162 37.7321 10.9325Z" fill="white"/>
</svg>
