<svg width="93" height="106" viewBox="0 0 93 106" fill="none" xmlns="http://www.w3.org/2000/svg">
<path fill-rule="evenodd" clip-rule="evenodd" d="M86.9447 19.4287L87.6189 20.6292C91.1668 26.9461 92.9725 33.9018 91.6287 41.069L91.626 41.0831L91.6234 41.0972C90.5543 46.7096 88.1284 51.8236 84.6032 56.397L89.0693 55.8862L87.9771 101.944L8.96849 105.941L8.80691 81.2198C8.11725 77.2652 8.97554 73.5314 10.4381 70.3972C11.8174 67.4417 13.7027 64.6573 15.9078 62.0359C17.3796 60.2414 18.9906 58.4815 20.7305 56.7542L0.884155 28.1695L7.12686 22.2625C13.7182 16.0255 20.2037 11.0344 26.5843 7.56188C32.5677 4.2418 38.4647 1.84825 44.1845 0.792278L44.1978 0.789821L44.2111 0.787399C49.5767 -0.18815 54.8653 -0.313859 59.9136 0.73092C64.4134 1.64929 68.6459 3.18548 72.3881 5.53859C75.4772 7.44369 78.2819 9.57865 80.702 11.9862C82.6905 13.9065 84.5804 15.9854 85.9775 18.1646C86.2242 18.5344 86.4248 18.8333 86.5824 19.0664L86.9447 19.4287ZM73.7 19.1261C71.9 17.3261 69.7 15.6261 67.1 14.0261C64.5666 12.4261 61.5 11.2594 57.9 10.5261C54.3666 9.79277 50.4 9.8261 46 10.6261C41.6666 11.4261 36.8 13.3261 31.4 16.3261C26 19.2594 20.2 23.6594 14 29.5261L27.4 48.8261C29.3333 47.0928 31.7 45.2261 34.5 43.2261C34.7678 43.0393 35.0349 42.8548 35.3016 42.6726C36.7701 41.6692 38.221 40.7364 39.6542 39.8742C40.7464 39.2172 41.8283 38.6011 42.9 38.0261C43.5035 37.6956 44.0947 37.3868 44.6735 37.0996C44.7268 37.0731 44.7801 37.0468 44.8333 37.0207C45.027 36.9256 45.2194 36.8328 45.4103 36.7426C46.6723 36.146 47.8731 35.6564 49.0129 35.2738C49.1084 35.2418 49.2035 35.2105 49.2981 35.1799C49.7067 35.048 50.1074 34.93 50.5 34.8261C52.7666 34.2261 54.3 34.4594 55.1 35.5261C55.6333 36.2594 55.4666 37.2928 54.6 38.6261C54.0529 39.5379 53.2877 40.5431 52.3042 41.6419C51.8494 42.15 51.348 42.6781 50.8 43.2261C50.5666 43.4505 50.3271 43.6786 50.0816 43.9103C49.2695 44.6767 48.3911 45.4829 47.4467 46.3288C47.4261 46.3472 47.4054 46.3657 47.3848 46.3842C46.7982 46.909 46.1863 47.449 45.549 48.0042C45.2387 48.2745 44.9223 48.5485 44.6 48.8261C42.2666 50.8261 39.8333 52.9261 37.3 55.1261C34.7666 57.3261 32.3 59.5594 29.9 61.8261C27.5 64.0261 25.4 66.2261 23.6 68.4261C21.8 70.5594 20.4333 72.6261 19.5 74.6261C18.5666 76.6261 18.3333 78.4594 18.8 80.1261L18.9 95.4261L78.2 92.4261L78.8 67.1261L51.7 70.2261C56.1666 67.4261 60.6 64.4594 65 61.3261C66.4087 60.3015 67.7458 59.2531 69.011 58.1807C71.6975 55.9036 74.0605 53.5188 76.1 51.0261C79.1 47.3594 81 43.4261 81.8 39.2261C82.6 34.9594 81.6333 30.3928 78.9 25.5261C78.8333 25.4594 78.4 24.8261 77.6 23.6261C76.8 22.3594 75.5 20.8594 73.7 19.1261Z" fill="black"/>
<path d="M78.9 25.5261C81.6333 30.3928 82.6 34.9594 81.8 39.2261C81 43.4261 79.1 47.3594 76.1 51.0261C73.1 54.6928 69.4 58.1261 65 61.3261C60.6 64.4594 56.1667 67.4261 51.7 70.2261L78.8 67.1261L78.2 92.4261L18.9 95.4261L18.8 80.1261C18.3333 78.4594 18.5667 76.6261 19.5 74.6261C20.4333 72.6261 21.8 70.5594 23.6 68.4261C25.4 66.2261 27.5 64.0261 29.9 61.8261C32.3 59.5594 34.7667 57.3261 37.3 55.1261C39.8333 52.9261 42.2667 50.8261 44.6 48.8261C47 46.7594 49.0667 44.8928 50.8 43.2261C52.5333 41.4928 53.8 39.9594 54.6 38.6261C55.4667 37.2928 55.6333 36.2594 55.1 35.5261C54.3 34.4594 52.7667 34.2261 50.5 34.8261C48.2333 35.4261 45.7 36.4928 42.9 38.0261C40.1667 39.4928 37.3667 41.2261 34.5 43.2261C31.7 45.2261 29.3333 47.0928 27.4 48.8261L14 29.5261C20.2 23.6594 26 19.2594 31.4 16.3261C36.8 13.3261 41.6667 11.4261 46 10.6261C50.4 9.82609 54.3667 9.79275 57.9 10.5261C61.5 11.2594 64.5667 12.4261 67.1 14.0261C69.7 15.6261 71.9 17.3261 73.7 19.1261C75.5 20.8594 76.8 22.3594 77.6 23.6261C78.4 24.8261 78.8333 25.4594 78.9 25.5261Z" fill="white"/>
</svg>
