<svg width="89" height="107" viewBox="0 0 89 107" fill="none" xmlns="http://www.w3.org/2000/svg">
<path fill-rule="evenodd" clip-rule="evenodd" d="M43.059 41.7898C43.2253 41.7813 43.3877 41.7713 43.5461 41.7598C43.68 41.7501 43.8111 41.7393 43.9394 41.7275C44.8952 41.6394 45.6937 41.4923 46.3349 41.2862C48.2682 40.6195 49.4349 39.8195 49.8349 38.8862C50.3016 37.8862 50.3349 36.9862 49.9349 36.1862L49.3349 34.8862L48.2349 33.8862C47.5682 33.2195 46.3682 32.8195 44.6349 32.6862C44.2998 32.646 43.939 32.6273 43.5526 32.6303C43.4863 32.6308 43.4191 32.6319 43.3513 32.6337C42.9564 32.644 42.536 32.6758 42.09 32.7292C40.8394 32.8789 39.3877 33.1979 37.7349 33.6862C37.6322 33.7149 37.5286 33.7449 37.424 33.7764C36.8507 33.949 36.2491 34.164 35.6192 34.4215C33.1567 35.428 30.2619 37.0829 26.9349 39.3862L17.1349 21.1862C23.6682 16.5862 29.7349 13.5195 35.3349 11.9862C40.9349 10.3862 45.8349 9.75287 50.0349 10.0862C54.2349 10.3529 57.8349 11.1529 60.8349 12.4862C63.9016 13.7529 66.1349 14.9862 67.5349 16.1862C69.0016 17.3195 69.8016 17.9529 69.9349 18.0862C70.0016 18.1529 70.5016 18.7862 71.4349 19.9862C72.3682 21.1195 73.3016 22.7529 74.2349 24.8862C75.2349 27.0195 75.7682 29.3862 75.8349 31.9862C75.9682 34.5862 75.2016 37.3529 73.5349 40.2862C73.2418 40.8235 72.904 41.3574 72.5215 41.888C70.8156 44.2541 68.2201 46.5535 64.7349 48.7862C68.1295 50.7921 70.8098 52.9963 72.7759 55.399C73.3582 56.1107 73.8779 56.8397 74.3349 57.5862C76.3349 60.7862 77.5349 63.9529 77.9349 67.0862C78.3349 70.1529 78.2682 73.0529 77.7349 75.7862C77.2016 78.5195 76.6016 80.6529 75.9349 82.1862C75.2682 83.6529 74.9016 84.4529 74.8349 84.5862L73.4349 86.5862C72.5682 87.8529 71.1349 89.2862 69.1349 90.8862C67.2016 92.4195 64.6349 93.7862 61.4349 94.9862C58.3016 96.2529 54.4682 96.7862 49.9349 96.5862C45.4682 96.4529 40.2349 95.3529 34.2349 93.2862C30.6312 91.9905 26.7325 90.1538 22.5386 87.776C19.8274 86.2389 16.9928 84.4756 14.0349 82.4862L28.7349 61.4862C29.6889 62.1752 30.6074 62.8182 31.4904 63.415C33.2566 64.609 34.8805 65.6185 36.3622 66.4435C37.8664 67.2812 39.224 67.9287 40.4349 68.3862C40.4757 68.4007 40.5163 68.4151 40.5568 68.4294C43.4982 69.4664 45.7909 69.952 47.4349 69.8862C49.1016 69.7529 50.2349 69.3862 50.8349 68.7862L51.7349 67.7862C51.7349 67.7195 51.8682 67.3529 52.1349 66.6862C52.4016 65.9529 52.4682 65.0529 52.3349 63.9862C52.2016 62.9195 51.6349 61.9195 50.6349 60.9862C49.7026 60.0539 48.0385 59.3544 45.6426 58.8877C45.64 58.8872 45.6375 58.8867 45.6349 58.8862C44.7855 58.6975 43.8192 58.5672 42.736 58.4953C40.7586 58.3641 38.3915 58.4278 35.6349 58.6862L36.7349 41.5862C37.9127 41.6901 39.0005 41.7603 39.9983 41.7967C40.0054 41.797 40.0124 41.7972 40.0194 41.7975C40.0573 41.7989 40.095 41.8002 40.1326 41.8014C40.8327 41.8251 41.4878 41.8318 42.0978 41.8216C42.1312 41.8211 42.1645 41.8205 42.1977 41.8198C42.4957 41.8139 42.7828 41.8039 43.059 41.7898ZM22.7169 52.6454L4.12448 18.1166L11.3779 13.0096C18.5082 7.98925 25.6088 4.2903 32.6394 2.35621C38.9322 0.562895 45.0326 -0.329204 50.7448 0.111195C55.7329 0.434676 60.4827 1.40905 64.7684 3.2916C68.027 4.64447 71.2735 6.28794 73.8162 8.40231C74.4837 8.91865 75.0298 9.3445 75.4419 9.67076C75.453 9.67953 75.4683 9.69155 75.4874 9.70654C75.7128 9.88356 76.4653 10.4744 77.006 11.0151M77.006 11.0151C77.2402 11.2494 77.415 11.4483 77.4621 11.5019L77.4641 11.5042C77.5381 11.5884 77.599 11.6603 77.6373 11.7059C77.7148 11.7982 77.7862 11.8858 77.8386 11.9505C77.9476 12.0851 78.0748 12.2452 78.2087 12.4148C78.4676 12.7426 78.8194 13.1925 79.2571 13.7552C80.9418 15.8348 82.2646 18.3071 83.3478 20.7671C84.9357 24.202 85.7178 27.8613 85.8283 31.6096C86.0489 36.5205 84.5597 41.102 82.2702 45.1545C81.6228 46.3306 80.8782 47.4487 80.0521 48.5129C81.0783 49.7102 82.0118 50.9788 82.8382 52.3236C85.4405 56.497 87.2361 61.0037 87.8518 65.7993C88.3749 69.8147 88.3104 73.8031 87.5498 77.7013C86.9563 80.7433 86.189 83.6816 85.1056 86.1735L85.0727 86.2491L85.0386 86.3242C84.4409 87.6391 83.9547 88.7074 83.7792 89.0583L83.4497 89.7173L83.0272 90.3208L83.0259 90.3228L81.6526 92.2846C79.9821 94.7091 77.6951 96.8443 75.3819 98.6949L75.3654 98.7081L75.3488 98.7212C72.3823 101.074 68.8445 102.878 65.058 104.307C60.2766 106.214 54.9921 106.812 49.564 106.58C43.785 106.397 37.5382 105.001 30.9782 102.741L30.9147 102.719L30.8515 102.696C23.8853 100.192 16.3994 96.1278 8.45406 90.784L0 85.0981L22.7169 52.6454" fill="black"/>
<path d="M64.7349 48.7862C69.1349 51.3862 72.3349 54.3195 74.3349 57.5862C76.3349 60.7862 77.5349 63.9529 77.9349 67.0862C78.3349 70.1529 78.2683 73.0529 77.7349 75.7862C77.2016 78.5195 76.6016 80.6529 75.9349 82.1862C75.2682 83.6529 74.9016 84.4529 74.8349 84.5862C74.8349 84.5862 74.3683 85.2529 73.4349 86.5862C72.5683 87.8529 71.1349 89.2862 69.1349 90.8862C67.2016 92.4195 64.6349 93.7862 61.4349 94.9862C58.3016 96.2529 54.4682 96.7862 49.9349 96.5862C45.4682 96.4529 40.2349 95.3529 34.2349 93.2862C28.3016 91.1529 21.5682 87.5529 14.0349 82.4862L28.7349 61.4862C33.5349 64.9529 37.4349 67.2529 40.4349 68.3862C43.4349 69.4529 45.7682 69.9529 47.4349 69.8862C49.1016 69.7529 50.2349 69.3862 50.8349 68.7862C51.4349 68.1195 51.7349 67.7862 51.7349 67.7862C51.7349 67.7195 51.8682 67.3529 52.1349 66.6862C52.4016 65.9529 52.4682 65.0529 52.3349 63.9862C52.2016 62.9195 51.6349 61.9195 50.6349 60.9862C49.7016 60.0529 48.0349 59.3529 45.6349 58.8862C43.2349 58.3529 39.9016 58.2862 35.6349 58.6862L36.7349 41.5862C41.2682 41.9862 44.4682 41.8862 46.3349 41.2862C48.2682 40.6195 49.4349 39.8195 49.8349 38.8862C50.3016 37.8862 50.3349 36.9862 49.9349 36.1862C49.5349 35.3195 49.3349 34.8862 49.3349 34.8862C49.3349 34.8862 48.9682 34.5529 48.2349 33.8862C47.5682 33.2195 46.3682 32.8195 44.6349 32.6862C42.9682 32.4862 40.6682 32.8195 37.7349 33.6862C34.8682 34.4862 31.2682 36.3862 26.9349 39.3862L17.1349 21.1862C23.6682 16.5862 29.7349 13.5195 35.3349 11.9862C40.9349 10.3862 45.8349 9.75287 50.0349 10.0862C54.2349 10.3529 57.8349 11.1529 60.8349 12.4862C63.9016 13.7529 66.1349 14.9862 67.5349 16.1862C69.0016 17.3195 69.8016 17.9529 69.9349 18.0862C70.0016 18.1529 70.5016 18.7862 71.4349 19.9862C72.3682 21.1195 73.3016 22.7529 74.2349 24.8862C75.2349 27.0195 75.7682 29.3862 75.8349 31.9862C75.9682 34.5862 75.2016 37.3529 73.5349 40.2862C71.9349 43.2195 69.0016 46.0529 64.7349 48.7862Z" fill="white"/>
</svg>
