<svg width="78" height="89" viewBox="0 0 78 89" fill="none" xmlns="http://www.w3.org/2000/svg">
<path fill-rule="evenodd" clip-rule="evenodd" d="M13.2804 29.758C13.2804 15.768 24.6216 4.42679 38.6116 4.42679C52.6017 4.42679 63.9429 15.768 63.9429 29.758V39.1035C63.9429 39.2197 63.9421 39.3357 63.9405 39.4515L64.0501 39.3495V52.9104C64.2873 54.5505 65.4495 58.1187 68.2008 59.2708C71.6399 60.7109 74.3675 63.7111 71.7585 67.4313C69.7716 70.2645 63.8644 69.9657 60.0079 66.5348V74.764C60.0079 77.7522 57.5855 80.1746 54.5974 80.1746C51.6092 80.1746 49.1868 77.7522 49.1868 74.764V78.2071C49.1868 81.1953 46.7644 83.6177 43.7763 83.6177C40.7881 83.6177 38.3657 81.1953 38.3657 78.2071C38.3657 81.1953 35.9433 83.6177 32.9551 83.6177C29.967 83.6177 27.5446 81.1953 27.5446 78.2071V74.764C27.5446 77.7522 25.1222 80.1746 22.134 80.1746C19.1459 80.1746 16.7235 77.7522 16.7235 74.764V66.947C12.8738 69.9851 7.3689 70.1466 5.46473 67.4313C2.85574 63.7111 5.58332 60.7109 9.02245 59.2708C11.7738 58.1187 12.9359 54.5505 13.1731 52.9104V39.3495L13.2827 39.4515C13.2812 39.3357 13.2804 39.2197 13.2804 39.1035V29.758Z" fill="black"/>
<path fill-rule="evenodd" clip-rule="evenodd" d="M13.2805 29.7581C13.2805 15.768 24.6217 4.42682 38.6118 4.42682C52.6018 4.42682 63.943 15.768 63.943 29.7581V39.1036C63.943 39.147 63.9429 39.1905 63.9427 39.2339C63.9425 39.2725 63.9422 39.311 63.9418 39.3495C63.9415 39.3835 63.9411 39.4175 63.9407 39.4515L64.0503 39.3495V52.9104C64.2875 54.5505 65.4497 58.1187 68.201 59.2708C71.6401 60.7109 74.3677 63.7111 71.7587 67.4314C70.4498 69.2978 67.4394 69.805 64.4349 68.9529C62.8787 68.5115 61.324 67.7055 60.0081 66.5348V74.764C60.0081 77.7522 57.5857 80.1746 54.5975 80.1746C54.2007 80.1746 53.8138 80.1319 53.4413 80.0508C52.2366 79.7885 51.1817 79.125 50.4237 78.2071C49.6511 77.2717 49.187 76.0721 49.187 74.764V78.2071C49.187 79.611 48.6523 80.89 47.7754 81.8516C46.7859 82.9368 45.3607 83.6177 43.7764 83.6177C42.9576 83.6177 42.1812 83.4358 41.4856 83.1102C39.6426 82.2476 38.3658 80.3765 38.3658 78.2071C38.3658 80.3765 37.0891 82.2476 35.2461 83.1102C34.5504 83.4358 33.7741 83.6177 32.9553 83.6177C31.371 83.6177 29.9458 82.9368 28.9562 81.8516C28.0794 80.89 27.5447 79.611 27.5447 78.2071V74.764C27.5447 76.0721 27.0806 77.2717 26.308 78.2071C25.55 79.125 24.4951 79.7885 23.2904 80.0508C22.9179 80.1319 22.531 80.1746 22.1342 80.1746C19.146 80.1746 16.7236 77.7522 16.7236 74.764V66.947C15.3757 68.0108 13.8249 68.7219 12.2968 69.0803C9.46049 69.7455 6.70233 69.1959 5.46487 67.4314C2.85588 63.7111 5.58346 60.7109 9.02259 59.2708C11.7739 58.1187 12.9361 54.5505 13.1733 52.9104V39.3495L13.2829 39.4515C13.2824 39.4175 13.282 39.3835 13.2817 39.3495C13.2813 39.311 13.2811 39.2725 13.2809 39.2339C13.2806 39.1905 13.2805 39.147 13.2805 39.1036V29.7581ZM8.85743 29.2833L8.74645 29.1799V52.5232C8.65573 52.9411 8.45915 53.5841 8.13758 54.185C7.72826 54.95 7.38778 55.1561 7.31277 55.1875C5.1109 56.1095 2.57354 57.7401 1.11847 60.3238C0.351631 61.6855 -0.10388 63.3085 0.0202911 65.0961C0.14341 66.8685 0.815419 68.5115 1.84049 69.9731C4.00187 73.0551 7.65952 73.881 10.5351 73.7702C11.1163 73.7478 11.7054 73.6881 12.2968 73.5913V74.764C12.2968 80.1971 16.7011 84.6014 22.1342 84.6014C23.1715 84.6014 24.1713 84.4409 25.1101 84.1433C26.9063 86.5135 29.752 88.0445 32.9553 88.0445C34.9541 88.0445 36.8136 87.4484 38.3658 86.4243C39.9181 87.4484 41.7776 88.0445 43.7764 88.0445C46.9797 88.0445 49.8253 86.5135 51.6216 84.1433C52.5604 84.4409 53.5602 84.6014 54.5975 84.6014C60.0305 84.6014 64.4349 80.1971 64.4349 74.764V73.5023C65.0557 73.6253 65.6748 73.7075 66.2855 73.7488C69.2634 73.9504 73.1301 73.1858 75.3831 69.9731C76.4081 68.5115 77.0801 66.8685 77.2033 65.0961C77.3274 63.3085 76.8719 61.6855 76.1051 60.3238C74.65 57.7401 72.1127 56.1095 69.9108 55.1875C69.8358 55.1561 69.4953 54.95 69.086 54.185C68.7644 53.5841 68.5678 52.9411 68.4771 52.5231V29.1799L68.3661 29.2833C68.1125 13.0673 54.8881 0 38.6118 0C22.3354 0 9.11108 13.0673 8.85743 29.2833Z" fill="white"/>
<ellipse cx="30.2498" cy="43.0385" rx="5.65649" ry="11.067" fill="white"/>
<ellipse cx="30.2498" cy="43.0385" rx="5.65649" ry="11.067" fill="white"/>
<ellipse cx="46.4815" cy="43.0385" rx="5.65649" ry="11.067" fill="white"/>
<ellipse cx="46.4815" cy="43.0385" rx="5.65649" ry="11.067" fill="white"/>
</svg>
