<svg width="88" height="100" viewBox="0 0 88 100" fill="none" xmlns="http://www.w3.org/2000/svg">
<path fill-rule="evenodd" clip-rule="evenodd" d="M15.0838 33.7989C15.0838 17.9091 27.965 5.02793 43.8547 5.02793C59.7445 5.02793 72.6257 17.9091 72.6257 33.7989V44.4134C72.6257 44.5454 72.6248 44.6771 72.623 44.8086L72.7475 44.6927V60.0951C73.0169 61.9579 74.3369 66.0107 77.4618 67.3192C81.3679 68.9548 84.4659 72.3624 81.5026 76.5878C79.2459 79.8057 72.5365 79.4663 68.1564 75.5696V84.9162C68.1564 88.3101 65.4051 91.0615 62.0111 91.0615C58.6172 91.0615 55.8659 88.3101 55.8659 84.9162V88.8268C55.8659 92.2207 53.1146 94.9721 49.7206 94.9721C46.3267 94.9721 43.5754 92.2207 43.5754 88.8268C43.5754 92.2207 40.8241 94.9721 37.4301 94.9721C34.0362 94.9721 31.2849 92.2207 31.2849 88.8268V84.9162C31.2849 88.3101 28.5336 91.0615 25.1396 91.0615C21.7457 91.0615 18.9944 88.3101 18.9944 84.9162V76.0377C14.622 79.4884 8.36955 79.6717 6.20681 76.5878C3.24354 72.3624 6.34151 68.9548 10.2476 67.3192C13.3725 66.0107 14.6925 61.9579 14.9619 60.0951V44.6927L15.0864 44.8086C15.0846 44.6771 15.0838 44.5454 15.0838 44.4134V33.7989Z" fill="white"/>
<path fill-rule="evenodd" clip-rule="evenodd" d="M15.0839 33.7989C15.0839 17.9091 27.9651 5.02793 43.8548 5.02793C59.7446 5.02793 72.6258 17.9091 72.6258 33.7989V44.4134C72.6258 44.4628 72.6257 44.5121 72.6254 44.5615C72.6252 44.6052 72.6249 44.649 72.6245 44.6927C72.6241 44.7314 72.6237 44.77 72.6231 44.8086L72.7476 44.6927V60.0951C73.017 61.9579 74.337 66.0106 77.4619 67.3192C81.368 68.9548 84.466 72.3624 81.5027 76.5878C80.0161 78.7077 76.597 79.2837 73.1845 78.3159C71.4169 77.8146 69.6511 76.8992 68.1565 75.5695V84.9162C68.1565 88.3101 65.4052 91.0614 62.0113 91.0614C61.5605 91.0614 61.1212 91.0129 60.698 90.9208C59.3297 90.6229 58.1316 89.8693 57.2707 88.8268C56.3932 87.7643 55.866 86.4018 55.866 84.9162V88.8268C55.866 90.4213 55.2587 91.874 54.2628 92.9662C53.139 94.1987 51.5202 94.9721 49.7208 94.9721C48.7908 94.9721 47.909 94.7655 47.1189 94.3957C45.0256 93.416 43.5755 91.2907 43.5755 88.8268C43.5755 91.2907 42.1254 93.416 40.0321 94.3957C39.242 94.7655 38.3603 94.9721 37.4303 94.9721C35.6308 94.9721 34.0121 94.1987 32.8882 92.9662C31.8923 91.874 31.285 90.4213 31.285 88.8268V84.9162C31.285 86.4018 30.7578 87.7643 29.8804 88.8268C29.0194 89.8693 27.8213 90.6229 26.453 90.9208C26.0299 91.0129 25.5905 91.0614 25.1398 91.0614C21.7458 91.0614 18.9945 88.3101 18.9945 84.9162V76.0377C17.4636 77.2459 15.7022 78.0535 13.9666 78.4606C10.7451 79.2162 7.61244 78.592 6.20694 76.5878C3.24367 72.3624 6.34164 68.9548 10.2478 67.3192C13.3727 66.0106 14.6927 61.9579 14.9621 60.0951V44.6927L15.0865 44.8086C15.086 44.77 15.0856 44.7314 15.0852 44.6927C15.0848 44.649 15.0845 44.6052 15.0843 44.5615C15.084 44.5121 15.0839 44.4628 15.0839 44.4134V33.7989ZM10.0602 33.2596L9.93412 33.1423V59.6552C9.83109 60.13 9.60782 60.8602 9.24258 61.5428C8.77768 62.4116 8.39096 62.6457 8.30576 62.6814C5.8049 63.7286 2.923 65.5805 1.27035 68.5151C0.399379 70.0617 -0.117985 71.9052 0.0230465 73.9354C0.162884 75.9485 0.926145 77.8146 2.09041 79.4747C4.54528 82.9752 8.69961 83.9133 11.9656 83.7874C12.6258 83.762 13.2949 83.6942 13.9666 83.5842V84.9162C13.9666 91.087 18.969 96.0894 25.1398 96.0894C26.3179 96.0894 27.4535 95.907 28.5198 95.569C30.5599 98.2611 33.792 100 37.4303 100C39.7004 100 41.8125 99.323 43.5755 98.1598C45.3385 99.323 47.4506 100 49.7208 100C53.359 100 56.5911 98.2611 58.6312 95.569C59.6975 95.907 60.8331 96.0894 62.0113 96.0894C68.1821 96.0894 73.1845 91.087 73.1845 84.9162V83.4831C73.8896 83.6228 74.5927 83.7162 75.2863 83.7631C78.6686 83.9921 83.0603 83.1236 85.6193 79.4747C86.7835 77.8146 87.5468 75.9485 87.6866 73.9354C87.8277 71.9052 87.3103 70.0617 86.4393 68.5151C84.7867 65.5805 81.9048 63.7286 79.4039 62.6814C79.3187 62.6457 78.932 62.4116 78.4671 61.5428C78.1019 60.8602 77.8786 60.13 77.7756 59.6552V33.1423L77.6495 33.2596C77.3614 14.8417 62.3414 0 43.8548 0C25.3683 0 10.3483 14.8417 10.0602 33.2596Z" fill="black"/>
</svg>
