<svg width="216" height="119" viewBox="0 0 216 119" fill="none" xmlns="http://www.w3.org/2000/svg">
<path d="M175.879 106.725C173.805 106.082 171.92 105.201 170.224 104.083C168.596 103.027 167.227 101.83 166.117 100.491C165.074 99.1495 164.324 97.7305 163.869 96.2342C163.48 94.7353 163.522 93.2854 163.996 91.8844C164.404 90.486 165.183 89.2706 166.332 88.2382C167.482 87.2058 168.872 86.4273 170.504 85.9026C172.202 85.3754 174.043 85.1388 176.028 85.1929C178.011 85.1812 180.037 85.464 182.109 86.0413C184.183 86.6843 186.035 87.5664 187.665 88.6876C189.359 89.7405 190.727 90.9377 191.771 92.2794C192.881 93.6184 193.631 95.0374 194.02 96.5363C194.409 98.0351 194.399 99.4838 193.991 100.882C193.584 102.281 192.804 103.463 191.652 104.43C190.502 105.462 189.079 106.242 187.381 106.769C185.752 107.36 183.946 107.661 181.964 107.672C179.981 107.684 177.953 107.368 175.879 106.725ZM193.983 82.9108C192.221 81.7947 190.203 80.9191 187.931 80.2838C185.723 79.5802 183.361 79.1788 180.845 79.0797C178.396 78.978 176.057 79.1682 173.829 79.6504C171.664 80.0642 169.674 80.7345 167.86 81.6612L170.438 13.2281L199.693 10.8991L193.983 82.9108Z" fill="black"/>
<path fill-rule="evenodd" clip-rule="evenodd" d="M193.069 94.1694C193.492 94.9349 193.809 95.7238 194.02 96.5363C194.409 98.0352 194.399 99.4838 193.991 100.882C193.584 102.281 192.804 103.463 191.652 104.43C190.502 105.462 189.079 106.242 187.381 106.769C185.752 107.36 183.946 107.661 181.963 107.672C179.981 107.684 177.953 107.368 175.879 106.725C173.805 106.082 171.92 105.201 170.224 104.083C168.596 103.027 167.227 101.83 166.117 100.491C165.074 99.1495 164.324 97.7305 163.869 96.2342C163.765 95.8329 163.692 95.435 163.649 95.0407C163.534 93.9624 163.649 92.9103 163.996 91.8844C164.404 90.486 165.183 89.2706 166.332 88.2382C167.385 87.2928 168.639 86.5603 170.097 86.0407C170.231 85.9929 170.366 85.9469 170.504 85.9026C171.872 85.4778 173.334 85.2417 174.888 85.1943C174.935 85.1928 174.981 85.1916 175.027 85.1905C175.357 85.1829 175.69 85.1837 176.028 85.1929C177.518 85.1841 179.032 85.3415 180.572 85.6652C180.576 85.6662 180.581 85.6672 180.586 85.6681C181.091 85.7746 181.599 85.899 182.109 86.0413C183.368 86.4315 184.545 86.9099 185.64 87.4763C185.722 87.5186 185.803 87.5615 185.884 87.6048C186.505 87.9368 187.098 88.2978 187.665 88.6876C188.327 89.0988 188.938 89.532 189.501 89.9872C190.378 90.6976 191.135 91.4617 191.771 92.2794C192.28 92.8926 192.712 93.5226 193.069 94.1694ZM203.251 92.5382L210.588 7.57351e-06L160.78 3.96538L157.813 82.697C156.319 84.4813 155.166 86.5531 154.457 88.8811C153.393 92.1534 153.353 95.5223 154.19 98.7468L154.242 98.9465L154.302 99.144C155.143 101.909 156.495 104.409 158.225 106.632L158.32 106.754L158.418 106.873C160.236 109.066 162.382 110.912 164.75 112.452C167.277 114.114 170.017 115.378 172.918 116.277C175.877 117.194 178.924 117.69 182.022 117.672C184.908 117.655 187.79 117.225 190.567 116.25C193.306 115.371 195.929 113.995 198.211 111.979C200.758 109.8 202.627 106.986 203.591 103.683C204.537 100.443 204.512 97.1539 203.699 94.0237C203.568 93.5186 203.418 93.0234 203.251 92.5382ZM177.963 79.0976C178.906 79.045 179.867 79.0391 180.845 79.0797C181.914 79.1218 182.955 79.2185 183.968 79.3697C184.035 79.3796 184.101 79.3898 184.168 79.4002C184.188 79.4034 184.209 79.4066 184.229 79.4099C185.508 79.6135 186.742 79.9048 187.931 80.2838C189.376 80.6877 190.717 81.1887 191.956 81.7868C192.07 81.8421 192.183 81.8981 192.296 81.955C192.882 82.2512 193.444 82.5698 193.983 82.9108L199.693 10.8991L170.438 13.2281L167.86 81.6612C168.223 81.4755 168.594 81.3002 168.971 81.1351C168.987 81.1284 169.002 81.1217 169.017 81.115C170.511 80.4661 172.115 79.9779 173.829 79.6504C174.539 79.4967 175.26 79.3726 175.993 79.2783C176.059 79.2699 176.124 79.2617 176.19 79.2537C176.774 79.1829 177.365 79.1309 177.963 79.0976Z" fill="white"/>
<path fill-rule="evenodd" clip-rule="evenodd" d="M116.194 48.392C117.304 47.816 118.242 47.144 119.01 46.376C120.568 44.776 121.741 43.1014 122.53 41.352C123.32 39.5814 123.8 37.832 123.97 36.104C124.014 35.7119 124.044 35.3231 124.06 34.9375C124.346 35.412 124.676 35.8435 125.048 36.232C125.56 36.744 126.115 37.1814 126.712 37.544C127.331 37.9067 127.939 38.216 128.536 38.472C129.133 38.728 129.688 38.9307 130.2 39.08C130.733 39.2294 131.16 39.3467 131.48 39.432C131.971 39.624 132.387 39.816 132.728 40.008C133.091 40.2 133.283 40.4774 133.304 40.84C133.325 41.3947 133.059 41.7894 132.504 42.024C131.971 42.2587 131.309 42.3974 130.52 42.44C129.987 42.4614 129.443 42.408 128.888 42.28C128.333 42.152 127.8 42.0027 127.288 41.832C126.776 41.6614 126.296 41.48 125.848 41.288C125.4 41.0747 125.016 40.904 124.696 40.776L122.264 47.624C122.904 47.9227 123.587 48.2107 124.312 48.488C125.037 48.744 125.784 48.968 126.552 49.16C127.32 49.352 128.099 49.4907 128.888 49.576C129.677 49.6827 130.445 49.7254 131.192 49.704C132.813 49.64 134.328 49.3947 135.736 48.968C137.144 48.52 138.349 47.9014 139.352 47.112C140.376 46.3014 141.165 45.32 141.72 44.168C142.275 42.9947 142.52 41.6507 142.456 40.136C142.413 39.0694 142.2 38.152 141.816 37.384C141.453 36.5947 140.984 35.9227 140.408 35.368C139.853 34.8134 139.224 34.344 138.52 33.96C137.837 33.576 137.165 33.2347 136.504 32.936C135.949 32.7014 135.373 32.52 134.776 32.392L134.232 32.264C133.891 32.1787 133.411 32.072 132.792 31.944C132.643 31.9227 132.451 31.9014 132.216 31.88L131.512 31.752C131.299 31.688 131.107 31.6134 130.936 31.528C130.787 31.4214 130.712 31.2827 130.712 31.112C130.733 30.728 130.904 30.4294 131.224 30.216C131.544 30.0027 131.917 29.8534 132.344 29.768C132.792 29.6614 133.24 29.608 133.688 29.608C134.157 29.608 134.531 29.6294 134.808 29.672C135.747 29.8 136.568 29.992 137.272 30.248C137.976 30.4827 138.755 30.7814 139.608 31.144L141.496 23.752C140.344 23.2827 139.107 22.952 137.784 22.76C136.461 22.5467 135.128 22.472 133.784 22.536C132.333 22.6 130.968 22.856 129.688 23.304C128.408 23.7307 127.288 24.36 126.328 25.192C125.368 26.0027 124.611 26.9947 124.056 28.168C123.794 28.7115 123.599 29.293 123.47 29.9125C123.167 28.7665 122.768 27.7157 122.274 26.76C121.912 26.0774 121.368 25.4054 120.642 24.744C119.938 24.0614 119.074 23.4854 118.05 23.016C117.026 22.5467 115.874 22.248 114.594 22.12C113.336 21.9707 111.981 22.0774 110.53 22.44C108.994 22.8454 107.544 23.432 106.178 24.2C104.834 24.968 103.618 25.8854 102.53 26.952C101.442 27.9974 100.514 29.1707 99.7465 30.472C98.9785 31.7734 98.4238 33.16 98.0825 34.632C97.7411 36.0827 97.6451 37.5974 97.7945 39.176C97.9225 40.7547 98.3492 42.344 99.0745 43.944C99.7145 45.3734 100.546 46.536 101.57 47.432C102.594 48.328 103.714 48.9894 104.93 49.416C106.168 49.864 107.448 50.0987 108.77 50.12C110.114 50.1414 111.416 50.0027 112.674 49.704C113.933 49.4054 115.106 48.968 116.194 48.392ZM113.378 31.272C113.976 31.5707 114.434 32.0614 114.754 32.744C114.946 33.128 115.096 33.5654 115.202 34.056C115.309 34.5467 115.33 35.0907 115.266 35.688C115.224 36.2854 115.074 36.9467 114.818 37.672C114.584 38.376 114.2 39.144 113.666 39.976C113.304 40.5307 112.856 41.0214 112.322 41.448C111.789 41.8534 111.213 42.1627 110.594 42.376C109.997 42.5894 109.389 42.6854 108.77 42.664C108.152 42.6214 107.597 42.4507 107.106 42.152C106.637 41.832 106.242 41.352 105.922 40.712C105.624 40.072 105.485 39.24 105.506 38.216C105.506 37.128 105.688 36.136 106.05 35.24C106.434 34.344 106.914 33.5867 107.49 32.968C108.066 32.328 108.706 31.8374 109.41 31.496C110.114 31.1334 110.808 30.9307 111.49 30.888C112.173 30.8454 112.802 30.9734 113.378 31.272ZM68.1902 33.128C67.8916 32.4027 67.4116 31.88 66.7502 31.56C66.1102 31.2187 65.3849 31.048 64.5742 31.048C63.7849 31.048 62.9636 31.2187 62.1102 31.56C61.2569 31.9014 60.4782 32.3814 59.7742 33C59.0702 33.6187 58.4836 34.376 58.0142 35.272C57.5662 36.168 57.3422 37.1814 57.3422 38.312C57.3209 39.3574 57.4809 40.2 57.8222 40.84C58.1849 41.4587 58.6329 41.9067 59.1662 42.184C59.7209 42.4614 60.3289 42.5894 60.9902 42.568C61.6516 42.5254 62.3022 42.3654 62.9422 42.088C63.5822 41.7894 64.1582 41.4054 64.6702 40.936C65.2036 40.4454 65.5982 39.8907 65.8542 39.272L61.3102 40.136L61.8222 34.984L75.7742 33.224C75.9662 34.568 75.9022 35.9014 75.5822 37.224C75.2836 38.5254 74.8569 39.72 74.3022 40.808C73.7689 41.896 73.2036 42.8774 72.6062 43.752C72.0089 44.6054 71.5076 45.256 71.1022 45.704C70.7182 46.152 70.5049 46.3974 70.4622 46.44C69.6942 47.208 68.7556 47.88 67.6462 48.456C66.5582 49.032 65.3849 49.4694 64.1262 49.768C62.8676 50.0667 61.5662 50.1947 60.2222 50.152C58.8782 50.1307 57.5982 49.896 56.3822 49.448C55.1662 49.0214 54.0356 48.36 52.9902 47.464C51.9662 46.568 51.1342 45.4054 50.4942 43.976C49.7689 42.376 49.3529 40.7867 49.2462 39.208C49.1396 37.608 49.2676 36.072 49.6302 34.6C49.9929 33.1067 50.5689 31.6987 51.3582 30.376C52.1689 29.0534 53.1289 27.8694 54.2382 26.824C55.3689 25.7574 56.6276 24.8507 58.0142 24.104C59.4009 23.3574 60.8622 22.824 62.3982 22.504C62.4409 22.504 62.6649 22.4827 63.0702 22.44C63.4969 22.376 64.1049 22.3654 64.8942 22.408C65.6836 22.4507 66.5689 22.6107 67.5502 22.888C68.5316 23.144 69.5982 23.592 70.7502 24.232C71.9022 24.8507 73.0436 25.7147 74.1742 26.824L68.1902 33.128ZM75.916 23.816L85.26 22.92L84.14 34.664L88.876 34.312L89.26 23.144L98.38 22.696L95.788 47.4L88.364 48.296L88.78 41.256L85.42 41.736L85.1 49.096L77.132 49.256L75.916 23.816ZM154.642 30.408L158.482 29.96L159.314 22.344L142.034 23.816L141.81 31.688L146.034 31.272L145.554 49.544L154.642 48.424V30.408ZM67.0847 54.62L96.7445 99.7263L97.2413 59.78L114.881 57.68L112.421 106.22L96.6413 108.02L96.7293 100.948L78.5447 107.84L73.5047 99.44L60.9047 99.86L58.4447 108.86L40.6066 103.052L35.4094 108.92L20.8294 98.18L20.6494 108.44L6.12943 106.94L5.16943 60.08C12.7694 59.2 18.3294 58.6 21.8494 58.28L27.1294 57.74C30.8894 57.34 34.0094 57.62 36.4894 58.58C39.0094 59.54 40.9094 60.94 42.1894 62.78C43.5094 64.58 44.2494 66.7 44.4094 69.14C44.6094 71.54 44.2694 74.02 43.3894 76.58C42.5094 79.1 41.1094 81.56 39.1894 83.96C37.3094 86.36 34.9694 88.44 32.1694 90.2L43.3826 97.5502L67.0847 54.62ZM71.1647 89.06L64.0247 90.32L68.1647 80.9L71.1647 89.06ZM19.3294 83.12L19.9294 73.52C21.8494 72.76 23.3694 72.38 24.4894 72.38C25.6094 72.34 26.4294 72.52 26.9494 72.92C27.5094 73.28 27.8494 73.74 27.9694 74.3C28.1294 74.86 28.1894 75.34 28.1494 75.74C28.1094 76.14 28.0894 76.36 28.0894 76.4C28.0094 76.76 27.7694 77.26 27.3694 77.9C27.0094 78.5 26.4694 79.14 25.7494 79.82C25.0294 80.5 24.1294 81.14 23.0494 81.74C22.0094 82.34 20.7694 82.8 19.3294 83.12ZM135.167 57.38C131.727 57.78 126.387 58.68 119.147 60.08L120.107 106.94C124.227 107.46 127.667 107.74 130.427 107.78C133.187 107.82 135.387 107.74 137.027 107.54C138.707 107.38 139.887 107.2 140.567 107L141.647 106.64C145.167 105 148.207 102.98 150.767 100.58C153.367 98.14 155.487 95.52 157.127 92.72C158.807 89.88 160.007 86.96 160.727 83.96C161.487 80.92 161.807 77.98 161.687 75.14C161.567 72.3 161.027 69.64 160.067 67.16C159.107 64.68 157.727 62.58 155.927 60.86C154.127 59.14 151.927 57.9 149.327 57.14C146.727 56.34 143.747 56.2 140.387 56.72L135.167 57.38ZM140.147 90.98C138.747 92.02 136.907 92.8 134.627 93.32L135.227 76.1C137.027 74.66 138.547 73.88 139.787 73.76C141.027 73.64 142.007 73.9 142.727 74.54C143.447 75.14 144.007 75.92 144.407 76.88C144.807 77.84 145.067 78.68 145.187 79.4C145.307 80.08 145.367 80.46 145.367 80.54V81.62C145.367 82.26 145.207 83.14 144.887 84.26C144.607 85.38 144.107 86.52 143.387 87.68C142.667 88.8 141.587 89.9 140.147 90.98Z" fill="black"/>
<path fill-rule="evenodd" clip-rule="evenodd" d="M116.805 48.0553C117.621 47.5769 118.334 47.0398 118.942 46.4441C118.965 46.4215 118.988 46.3988 119.011 46.376C120.568 44.776 121.741 43.1013 122.531 41.352C122.603 41.1884 122.674 41.025 122.741 40.8618C122.836 40.6332 122.926 40.4051 123.01 40.1772C123.34 39.2851 123.591 38.3983 123.763 37.5171C123.767 37.4952 123.771 37.4733 123.776 37.4514C123.861 37.0009 123.926 36.5517 123.971 36.104C124.007 35.778 124.033 35.4542 124.051 35.1327C124.054 35.0676 124.057 35.0025 124.06 34.9375C124.115 35.0278 124.171 35.1165 124.228 35.2037C124.467 35.5653 124.733 35.9002 125.025 36.2082C125.03 36.2131 125.035 36.2179 125.039 36.2228C125.042 36.2258 125.045 36.2289 125.048 36.232C125.393 36.5768 125.757 36.8878 126.14 37.1648C126.326 37.2992 126.517 37.4256 126.712 37.544C126.912 37.6613 127.111 37.773 127.309 37.8792C127.352 37.9024 127.395 37.9253 127.439 37.948C127.77 38.1222 128.099 38.2808 128.424 38.4235C128.462 38.4399 128.499 38.4561 128.536 38.472C128.578 38.4899 128.619 38.5075 128.661 38.5249C128.786 38.5775 128.909 38.6277 129.031 38.6756C129.248 38.7615 129.46 38.8397 129.666 38.9101C129.849 38.9729 130.027 39.0295 130.2 39.08C130.248 39.0934 130.295 39.1065 130.341 39.1193C130.356 39.1237 130.372 39.1281 130.388 39.1325C130.768 39.2384 131.088 39.3265 131.348 39.3966C131.365 39.4012 131.382 39.4057 131.398 39.4101C131.426 39.4176 131.453 39.4249 131.48 39.432C131.971 39.624 132.387 39.816 132.728 40.008C133.091 40.2 133.283 40.4773 133.304 40.84C133.325 41.3947 133.059 41.7893 132.504 42.024C132.209 42.1539 131.875 42.2543 131.501 42.3254C131.473 42.3307 131.444 42.336 131.416 42.341C131.185 42.3815 130.94 42.4111 130.681 42.4299C130.628 42.4337 130.574 42.4371 130.52 42.44C130.447 42.4429 130.374 42.4444 130.301 42.4446C129.966 42.4452 129.626 42.4165 129.282 42.3587C129.27 42.3566 129.258 42.3546 129.246 42.3524C129.165 42.3384 129.084 42.3227 129.002 42.3054C128.964 42.2973 128.926 42.2888 128.888 42.28C128.765 42.2516 128.643 42.2221 128.521 42.1915C128.236 42.1195 127.956 42.0417 127.682 41.9579C127.55 41.9173 127.418 41.8754 127.288 41.832C127.232 41.8133 127.176 41.7944 127.12 41.7753C126.671 41.6213 126.247 41.4589 125.848 41.288C125.445 41.0961 125.094 40.9386 124.794 40.8158C124.776 40.8082 124.757 40.8007 124.739 40.7934C124.725 40.7875 124.71 40.7817 124.696 40.776L122.264 47.624C122.799 47.8736 123.364 48.1158 123.958 48.3505C124.075 48.3966 124.193 48.4425 124.312 48.488C125.037 48.744 125.784 48.968 126.552 49.16C126.592 49.1701 126.633 49.18 126.673 49.1897C126.778 49.2152 126.883 49.2396 126.988 49.263C127.614 49.4024 128.248 49.5068 128.888 49.576C129.677 49.6827 130.445 49.7254 131.192 49.704C132.813 49.64 134.328 49.3947 135.736 48.968C137.144 48.52 138.349 47.9013 139.352 47.112C139.837 46.7278 140.27 46.3053 140.65 45.8445C141.071 45.3329 141.428 44.7741 141.72 44.168C142.275 42.9947 142.52 41.6507 142.456 40.136C142.416 39.1446 142.229 38.2821 141.895 37.5487C141.869 37.493 141.843 37.4382 141.816 37.384C141.714 37.1615 141.603 36.9482 141.484 36.7444C141.311 36.4481 141.12 36.1716 140.911 35.9148C140.753 35.7214 140.586 35.5391 140.408 35.368C139.853 34.8133 139.224 34.344 138.52 33.96C138.491 33.9435 138.461 33.9271 138.432 33.9108C137.871 33.5975 137.316 33.3132 136.769 33.0578C136.681 33.0165 136.592 32.9759 136.504 32.936C136.467 32.9202 136.429 32.9046 136.392 32.8893C136.368 32.8798 136.345 32.8704 136.322 32.8611C136.036 32.747 135.744 32.6468 135.446 32.5606C135.226 32.4967 135.003 32.4405 134.776 32.392L134.232 32.264C134.079 32.2257 133.897 32.183 133.688 32.1361C133.45 32.0827 133.176 32.0238 132.866 31.9593C132.841 31.9542 132.817 31.9491 132.792 31.944C132.788 31.9434 132.783 31.9428 132.779 31.9421C132.659 31.9254 132.514 31.9086 132.341 31.8918C132.301 31.8879 132.259 31.8839 132.216 31.88L131.512 31.752C131.299 31.688 131.107 31.6133 130.936 31.528C130.787 31.4213 130.712 31.2827 130.712 31.112C130.733 30.728 130.904 30.4293 131.224 30.216C131.378 30.1132 131.545 30.0252 131.724 29.9521C131.765 29.9355 131.806 29.9197 131.848 29.9046C131.926 29.8765 132.007 29.8511 132.089 29.8283C132.114 29.8215 132.139 29.8149 132.164 29.8086C132.223 29.7937 132.283 29.7802 132.344 29.768C132.366 29.7628 132.388 29.7578 132.409 29.7528C132.476 29.7377 132.543 29.7237 132.61 29.7109C132.781 29.6783 132.951 29.6535 133.122 29.6364C133.172 29.6314 133.222 29.627 133.272 29.6233C133.411 29.6131 133.549 29.608 133.688 29.608C134.157 29.608 134.531 29.6293 134.808 29.672C134.813 29.6727 134.818 29.6734 134.823 29.6741C134.829 29.6749 134.835 29.6757 134.841 29.6765C134.853 29.6782 134.865 29.6799 134.878 29.6817C135.036 29.7039 135.19 29.7279 135.341 29.7538C135.359 29.7568 135.377 29.7599 135.395 29.763C135.433 29.7698 135.472 29.7767 135.51 29.7837C135.993 29.8723 136.441 29.9802 136.853 30.1075C136.997 30.152 137.137 30.1988 137.272 30.248C137.378 30.2833 137.485 30.32 137.595 30.3582C137.616 30.3656 137.637 30.373 137.658 30.3805C138.258 30.5919 138.908 30.8464 139.608 31.144L141.496 23.752C140.344 23.2827 139.107 22.952 137.784 22.76C137.645 22.7376 137.506 22.7167 137.367 22.6974C137.266 22.6834 137.166 22.6702 137.065 22.6579C136.919 22.6399 136.773 22.6237 136.627 22.6091C135.685 22.515 134.737 22.4906 133.784 22.536C132.333 22.6 130.968 22.856 129.688 23.304C128.64 23.6534 127.699 24.1386 126.866 24.7597C126.681 24.8971 126.502 25.0413 126.328 25.192C125.799 25.6384 125.332 26.1397 124.927 26.696C124.595 27.1501 124.305 27.6407 124.056 28.168C123.794 28.7115 123.599 29.293 123.47 29.9124C123.243 29.052 122.961 28.2451 122.626 27.4919C122.623 27.4866 122.621 27.4813 122.619 27.476C122.51 27.2317 122.395 26.993 122.275 26.76C121.912 26.0773 121.368 25.4053 120.643 24.744C120.557 24.6607 120.468 24.5789 120.378 24.4988C120.112 24.2641 119.826 24.043 119.519 23.8356C119.073 23.5335 118.584 23.2603 118.051 23.016C117.027 22.5467 115.875 22.248 114.595 22.12C113.336 21.9707 111.981 22.0773 110.531 22.44C108.995 22.8453 107.544 23.432 106.179 24.2C105.028 24.8575 103.971 25.6244 103.008 26.5007C102.846 26.6481 102.687 26.7985 102.531 26.952C101.443 27.9973 100.515 29.1707 99.7465 30.472C98.9785 31.7733 98.4239 33.16 98.0825 34.632C97.7412 36.0827 97.6452 37.5973 97.7945 39.176C97.9225 40.7547 98.3492 42.344 99.0745 43.944C99.5647 45.0387 100.167 45.9769 100.883 46.7587C101.101 46.9978 101.331 47.2222 101.571 47.432C102.595 48.328 103.715 48.9893 104.931 49.416C106.168 49.864 107.448 50.0987 108.771 50.12C110.115 50.1414 111.416 50.0027 112.675 49.704C113.933 49.4053 115.107 48.968 116.195 48.392C116.404 48.2832 116.608 48.171 116.805 48.0553ZM103.05 54.0531C101.698 53.5539 100.443 52.8668 99.2926 52.0133L89.9288 53.1434L89.8915 54.0008L72.8863 54.3423L91.948 83.3313L92.2963 55.3334L103.05 54.0531ZM96.7445 99.7262L67.0848 54.62L43.3826 97.5502L32.1695 90.2C33.717 89.2272 35.1241 88.1567 36.3906 86.9885C37.4156 86.043 38.3486 85.0335 39.1895 83.96C41.1095 81.56 42.5095 79.1 43.3895 76.58C44.2695 74.02 44.6095 71.54 44.4095 69.14C44.2495 66.7 43.5095 64.58 42.1895 62.78C40.9095 60.94 39.0095 59.54 36.4895 58.58C34.0095 57.62 30.8895 57.34 27.1295 57.74L21.8495 58.28C18.3295 58.6 12.7695 59.2 5.16948 60.08L6.12948 106.94L20.6495 108.44L20.8295 98.18L35.4095 108.92L40.6066 103.052L58.4448 108.86L60.9048 99.86L73.5048 99.44L78.5448 107.84L96.7293 100.948L96.6413 108.02L112.421 106.22L114.881 57.68L97.2413 59.78L96.7445 99.7262ZM119.772 59.9594C119.565 59.9992 119.357 60.0394 119.147 60.08L120.107 106.94C124.227 107.46 127.667 107.74 130.427 107.78C133.187 107.82 135.387 107.74 137.027 107.54C138.707 107.38 139.887 107.2 140.567 107L141.647 106.64C145.167 105 148.207 102.98 150.767 100.58C153.367 98.14 155.487 95.52 157.127 92.72C158.807 89.88 160.007 86.96 160.727 83.96C161.487 80.92 161.807 77.98 161.687 75.14C161.567 72.3 161.027 69.64 160.067 67.16C159.107 64.68 157.727 62.58 155.927 60.86C154.127 59.14 151.927 57.9 149.327 57.14C146.727 56.34 143.747 56.2 140.387 56.72L135.167 57.38C131.827 57.7684 126.695 58.6282 119.772 59.9594ZM153.948 53.5475C155.952 54.482 157.775 55.7099 159.381 57.245C161.748 59.5064 163.523 62.2379 164.73 65.355C165.9 68.3786 166.541 71.5807 166.683 74.9289C166.824 78.2865 166.444 81.6989 165.584 85.1488C164.74 88.6549 163.345 92.0264 161.436 95.2561C159.532 98.5051 157.101 101.492 154.189 104.226L154.187 104.228C151.201 107.026 147.708 109.332 143.759 111.172L143.499 111.293L142.063 111.772L141.978 111.797C140.807 112.141 139.225 112.352 137.565 112.511C135.612 112.744 133.18 112.82 130.355 112.779C127.342 112.736 123.703 112.434 119.481 111.901L115.196 111.36L115.188 110.937L101.586 112.488L101.541 116.121L99.322 112.747L91.5712 113.631L91.6384 108.225L76.408 113.997L70.731 104.535L64.7559 104.734L61.8848 115.238L42.176 108.821L36.1229 115.656L25.6589 107.948L25.5532 113.973L1.22102 111.46L0.0773926 55.6362L4.59437 55.1132C12.1796 54.2349 17.7819 53.6297 21.3685 53.3031L26.6111 52.7669C30.8407 52.3181 34.8188 52.575 38.2814 53.9121C41.5222 55.1488 44.2996 57.083 46.2579 59.8731C48.162 62.49 49.1749 65.5106 49.3958 68.7687C49.6522 71.9254 49.1902 75.086 48.1179 78.2054L48.114 78.2169L48.1099 78.2284C47.9538 78.6754 47.7853 79.1188 47.6045 79.5586L61.0769 55.157C60.753 55.1626 60.4283 55.1604 60.1027 55.1507C58.2437 55.117 56.4302 54.7895 54.6897 54.1529C52.864 53.5069 51.2102 52.5236 49.7363 51.2603L49.717 51.2437L49.6978 51.2269C48.058 49.7921 46.8257 48.0143 45.9358 46.0303C44.9931 43.9481 44.4086 41.7795 44.2577 39.5451L44.2574 39.5406C44.1186 37.4596 44.2823 35.4089 44.7736 33.4116C45.2548 31.4338 46.0209 29.5628 47.0647 27.8137L47.0798 27.7884L47.0953 27.7632C48.1326 26.0707 49.3708 24.5409 50.8072 23.187M49.6303 34.6C49.2676 36.072 49.1396 37.608 49.2463 39.208C49.3529 40.7867 49.7689 42.376 50.4943 43.976C51.1343 45.4053 51.9663 46.568 52.9903 47.464C54.0356 48.36 55.1663 49.0214 56.3823 49.448C57.5983 49.896 58.8783 50.1307 60.2223 50.152C61.536 50.1937 62.809 50.0724 64.0412 49.7879C64.0696 49.7814 64.0979 49.7747 64.1263 49.768C65.3849 49.4693 66.5583 49.032 67.6463 48.456C67.9945 48.2752 68.3259 48.085 68.6404 47.8852C69.3281 47.4487 69.9353 46.967 70.4623 46.44C70.5049 46.3973 70.7183 46.152 71.1023 45.704C71.3386 45.4428 71.6076 45.1127 71.9092 44.7137C72.1249 44.4284 72.3572 44.1078 72.6063 43.752C73.2036 42.8773 73.7689 41.896 74.3023 40.808C74.6968 40.0341 75.0266 39.2063 75.2916 38.3245C75.3991 37.9666 75.496 37.5997 75.5823 37.224C75.8741 36.018 75.953 34.8031 75.8191 33.5794C75.8062 33.461 75.7912 33.3426 75.7743 33.224L61.8223 34.984L61.3103 40.136L65.8543 39.272C65.8182 39.3592 65.7794 39.4451 65.7378 39.5297C65.6822 39.643 65.6216 39.754 65.5561 39.8627C65.4199 40.0886 65.2625 40.3047 65.0837 40.511C64.9567 40.6577 64.8189 40.7993 64.6703 40.936C64.1583 41.4053 63.5823 41.7893 62.9423 42.088C62.5499 42.258 62.1536 42.3839 61.7533 42.4658C61.5005 42.5174 61.2462 42.5515 60.9903 42.568C60.3289 42.5893 59.7209 42.4613 59.1663 42.184C58.6329 41.9067 58.1849 41.4587 57.8223 40.84C57.6549 40.5262 57.5312 40.1637 57.451 39.7525C57.3676 39.325 57.3314 38.8448 57.3423 38.312C57.3423 37.1813 57.5663 36.168 58.0143 35.272C58.1286 35.0537 58.25 34.8436 58.3783 34.6418C58.7765 34.0152 59.2418 33.4679 59.7743 33C60.2865 32.5499 60.8382 32.1732 61.4294 31.8699C61.6508 31.7563 61.8778 31.653 62.1103 31.56C62.9636 31.2187 63.7849 31.048 64.5743 31.048C65.2146 31.048 65.8017 31.1545 66.3356 31.3675C66.4776 31.4241 66.6158 31.4883 66.7503 31.56C67.4116 31.88 67.8916 32.4027 68.1903 33.128L74.1743 26.824C74.0147 26.6674 73.8549 26.5157 73.6948 26.3689C72.7818 25.5313 71.8619 24.8528 70.9351 24.3334C70.8735 24.2989 70.8119 24.2651 70.7503 24.232C70.5232 24.1058 70.2993 23.9871 70.0788 23.8759C69.181 23.4228 68.3381 23.0935 67.5503 22.888C66.5689 22.6107 65.6836 22.4507 64.8943 22.408C64.1049 22.3653 63.4969 22.376 63.0703 22.44C62.6649 22.4827 62.4409 22.504 62.3983 22.504C60.8623 22.824 59.4009 23.3573 58.0143 24.104C56.6276 24.8507 55.3689 25.7573 54.2383 26.824C53.1289 27.8693 52.1689 29.0533 51.3583 30.376C50.5689 31.6987 49.9929 33.1067 49.6303 34.6ZM50.8093 23.1851C52.2621 21.8148 53.8776 20.6527 55.6438 19.7017C57.453 18.7275 59.3691 18.0277 61.3785 17.6091L61.883 17.504H62.1914C62.2606 17.4972 62.3504 17.488 62.4628 17.4763C63.3553 17.3569 64.3093 17.3691 65.1642 17.4153C66.3951 17.4818 67.6384 17.7199 68.8636 18.0634C69.8774 18.3318 70.8787 18.7149 71.8616 19.1819L90.8125 17.3646L90.7457 18.065L103.961 17.4158L103.706 19.8543L103.713 19.8504L103.727 19.8421C105.468 18.8631 107.314 18.1176 109.255 17.6055L109.286 17.5972L109.318 17.5893C111.238 17.1093 113.193 16.9254 115.136 17.1493C116.733 17.3128 118.285 17.6815 119.751 18.3019L119.758 18.1306L119.9 18.366C119.978 18.4002 120.056 18.4351 120.134 18.4707C121.455 19.0763 122.688 19.8515 123.774 20.8285C125.072 19.8429 126.516 19.095 128.071 18.5726C129.83 17.9608 131.666 17.6254 133.555 17.5413C135.227 17.4622 136.891 17.5541 138.541 17.8176C139.881 18.0143 141.181 18.3269 142.435 18.7638L164.945 16.8463L163.02 34.4645L159.642 34.8586V52.8456L153.948 53.5475M154.642 30.408L158.482 29.96L159.314 22.344L142.034 23.816L141.81 31.688L146.034 31.272L145.554 49.544L154.642 48.424V30.408ZM124.951 53.9109C123.425 54.183 121.785 54.4859 120.033 54.819L120.167 52.1632C120.92 52.5138 121.707 52.845 122.526 53.1583L122.587 53.1814L122.648 53.203C123.401 53.4689 124.169 53.7046 124.951 53.9109ZM119.915 52.0454L119.885 52.0317C119.874 52.0388 119.863 52.0459 119.852 52.0529L119.915 52.0454ZM89.26 23.144L88.876 34.312L84.14 34.664L85.26 22.92L75.916 23.816L77.132 49.256L85.1 49.096L85.42 41.736L88.78 41.256L88.364 48.296L95.788 47.4L98.38 22.696L89.26 23.144ZM72.2328 51.4842L72.3289 53.4946L71.3878 52.0634C71.6758 51.8786 71.9577 51.6857 72.2328 51.4842ZM44.446 85.2794C44.0244 85.8819 43.5787 86.4765 43.1099 87.0633C42.3567 88.0232 41.5461 88.9354 40.6802 89.8003L41.6125 90.4115L44.446 85.2794ZM24.4813 80.8476C24.9526 80.5159 25.3753 80.1733 25.7495 79.82C26.4695 79.14 27.0095 78.5 27.3695 77.9C27.7695 77.26 28.0095 76.76 28.0895 76.4C28.0895 76.36 28.1095 76.14 28.1495 75.74C28.1895 75.34 28.1295 74.86 27.9695 74.3C27.8495 73.74 27.5095 73.28 26.9495 72.92C26.4295 72.52 25.6095 72.34 24.4895 72.38C23.3695 72.38 21.8495 72.76 19.9295 73.52L19.3295 83.12C20.7695 82.8 22.0095 82.34 23.0495 81.74C23.5683 81.4518 24.0455 81.1543 24.4813 80.8476ZM110.595 42.376C111.213 42.1627 111.789 41.8533 112.323 41.448C112.856 41.0213 113.304 40.5307 113.667 39.976C114.2 39.144 114.584 38.376 114.819 37.672C115.075 36.9467 115.224 36.2853 115.267 35.688C115.331 35.0907 115.309 34.5467 115.203 34.056C115.096 33.5653 114.947 33.128 114.755 32.744C114.435 32.0613 113.976 31.5707 113.379 31.272C112.803 30.9733 112.173 30.8453 111.491 30.888C110.808 30.9307 110.115 31.1333 109.411 31.496C108.707 31.8373 108.067 32.328 107.491 32.968C106.915 33.5867 106.435 34.344 106.051 35.24C105.688 36.136 105.507 37.128 105.507 38.216C105.485 39.24 105.624 40.072 105.923 40.712C106.243 41.352 106.637 41.832 107.107 42.152C107.597 42.4507 108.152 42.6213 108.771 42.664C109.389 42.6853 109.997 42.5893 110.595 42.376ZM142.727 74.54C142.007 73.9 141.027 73.64 139.787 73.76C138.547 73.88 137.027 74.66 135.227 76.1L134.627 93.32C136.672 92.8535 138.363 92.1778 139.701 91.2929C139.854 91.1914 140.003 91.0871 140.147 90.98C141.587 89.9 142.667 88.8 143.387 87.68C144.107 86.52 144.607 85.38 144.887 84.26C145.207 83.14 145.367 82.26 145.367 81.62V80.54C145.367 80.46 145.307 80.08 145.187 79.4C145.067 78.68 144.807 77.84 144.407 76.88C144.007 75.92 143.447 75.14 142.727 74.54ZM139.981 83.2496C140.001 83.1802 140.02 83.1128 140.036 83.0473L140.056 82.9665L140.079 82.8864C140.207 82.4399 140.284 82.1044 140.328 81.8655C140.358 81.696 140.366 81.6109 140.367 81.5954V80.8744C140.343 80.7304 140.309 80.531 140.263 80.2689L140.259 80.2454L140.255 80.222C140.235 80.1027 140.192 79.9138 140.106 79.6476L139.981 83.2496ZM71.1648 89.06L68.1648 80.9L64.0248 90.32L71.1648 89.06Z" fill="white"/>
</svg>
