<svg width="33" height="26" viewBox="0 0 33 26" fill="none" xmlns="http://www.w3.org/2000/svg">
<path fill-rule="evenodd" clip-rule="evenodd" d="M7.3575 25.4525C10.9057 25.4525 13.7821 19.8248 13.7821 12.8827C13.7821 5.94056 10.9057 0.312851 7.3575 0.312851C3.80931 0.312851 0.932922 5.94056 0.932922 12.8827C0.932922 19.8248 3.80931 25.4525 7.3575 25.4525ZM25.7932 25.4525C29.3414 25.4525 32.2178 19.8248 32.2178 12.8827C32.2178 5.94056 29.3414 0.312851 25.7932 0.312851C22.245 0.312851 19.3687 5.94056 19.3687 12.8827C19.3687 19.8248 22.245 25.4525 25.7932 25.4525Z" fill="white"/>
<path fill-rule="evenodd" clip-rule="evenodd" d="M7.3575 25.4525C10.9057 25.4525 13.7821 19.8248 13.7821 12.8827C13.7821 5.94056 10.9057 0.312851 7.3575 0.312851C3.80931 0.312851 0.932922 5.94056 0.932922 12.8827C0.932922 19.8248 3.80931 25.4525 7.3575 25.4525ZM25.7932 25.4525C29.3414 25.4525 32.2178 19.8248 32.2178 12.8827C32.2178 5.94056 29.3414 0.312851 25.7932 0.312851C22.245 0.312851 19.3687 5.94056 19.3687 12.8827C19.3687 19.8248 22.245 25.4525 25.7932 25.4525Z" fill="black"/>
</svg>
