<svg width="269" height="163" viewBox="0 0 269 163" fill="none" xmlns="http://www.w3.org/2000/svg">
<path fill-rule="evenodd" clip-rule="evenodd" d="M239.62 133.033C239.533 132.637 239.429 132.244 239.306 131.854C238.785 130.199 237.937 128.602 236.763 127.065C235.931 125.904 234.931 124.812 233.761 123.786C233.016 123.134 232.203 122.508 231.321 121.91C230.562 121.343 229.765 120.814 228.929 120.324C228.82 120.26 228.711 120.196 228.601 120.134C227.13 119.298 225.542 118.579 223.838 117.976C223.145 117.753 222.454 117.555 221.766 117.381L221.748 117.377C219.653 116.85 217.583 116.552 215.539 116.484C215.077 116.453 214.62 116.434 214.169 116.427C214.105 116.426 214.041 116.425 213.978 116.425C211.841 116.406 209.822 116.652 207.921 117.162C207.731 117.215 207.544 117.271 207.359 117.328C205.33 117.964 203.567 118.903 202.071 120.147C200.438 121.503 199.304 123.131 198.67 125.03C197.984 126.824 197.825 128.698 198.191 130.653C198.213 130.768 198.236 130.883 198.261 130.998C198.806 133.078 199.758 135.068 201.118 136.967C202.57 138.866 204.384 140.584 206.56 142.121C208.828 143.749 211.367 145.061 214.179 146.055C216.99 147.05 219.757 147.593 222.478 147.683C225.199 147.773 227.693 147.457 229.96 146.733C232.318 146.1 234.314 145.106 235.946 143.749C237.579 142.483 238.713 140.901 239.347 139.002C239.982 137.103 240.073 135.113 239.62 133.033ZM268.967 0L253.79 127.929C253.972 128.555 254.134 129.191 254.275 129.838C255.267 134.385 255.12 139.132 253.574 143.758C251.996 148.477 249.137 152.44 245.342 155.443C241.955 158.208 238.126 160.028 234.184 161.129C230.172 162.363 226.057 162.81 221.979 162.675C217.583 162.529 213.299 161.655 209.176 160.196C205.14 158.768 201.341 156.832 197.861 154.342C194.602 152.034 191.662 149.296 189.2 146.074L189.059 145.891L188.925 145.702C186.589 142.442 184.797 138.797 183.75 134.795L183.672 134.496L183.606 134.194C182.583 129.504 182.829 124.641 184.546 119.974C185.652 116.796 187.33 113.981 189.447 111.564L191.035 90.8919C190.1 96.8496 188.304 102.698 185.757 108.412L185.743 108.443L185.729 108.473C182.438 115.767 177.694 122.417 171.806 128.466L171.735 128.539L171.663 128.611C168.042 132.232 163.829 135.191 159.221 137.59C154.657 139.999 149.807 141.792 144.72 142.999C139.528 144.231 134.215 144.788 128.819 144.702L128.815 144.702C123.055 144.609 117.433 143.585 112.019 141.633C106.343 139.631 101.218 136.564 96.679 132.593C95.1646 131.268 93.7623 129.847 92.467 128.342C92.3011 128.522 92.1499 128.681 92.0203 128.811C88.399 132.432 84.1865 135.391 79.5795 137.789C75.0155 140.199 70.1647 141.992 65.0768 143.199C59.8412 144.441 54.4869 144.963 49.0546 144.8C43.3098 144.696 37.7095 143.685 32.3361 141.719C26.7067 139.728 21.6041 136.695 17.0517 132.793L16.9936 132.743L16.936 132.693C11.8885 128.276 8.08766 122.797 5.33777 116.666C2.41947 110.22 0.613989 103.516 0.147739 96.6154L0.146833 96.6019C-0.282668 90.1593 0.22438 83.8158 1.74314 77.6402C3.23209 71.5196 5.60268 65.7301 8.83293 60.3173L8.87831 60.2412L8.9246 60.1657C12.138 54.9228 15.9725 50.1855 20.4203 45.9933L20.4235 45.9903L20.4266 45.9873C24.9264 41.7432 29.9302 38.1435 35.4021 35.1971C41.0031 32.1812 46.934 30.0153 53.1543 28.7194L54.6677 28.4042H55.5977C55.8216 28.3821 56.1164 28.3521 56.4892 28.3132C59.2222 27.9467 62.1617 27.9822 64.8233 28.126C68.615 28.331 72.4555 29.0653 76.2532 30.1302C80.7569 31.3222 85.1922 33.2514 89.5079 35.6417C93.7774 37.9464 97.7707 40.8831 101.512 44.2973C105.191 41.0203 109.199 38.1468 113.515 35.6805L113.559 35.6554L113.603 35.6305C118.995 32.5973 124.715 30.2877 130.729 28.7007L130.824 28.6757L130.919 28.652C136.86 27.1666 142.895 26.6016 148.882 27.2921C154.251 27.8416 159.446 29.1405 164.306 31.3682C168.758 33.4086 172.875 36.0673 176.428 39.4707C179.573 42.3644 182.415 45.7357 184.503 49.6668L184.544 49.7426L184.583 49.8189C187.369 55.2103 189.316 61.077 190.551 67.2893C191.427 71.4366 191.863 75.6426 191.88 79.8891L197.796 2.87688L268.967 0ZM222.478 108.345C221.573 108.272 220.678 108.229 219.793 108.215C218.535 108.195 217.298 108.235 216.081 108.334C216.043 108.337 216.004 108.34 215.966 108.344C215.914 108.348 215.862 108.353 215.809 108.357C214.799 108.448 213.802 108.579 212.818 108.752C210.448 109.11 208.22 109.695 206.134 110.507L206.07 110.532C205.544 110.738 205.027 110.959 204.52 111.194L211.73 17.3259L252 15.6981L240.3 114.314C239.582 113.819 238.831 113.353 238.047 112.916C237.895 112.832 237.742 112.748 237.588 112.666C235.918 111.776 234.101 111.014 232.137 110.38C230.501 109.787 228.798 109.315 227.026 108.965C226.935 108.947 226.844 108.93 226.753 108.912C226.456 108.856 226.156 108.803 225.854 108.753C224.754 108.572 223.629 108.436 222.478 108.345ZM52.8136 98.5042L54.4136 82.4042L96.8586 77.0499C97.1276 76.2469 97.4186 75.4526 97.7314 74.6672C97.9592 74.0952 98.1986 73.5279 98.4496 72.9653C99.1592 71.3745 99.9615 69.8208 100.857 68.3042C101.354 67.4612 101.873 66.6354 102.413 65.8269C103.602 64.0485 104.895 62.3532 106.291 60.7411C107.323 59.5501 108.411 58.4044 109.557 57.3042C110.44 56.4381 111.35 55.6036 112.288 54.8005C114.958 52.5127 117.848 50.4806 120.957 48.7042C125.223 46.3042 129.757 44.4708 134.557 43.2042C139.09 42.0708 143.323 41.7375 147.257 42.2042C151.257 42.6042 154.857 43.5375 158.057 45.0042C161.257 46.4708 163.957 48.2708 166.157 50.4042C168.423 52.4708 170.123 54.5708 171.257 56.7042C173.323 60.7042 174.857 65.2375 175.857 70.3042C176.923 75.3042 177.157 80.5042 176.557 85.9042C176.023 91.3042 174.523 96.7708 172.057 102.304C169.59 107.771 165.923 113.004 161.057 118.004C158.657 120.404 155.723 122.504 152.257 124.304C148.857 126.104 145.19 127.471 141.257 128.404C137.323 129.337 133.257 129.771 129.057 129.704C124.923 129.637 120.923 128.904 117.057 127.504C113.257 126.171 109.757 124.104 106.557 121.304C104.843 119.805 103.302 118.067 101.932 116.09C100.744 114.374 99.6857 112.479 98.7566 110.404C97.4523 107.527 96.457 104.661 95.7708 101.806L95.7582 101.753C95.4006 100.257 95.1278 98.7641 94.9399 97.2739C94.4713 98.4174 93.9625 99.5275 93.4136 100.604C91.7469 104.004 89.9803 107.071 88.1136 109.804C86.6738 111.861 85.4124 113.541 84.3296 114.844C84.0086 115.231 83.7033 115.584 83.4136 115.904C82.2136 117.304 81.547 118.071 81.4136 118.204C79.0136 120.604 76.0803 122.704 72.6136 124.504C69.2136 126.304 65.547 127.671 61.6136 128.604C57.6803 129.538 53.6136 129.938 49.4136 129.804C45.2136 129.737 41.2136 129.004 37.4136 127.604C33.6136 126.271 30.0803 124.204 26.8136 121.404C23.6136 118.604 21.0136 114.971 19.0136 110.504C16.747 105.504 15.4469 100.537 15.1136 95.6042C14.7803 90.6042 15.1803 85.8042 16.3136 81.2042C17.4469 76.5375 19.2469 72.1375 21.7136 68.0042C24.2469 63.8708 27.2469 60.1708 30.7136 56.9042C34.2469 53.5708 38.1803 50.7375 42.5136 48.4042C46.847 46.0708 51.4136 44.4042 56.2136 43.4042C56.347 43.4042 57.047 43.3375 58.3136 43.2042C59.647 43.0042 61.547 42.9708 64.0136 43.1042C66.4803 43.2375 69.247 43.7375 72.3136 44.6042C74.9446 45.2905 77.7718 46.4185 80.7953 47.988C81.2961 48.248 81.8021 48.52 82.3136 48.8042C85.3697 50.4454 88.4018 52.6391 91.4098 55.3854L91.5153 55.4819C92.0154 55.9407 92.5148 56.4148 93.0136 56.9042L74.3136 76.6042C73.3803 74.3375 71.8803 72.7042 69.8136 71.7042C69.3934 71.4801 68.9615 71.2795 68.5177 71.1025C66.8494 70.4369 65.0147 70.1042 63.0136 70.1042C60.547 70.1042 57.9803 70.6375 55.3136 71.7042C54.5871 71.9948 53.8779 72.3176 53.186 72.6725C51.3384 73.6203 49.6142 74.7976 48.0136 76.2042C46.3497 77.6664 44.8955 79.3766 43.651 81.3346C43.2501 81.9654 42.871 82.6219 42.5136 83.3042C41.1136 86.1042 40.4136 89.2708 40.4136 92.8042C40.3796 94.4692 40.4929 95.9697 40.7533 97.3056C41.0039 98.5907 41.3906 99.7236 41.9136 100.704C43.047 102.637 44.4469 104.037 46.1136 104.904C47.847 105.771 49.747 106.171 51.8136 106.104C52.6134 106.053 53.4082 105.946 54.1979 105.785C55.449 105.529 56.6876 105.135 57.9136 104.604C59.9136 103.671 61.7136 102.471 63.3136 101.004C63.778 100.577 64.2086 100.134 64.6057 99.676C65.3444 98.8236 65.9667 97.9174 66.4725 96.9575C66.6477 96.625 66.8089 96.2861 66.9562 95.9408C66.9756 95.8954 66.9947 95.8498 67.0136 95.8042L52.8136 98.5042ZM120.157 100.304C119.223 98.3042 118.79 95.7042 118.857 92.5042C118.857 89.1042 119.423 86.0042 120.557 83.2042C121.757 80.4042 123.257 78.0375 125.057 76.1042C126.857 74.1042 128.857 72.5708 131.057 71.5042C133.257 70.3708 135.423 69.7375 137.557 69.6042C139.69 69.4708 141.657 69.8708 143.457 70.8042C145.323 71.7375 146.757 73.2708 147.757 75.4042C148.357 76.6042 148.823 77.9708 149.157 79.5042C149.49 81.0375 149.557 82.7375 149.357 84.6042C149.223 86.4708 148.757 88.5375 147.957 90.8042C147.223 93.0042 146.023 95.4042 144.357 98.0042C143.223 99.7375 141.823 101.271 140.157 102.604C138.49 103.871 136.69 104.837 134.757 105.504C132.89 106.171 130.99 106.471 129.057 106.404C127.123 106.271 125.39 105.737 123.857 104.804C122.39 103.804 121.157 102.304 120.157 100.304Z" fill="white"/>
<path fill-rule="evenodd" clip-rule="evenodd" d="M206.56 142.121C208.828 143.749 211.367 145.061 214.179 146.055C216.99 147.05 219.757 147.593 222.478 147.683C225.199 147.773 227.693 147.457 229.96 146.734C232.318 146.1 234.314 145.106 235.946 143.749C237.579 142.483 238.713 140.901 239.347 139.002C239.982 137.103 240.073 135.113 239.62 133.033C239.166 130.953 238.214 128.964 236.763 127.065C235.402 125.166 233.588 123.447 231.321 121.91C229.144 120.282 226.65 118.971 223.838 117.976C221.027 117.072 218.26 116.575 215.539 116.484C212.818 116.303 210.279 116.529 207.921 117.162C205.653 117.795 203.703 118.79 202.071 120.147C200.438 121.503 199.304 123.131 198.67 125.03C197.944 126.929 197.808 128.918 198.261 130.998C198.806 133.078 199.758 135.068 201.118 136.967C202.57 138.866 204.383 140.584 206.56 142.121ZM232.137 110.38C235.221 111.375 237.942 112.686 240.3 114.314L252 15.6981L211.73 17.3259L204.52 111.194C207.059 110.018 209.825 109.204 212.818 108.752C215.902 108.21 219.122 108.074 222.478 108.345C225.924 108.617 229.144 109.295 232.137 110.38ZM152.257 124.304C155.723 122.504 158.657 120.404 161.057 118.004C165.923 113.004 169.59 107.771 172.057 102.304C174.523 96.7708 176.023 91.3042 176.557 85.9042C177.157 80.5042 176.923 75.3042 175.857 70.3042C174.857 65.2375 173.323 60.7042 171.257 56.7042C170.123 54.5708 168.423 52.4708 166.157 50.4042C163.957 48.2708 161.257 46.4708 158.057 45.0042C154.857 43.5375 151.257 42.6042 147.257 42.2042C143.323 41.7375 139.09 42.0708 134.557 43.2042C129.757 44.4708 125.223 46.3042 120.957 48.7042C116.757 51.1042 112.957 53.9708 109.557 57.3042C106.157 60.5708 103.257 64.2375 100.857 68.3042C99.2102 71.0939 97.8775 74.0091 96.8586 77.0499L54.4136 82.4042L52.8136 98.5042L67.0136 95.8042C66.2136 97.7375 64.9803 99.4708 63.3136 101.004C61.7136 102.471 59.9136 103.671 57.9136 104.604C55.9136 105.471 53.8803 105.971 51.8136 106.104C49.747 106.171 47.847 105.771 46.1136 104.904C44.447 104.037 43.047 102.637 41.9136 100.704C40.847 98.7042 40.347 96.0708 40.4136 92.8042C40.4136 89.2708 41.1136 86.1042 42.5136 83.3042C43.9803 80.5042 45.8136 78.1375 48.0136 76.2042C50.2136 74.2708 52.647 72.7708 55.3136 71.7042C57.9803 70.6375 60.547 70.1042 63.0136 70.1042C65.547 70.1042 67.8136 70.6375 69.8136 71.7042C71.8803 72.7042 73.3803 74.3375 74.3136 76.6042L93.0136 56.9042C89.4803 53.4375 85.9136 50.7375 82.3136 48.8042C78.7136 46.8042 75.3803 45.4042 72.3136 44.6042C69.247 43.7375 66.4803 43.2375 64.0136 43.1042C61.547 42.9708 59.647 43.0042 58.3136 43.2042C57.047 43.3375 56.347 43.4042 56.2136 43.4042C51.4136 44.4042 46.847 46.0708 42.5136 48.4042C38.1803 50.7375 34.247 53.5708 30.7136 56.9042C27.247 60.1708 24.247 63.8708 21.7136 68.0042C19.247 72.1375 17.447 76.5375 16.3136 81.2042C15.1803 85.8042 14.7803 90.6042 15.1136 95.6042C15.447 100.538 16.747 105.504 19.0136 110.504C21.0136 114.971 23.6136 118.604 26.8136 121.404C30.0803 124.204 33.6136 126.271 37.4136 127.604C41.2136 129.004 45.2136 129.738 49.4136 129.804C53.6136 129.938 57.6803 129.538 61.6136 128.604C65.547 127.671 69.2136 126.304 72.6136 124.504C76.0803 122.704 79.0136 120.604 81.4136 118.204C81.547 118.071 82.2136 117.304 83.4136 115.904C84.6803 114.504 86.247 112.471 88.1136 109.804C89.9803 107.071 91.747 104.004 93.4136 100.604C93.9625 99.5275 94.4713 98.4174 94.94 97.2739C95.4885 101.625 96.7608 106.002 98.7566 110.404C100.757 114.871 103.357 118.504 106.557 121.304C109.757 124.104 113.257 126.171 117.057 127.504C120.923 128.904 124.923 129.638 129.057 129.704C133.257 129.771 137.323 129.338 141.257 128.404C145.19 127.471 148.857 126.104 152.257 124.304ZM143.457 70.8042C145.323 71.7375 146.757 73.2708 147.757 75.4042C148.357 76.6042 148.823 77.9708 149.157 79.5042C149.49 81.0375 149.557 82.7375 149.357 84.6042C149.223 86.4708 148.757 88.5375 147.957 90.8042C147.223 93.0042 146.023 95.4042 144.357 98.0042C143.223 99.7375 141.823 101.271 140.157 102.604C138.49 103.871 136.69 104.838 134.757 105.504C132.89 106.171 130.99 106.471 129.057 106.404C127.123 106.271 125.39 105.738 123.857 104.804C122.39 103.804 121.157 102.304 120.157 100.304C119.223 98.3042 118.79 95.7042 118.857 92.5042C118.857 89.1042 119.423 86.0042 120.557 83.2042C121.757 80.4042 123.257 78.0375 125.057 76.1042C126.857 74.1042 128.857 72.5708 131.057 71.5042C133.257 70.3708 135.423 69.7375 137.557 69.6042C139.69 69.4708 141.657 69.8708 143.457 70.8042Z" fill="black"/>
</svg>
