<svg width="278" height="142" viewBox="0 0 278 142" fill="none" xmlns="http://www.w3.org/2000/svg">
<path d="M109 5.28L117.704 1.504L121.096 11.968L126.888 3.072L131.72 11.456L135.56 0L142.92 5.28L134.984 28.8L127.016 20.64L118.792 31.008L109 5.28Z" fill="black"/>
<path d="M149.811 11.52H149.875C150.409 10.816 151.027 10.3147 151.731 10.016C152.435 9.696 153.225 9.536 154.099 9.536C154.995 9.536 155.785 9.696 156.467 10.016C157.171 10.336 157.758 10.784 158.227 11.36C158.697 11.936 159.049 12.6187 159.283 13.408C159.539 14.176 159.657 15.008 159.635 15.904L159.443 28.288L152.691 28.864V17.184C152.691 16.8213 152.563 16.512 152.307 16.256C152.051 16 151.71 15.872 151.283 15.872C150.878 15.872 150.526 16 150.227 16.256C149.95 16.4907 149.811 16.8213 149.811 17.248V28.896L143.091 28.32L142.867 3.104L150.035 2.528L149.811 11.52Z" fill="black"/>
<path d="M171.825 26.432H171.761C171.185 27.2427 170.449 27.808 169.553 28.128C168.678 28.448 167.729 28.608 166.705 28.608C165.851 28.608 165.041 28.4587 164.272 28.16C163.504 27.84 162.833 27.392 162.257 26.816C161.681 26.24 161.222 25.5467 160.881 24.736C160.539 23.9253 160.368 23.0187 160.368 22.016C160.368 21.1413 160.539 20.3413 160.881 19.616C161.222 18.8693 161.681 18.2293 162.257 17.696C162.854 17.1413 163.547 16.7147 164.337 16.416C165.147 16.096 166.022 15.936 166.961 15.936C167.942 15.936 168.763 16.0853 169.424 16.384C170.107 16.6613 170.683 16.9813 171.153 17.344V16.384C171.153 15.4027 170.833 14.752 170.193 14.432C169.553 14.112 168.721 13.952 167.697 13.952C166.758 13.952 165.883 14.048 165.073 14.24C164.262 14.432 163.441 14.656 162.609 14.912L163.856 9.824C164.88 9.52533 165.947 9.32267 167.057 9.216C168.166 9.088 169.297 9.024 170.449 9.024C171.494 9.024 172.518 9.152 173.521 9.408C174.523 9.64267 175.398 10.0373 176.145 10.592C176.912 11.1467 177.521 11.8613 177.968 12.736C178.416 13.6107 178.63 14.688 178.609 15.968L178.257 28.064L171.825 28.608V26.432ZM167.761 20.512C167.035 20.6187 166.438 20.8747 165.968 21.28C165.499 21.664 165.297 22.1013 165.361 22.592C165.446 23.0827 165.744 23.456 166.257 23.712C166.79 23.9467 167.473 24 168.305 23.872C169.137 23.744 169.755 23.4773 170.16 23.072C170.566 22.6667 170.726 22.2293 170.641 21.76C170.577 21.3547 170.299 21.0133 169.809 20.736C169.339 20.4373 168.657 20.3627 167.761 20.512Z" fill="black"/>
<path d="M197.282 26.336C196.748 26.8053 196.172 27.2 195.554 27.52C194.956 27.8187 194.338 28.064 193.698 28.256C193.058 28.448 192.407 28.576 191.746 28.64C191.084 28.7253 190.444 28.768 189.826 28.768C188.375 28.768 187.031 28.5227 185.794 28.032C184.578 27.5413 183.511 26.8693 182.594 26.016C181.698 25.1413 180.994 24.128 180.482 22.976C179.97 21.8027 179.714 20.544 179.714 19.2C179.714 17.6427 179.98 16.2453 180.514 15.008C181.047 13.7493 181.783 12.6933 182.722 11.84C183.682 10.9653 184.812 10.304 186.114 9.856C187.415 9.38667 188.823 9.152 190.338 9.152C191.852 9.152 193.164 9.39733 194.274 9.888C195.404 10.3787 196.354 10.88 197.122 11.392L192.898 16.928C192.599 16.6933 192.247 16.5013 191.842 16.352C191.458 16.2027 191.063 16.096 190.658 16.032C190.252 15.968 189.858 15.9467 189.474 15.968C189.111 15.9893 188.812 16.064 188.578 16.192C188.172 16.4053 187.82 16.6613 187.522 16.96C187.244 17.2373 187.02 17.5467 186.85 17.888C186.7 18.2293 186.626 18.6027 186.626 19.008C186.647 19.392 186.764 19.7867 186.978 20.192C187.404 21.0453 188.012 21.568 188.802 21.76C189.591 21.952 190.423 21.8347 191.298 21.408L192.93 20.576L197.282 26.336Z" fill="black"/>
<path d="M197.772 3.168L205.036 2.592L204.396 16.096H204.46L207.5 9.6L214.572 10.176L210.412 18.24L215.212 25.632L208.556 28.928L204.396 20.896H204.332L204.588 28.352L197.932 28.928L197.772 3.168Z" fill="black"/>
<path d="M217.744 15.712L227.888 15.264L227.568 19.552L217.456 19.392L217.744 15.712Z" fill="black"/>
<path d="M241.106 26.432H241.042C240.466 27.2427 239.73 27.808 238.834 28.128C237.959 28.448 237.01 28.608 235.986 28.608C235.132 28.608 234.322 28.4587 233.554 28.16C232.786 27.84 232.114 27.392 231.538 26.816C230.962 26.24 230.503 25.5467 230.162 24.736C229.82 23.9253 229.65 23.0187 229.65 22.016C229.65 21.1413 229.82 20.3413 230.162 19.616C230.503 18.8693 230.962 18.2293 231.538 17.696C232.135 17.1413 232.828 16.7147 233.618 16.416C234.428 16.096 235.303 15.936 236.242 15.936C237.223 15.936 238.044 16.0853 238.706 16.384C239.388 16.6613 239.964 16.9813 240.434 17.344V16.384C240.434 15.4027 240.114 14.752 239.474 14.432C238.834 14.112 238.002 13.952 236.978 13.952C236.039 13.952 235.164 14.048 234.354 14.24C233.543 14.432 232.722 14.656 231.89 14.912L233.138 9.824C234.162 9.52533 235.228 9.32267 236.338 9.216C237.447 9.088 238.578 9.024 239.73 9.024C240.775 9.024 241.799 9.152 242.802 9.408C243.804 9.64267 244.679 10.0373 245.426 10.592C246.194 11.1467 246.802 11.8613 247.25 12.736C247.698 13.6107 247.911 14.688 247.89 15.968L247.538 28.064L241.106 28.608V26.432ZM237.042 20.512C236.316 20.6187 235.719 20.8747 235.25 21.28C234.78 21.664 234.578 22.1013 234.642 22.592C234.727 23.0827 235.026 23.456 235.538 23.712C236.071 23.9467 236.754 24 237.586 23.872C238.418 23.744 239.036 23.4773 239.442 23.072C239.847 22.6667 240.007 22.2293 239.922 21.76C239.858 21.3547 239.58 21.0133 239.09 20.736C238.62 20.4373 237.938 20.3627 237.042 20.512Z" fill="black"/>
<path d="M19.8877 113.008C22.221 113.808 24.5544 114.475 26.8877 115.008C29.2877 115.541 31.7544 115.808 34.2877 115.808C35.3544 115.808 36.421 115.741 37.4877 115.608C38.5544 115.475 39.521 115.175 40.3877 114.708C41.2544 114.308 41.9544 113.741 42.4877 113.008C43.021 112.208 43.2877 111.175 43.2877 109.908C43.2877 108.641 42.9544 107.608 42.2877 106.808C41.6877 105.941 40.821 105.275 39.6877 104.808C38.621 104.275 37.3877 103.941 35.9877 103.808C34.5877 103.608 33.1544 103.508 31.6877 103.508C29.9544 103.508 28.1877 103.775 26.3877 104.308C24.5877 104.775 22.921 105.408 21.3877 106.208L23.2877 100.208C18.8877 98.0747 15.4544 95.1747 12.9877 91.508C10.5877 87.7747 9.3877 83.2747 9.3877 78.008C9.3877 75.2747 9.8877 72.4747 10.8877 69.608C11.9544 66.6747 13.5877 64.008 15.7877 61.608C17.9877 59.208 20.7877 57.2413 24.1877 55.708C27.5877 54.1747 31.6544 53.408 36.3877 53.408C38.7877 53.408 40.8877 53.5747 42.6877 53.908C44.4877 54.2413 46.1877 54.6747 47.7877 55.208L49.4877 44.708L65.4877 51.608L60.2877 61.808C62.421 63.8747 64.021 66.2747 65.0877 69.008C66.221 71.6747 66.7877 74.5413 66.7877 77.608C66.7877 81.808 65.921 85.408 64.1877 88.408C62.521 91.3413 60.021 93.908 56.6877 96.108C63.221 99.7747 66.4877 105.308 66.4877 112.708C66.4877 116.241 65.721 119.375 64.1877 122.108C62.6544 124.908 60.4544 127.241 57.5877 129.108C54.7877 130.975 51.3877 132.375 47.3877 133.308C43.4544 134.308 39.0544 134.808 34.1877 134.808C28.321 134.808 23.4544 134.308 19.5877 133.308C15.721 132.308 12.5877 131.408 10.1877 130.608L19.8877 113.008ZM39.1877 84.908C41.4544 84.4413 43.1544 83.508 44.2877 82.108C45.421 80.708 45.821 79.1413 45.4877 77.408C45.0877 75.6747 44.0544 74.408 42.3877 73.608C40.7877 72.808 38.8877 72.6413 36.6877 73.108C34.421 73.6413 32.721 74.608 31.5877 76.008C30.4544 77.408 30.0544 78.9413 30.3877 80.608C30.721 82.3413 31.6877 83.6413 33.2877 84.508C34.9544 85.308 36.921 85.4413 39.1877 84.908Z" fill="black"/>
<path d="M94.2674 61.208H94.4674C96.134 59.008 98.0674 57.4413 100.267 56.508C102.467 55.508 104.934 55.008 107.667 55.008C110.467 55.008 112.934 55.508 115.067 56.508C117.267 57.508 119.101 58.908 120.567 60.708C122.034 62.508 123.134 64.6413 123.867 67.108C124.667 69.508 125.034 72.108 124.967 74.908L124.367 113.608L103.267 115.408V78.908C103.267 77.7747 102.867 76.808 102.067 76.008C101.267 75.208 100.201 74.808 98.8674 74.808C97.6007 74.808 96.5007 75.208 95.5674 76.008C94.7007 76.7413 94.2674 77.7747 94.2674 79.108V115.508L73.2674 113.708L72.5674 34.908L94.9674 33.108L94.2674 61.208Z" fill="black"/>
<path d="M189.52 94.808C191.32 95.3413 193.12 95.7747 194.92 96.108C196.786 96.4413 198.786 96.608 200.92 96.608C201.853 96.608 202.82 96.608 203.82 96.608C204.886 96.5413 205.82 96.4413 206.62 96.308C207.486 96.108 208.186 95.808 208.72 95.408C209.32 95.008 209.62 94.408 209.62 93.608C209.62 92.608 209.086 91.8747 208.02 91.408C207.02 90.8747 205.753 90.3747 204.22 89.908C202.753 89.4413 201.12 88.908 199.32 88.308C197.52 87.6413 195.853 86.708 194.32 85.508C192.853 84.2413 191.586 82.5747 190.52 80.508C189.52 78.4413 189.02 75.7413 189.02 72.408C189.02 70.208 189.453 68.0413 190.32 65.908C191.186 63.7747 192.586 61.8413 194.52 60.108C196.453 58.3747 198.953 56.9747 202.02 55.908C205.086 54.8413 208.786 54.308 213.12 54.308C214.786 54.308 216.453 54.3747 218.12 54.508C219.786 54.6413 221.353 54.8413 222.82 55.108C224.353 55.308 225.753 55.5413 227.02 55.808C228.286 56.008 229.353 56.208 230.22 56.408V74.008C228.553 73.608 226.92 73.2747 225.32 73.008C223.72 72.7413 221.986 72.608 220.12 72.608C219.72 72.608 219.086 72.6413 218.22 72.708C217.353 72.708 216.486 72.808 215.62 73.008C214.753 73.1413 213.986 73.408 213.32 73.808C212.653 74.208 212.32 74.7413 212.32 75.408C212.32 76.4747 212.853 77.2747 213.92 77.808C214.986 78.3413 216.286 78.8413 217.82 79.308C219.42 79.7747 221.153 80.3413 223.02 81.008C224.886 81.6747 226.586 82.6413 228.12 83.908C229.72 85.108 231.053 86.7413 232.12 88.808C233.186 90.8747 233.72 93.5747 233.72 96.908C233.72 100.508 232.92 103.508 231.32 105.908C229.786 108.308 227.72 110.241 225.12 111.708C222.586 113.108 219.653 114.108 216.32 114.708C212.986 115.308 209.52 115.608 205.92 115.608C203.12 115.608 200.353 115.441 197.62 115.108C194.953 114.775 192.253 114.241 189.52 113.508V94.808Z" fill="black"/>
<path d="M265.649 115.308C264.582 115.441 263.549 115.508 262.549 115.508C261.615 115.575 260.582 115.608 259.449 115.608C253.049 115.608 248.049 114.175 244.449 111.308C240.915 108.375 239.149 103.641 239.149 97.108V73.408L233.649 73.508L234.249 56.208H238.949V49.608L260.649 39.808V56.208L268.749 55.008L267.649 73.408H260.849V90.908C260.849 92.908 261.115 94.2413 261.649 94.908C262.249 95.5747 263.549 95.908 265.549 95.908C266.415 95.908 267.115 95.8747 267.649 95.808C268.182 95.7413 268.682 95.6413 269.149 95.508L265.649 115.308Z" fill="black"/>
<path fill-rule="evenodd" clip-rule="evenodd" d="M21.3878 106.208C21.4209 106.191 21.454 106.174 21.4873 106.156C22.9931 105.381 24.6266 104.765 26.3878 104.308C27.4511 103.993 28.5028 103.771 29.5429 103.642C30.2635 103.553 30.9784 103.508 31.6878 103.508C33.1544 103.508 34.5878 103.608 35.9878 103.808C37.3878 103.941 38.6211 104.275 39.6878 104.808C40.8211 105.275 41.6878 105.941 42.2878 106.808C42.9544 107.608 43.2878 108.641 43.2878 109.908C43.2878 111.175 43.0211 112.208 42.4878 113.008C41.9544 113.741 41.2544 114.308 40.3878 114.708C39.5211 115.175 38.5544 115.475 37.4878 115.608C36.4211 115.741 35.3544 115.808 34.2878 115.808C31.7544 115.808 29.2878 115.541 26.8878 115.008C25.294 114.644 23.7002 114.217 22.1064 113.729C21.3669 113.502 20.6273 113.262 19.8878 113.008L10.1878 130.608C12.0412 131.226 14.3321 131.903 17.0604 132.64C17.8648 132.858 18.7073 133.08 19.5878 133.308C23.4544 134.308 28.3211 134.808 34.1878 134.808C39.0544 134.808 43.4544 134.308 47.3878 133.308C51.3878 132.375 54.7878 130.975 57.5878 129.108C60.4544 127.241 62.6544 124.908 64.1878 122.108C65.2662 120.186 65.9653 118.065 66.2853 115.747C66.3742 115.103 66.4339 114.443 66.4642 113.768C66.4799 113.419 66.4878 113.066 66.4878 112.708C66.4878 111.502 66.401 110.346 66.2275 109.239C65.7105 105.941 64.4236 103.084 62.3667 100.667C60.8774 98.9165 58.9844 97.3969 56.6878 96.108C58.8855 94.6575 60.721 93.0476 62.1943 91.2783C62.9555 90.3641 63.62 89.4073 64.1878 88.408C64.9689 87.056 65.574 85.5822 66.0032 83.9865C66.5262 82.0414 66.7878 79.9152 66.7878 77.608C66.7878 75.3793 66.4885 73.2563 65.8899 71.2389C65.6648 70.4803 65.3975 69.7367 65.0878 69.008C64.0211 66.2747 62.4211 63.8747 60.2878 61.808L65.4878 51.608L49.4878 44.708L47.7878 55.208C46.1878 54.6747 44.4878 54.2413 42.6878 53.908C42.1364 53.8059 41.5568 53.7194 40.9491 53.6486C39.573 53.4882 38.0526 53.408 36.3878 53.408C31.6544 53.408 27.5878 54.1747 24.1878 55.708C20.7878 57.2413 17.9878 59.208 15.7878 61.608C13.5878 64.008 11.9544 66.6747 10.8878 69.608C9.88776 72.4747 9.38776 75.2747 9.38776 78.008C9.38776 83.2747 10.5878 87.7747 12.9878 91.508C14.9537 94.4304 17.5337 96.8658 20.7278 98.8141C21.5413 99.3103 22.3946 99.775 23.2878 100.208L21.3878 106.208ZM14.9427 103.374C11.8905 101.185 9.28024 98.5377 7.17971 95.4152L7.13898 95.3547L7.09951 95.2933C3.84746 90.2346 2.38776 84.3627 2.38776 78.008C2.38776 74.4077 3.04825 70.8287 4.27836 67.3024L4.2935 67.259L4.30921 67.2158C5.70393 63.3803 7.83306 59.9266 10.6277 56.8779C13.5554 53.684 17.1704 51.1938 21.31 49.3269C25.8233 47.2915 30.92 46.408 36.3878 46.408C38.3755 46.408 40.2767 46.5086 42.0687 46.733L44.0131 34.7239L65.6484 44.0541L65.5098 28.4526L102.159 25.5075L101.581 48.6976C103.551 48.229 105.588 48.008 107.667 48.008C111.289 48.008 114.789 48.6543 118 50.152C121.126 51.5791 123.826 53.6255 125.994 56.2863C128.081 58.8474 129.575 61.7901 130.544 65.0038C131.597 68.2061 132.046 71.5722 131.966 75.0436L131.269 120.045L101.267 122.604V123.134L98.1706 122.868L96.2675 123.031V122.705L72.3621 120.656C71.8575 122.331 71.1775 123.95 70.3106 125.501C68.1896 129.362 65.1777 132.512 61.4385 134.954C57.8299 137.353 53.6482 139.028 49.0456 140.109C44.4684 141.266 39.4988 141.808 34.1878 141.808C27.9786 141.808 22.4733 141.285 17.8351 140.085C13.8908 139.065 10.5868 138.12 7.97417 137.249L0 134.591L11.8875 113.022L14.9427 103.374ZM94.2675 115.508V79.108C94.2675 77.7747 94.7008 76.7413 95.5675 76.008C96.5008 75.208 97.6008 74.808 98.8675 74.808C100.201 74.808 101.267 75.208 102.067 76.008C102.867 76.808 103.267 77.7747 103.267 78.908V115.408L124.367 113.608L124.967 74.908C125.034 72.108 124.667 69.508 123.867 67.108C123.134 64.6413 122.034 62.508 120.567 60.708C119.101 58.908 117.267 57.508 115.067 56.508C112.934 55.508 110.467 55.008 107.667 55.008C105.393 55.008 103.303 55.3542 101.398 56.0466C101.014 56.1863 100.637 56.3401 100.267 56.508C98.0675 57.4413 96.1341 59.008 94.4675 61.208H94.2675L94.9675 33.108L72.5675 34.908L73.2675 113.708L94.2675 115.508ZM36.6878 73.108C38.8878 72.6413 40.7878 72.808 42.3878 73.608C44.0544 74.408 45.0878 75.6747 45.4878 77.408C45.8211 79.1413 45.4211 80.708 44.2878 82.108C43.1544 83.508 41.4544 84.4413 39.1878 84.908C36.9211 85.4413 34.9544 85.308 33.2878 84.508C31.6878 83.6413 30.7211 82.3413 30.3878 80.608C30.0544 78.9413 30.4544 77.408 31.5878 76.008C32.7211 74.608 34.4211 73.6413 36.6878 73.108ZM185.904 86.4357C185.319 85.5693 184.786 84.6608 184.299 83.7185L184.258 83.6382L184.219 83.5569C182.599 80.2094 182.02 76.356 182.02 72.408C182.02 69.2629 182.644 66.2038 183.835 63.2734C185.15 60.0351 187.223 57.2483 189.847 54.896C192.62 52.4096 195.989 50.5941 199.72 49.2965C203.727 47.9028 208.249 47.308 213.12 47.308C214.973 47.308 216.826 47.3821 218.678 47.5303C220.486 47.675 222.228 47.8924 223.896 48.1893C225.446 48.3949 226.911 48.6373 228.285 48.9212C228.865 49.014 229.422 49.1095 229.953 49.208H231.949V45.0885L267.649 28.966V48.0946L276.251 46.8202L274.243 80.408H267.849V88.5993L277.991 85.7016L271.643 121.613L266.517 122.254C265.27 122.41 264.031 122.496 262.803 122.507C261.745 122.576 260.624 122.608 259.449 122.608C252.075 122.608 245.332 120.96 240.088 116.784L240.032 116.739L239.977 116.694C238.24 115.252 236.837 113.591 235.724 111.762C233.762 114.213 231.352 116.23 228.559 117.805L228.532 117.82L228.506 117.835C225.201 119.661 221.52 120.884 217.56 121.597C213.793 122.275 209.91 122.608 205.92 122.608C202.841 122.608 199.792 122.425 196.772 122.057L196.762 122.055L196.752 122.054C193.749 121.679 190.733 121.081 187.706 120.269L182.52 118.878V85.4331L185.904 86.4357ZM239.884 103.659C240.71 106.918 242.231 109.467 244.449 111.308C248.049 114.175 253.049 115.608 259.449 115.608C260.582 115.608 261.615 115.575 262.549 115.508C263.549 115.508 264.582 115.441 265.649 115.308L269.149 95.508C268.682 95.6413 268.182 95.7413 267.649 95.808C267.115 95.8747 266.415 95.908 265.549 95.908C263.942 95.908 262.787 95.6928 262.084 95.2624C261.912 95.1572 261.767 95.039 261.649 94.908C261.115 94.2413 260.849 92.908 260.849 90.908V73.408H267.649L268.749 55.008L260.649 56.208V39.808L238.949 49.608V56.208H234.249L233.649 73.508L239.149 73.408V97.108C239.149 99.5415 239.394 101.725 239.884 103.659ZM230.22 74.008C229.061 73.7298 227.918 73.4838 226.791 73.2701C226.745 73.2615 226.699 73.2529 226.654 73.2443C226.206 73.1604 225.762 73.0817 225.32 73.008C224.644 72.8953 223.944 72.8064 223.22 72.7413C222.231 72.6524 221.198 72.608 220.12 72.608C220.042 72.608 219.956 72.6092 219.861 72.6117C219.86 72.6118 219.859 72.6118 219.858 72.6118C219.83 72.6126 219.801 72.6134 219.772 72.6144C219.418 72.6259 218.954 72.653 218.381 72.6958C218.328 72.6997 218.275 72.7038 218.22 72.708C217.612 72.708 217.004 72.7572 216.396 72.8556C216.137 72.8975 215.879 72.9483 215.62 73.008C214.753 73.1413 213.986 73.408 213.32 73.808C212.653 74.208 212.32 74.7413 212.32 75.408C212.32 76.4747 212.853 77.2747 213.92 77.808C214.621 78.1584 215.422 78.4945 216.325 78.8162C216.391 78.8397 216.457 78.8631 216.524 78.8865C216.685 78.9424 216.848 78.9978 217.015 79.0529C217.222 79.1214 217.435 79.1893 217.652 79.2565C217.708 79.2737 217.764 79.2909 217.82 79.308C217.952 79.3466 218.086 79.3859 218.22 79.4259C218.395 79.478 218.571 79.5312 218.749 79.5856C218.838 79.6128 218.927 79.6402 219.016 79.668C220.275 80.0575 221.609 80.5042 223.02 81.008C224.886 81.6747 226.586 82.6413 228.12 83.908C229.72 85.108 231.053 86.7413 232.12 88.808C232.129 88.8267 232.139 88.8455 232.149 88.8644C233.196 90.9237 233.72 93.6049 233.72 96.908C233.72 96.9749 233.72 97.0415 233.719 97.108C233.7 99.4216 233.346 101.484 232.658 103.296C232.301 104.234 231.855 105.105 231.32 105.908C229.786 108.308 227.72 110.241 225.12 111.708C222.586 113.108 219.653 114.108 216.32 114.708C212.986 115.308 209.52 115.608 205.92 115.608C203.12 115.608 200.353 115.441 197.62 115.108C194.953 114.775 192.253 114.241 189.52 113.508V94.808C191.32 95.3413 193.12 95.7747 194.92 96.108C195.443 96.2014 195.976 96.2817 196.52 96.3489C197.917 96.5216 199.384 96.608 200.92 96.608H203.82C204.35 96.5748 204.848 96.5334 205.313 96.4838C205.488 96.465 205.659 96.445 205.825 96.4239C206.103 96.3886 206.368 96.3499 206.62 96.308C207.486 96.108 208.186 95.808 208.72 95.408C209.32 95.008 209.62 94.408 209.62 93.608C209.62 92.608 209.086 91.8747 208.02 91.408C207.345 91.048 206.549 90.7033 205.631 90.3737C205.516 90.3326 205.4 90.2918 205.282 90.2512C205.26 90.2438 205.239 90.2364 205.217 90.229C205.051 90.1726 204.882 90.1166 204.71 90.0611C204.594 90.0239 204.476 89.9868 204.357 89.95C204.311 89.9359 204.266 89.922 204.22 89.908C204.088 89.866 203.954 89.8235 203.82 89.7804C203.676 89.7345 203.531 89.6879 203.384 89.6408C203.35 89.6299 203.317 89.6189 203.283 89.608C202.066 89.2165 200.745 88.7831 199.32 88.308C197.52 87.6413 195.853 86.708 194.32 85.508C192.853 84.2413 191.586 82.5747 190.52 80.508C189.52 78.4413 189.02 75.7413 189.02 72.408C189.02 70.208 189.453 68.0413 190.32 65.908C191.186 63.7747 192.586 61.8413 194.52 60.108C196.453 58.3747 198.953 56.9747 202.02 55.908C205.086 54.8413 208.786 54.308 213.12 54.308C214.786 54.308 216.453 54.3747 218.12 54.508C219.786 54.6413 221.353 54.8413 222.82 55.108C224.353 55.308 225.753 55.5413 227.02 55.808C227.1 55.8206 227.179 55.8332 227.257 55.8458C227.569 55.8961 227.869 55.9464 228.155 55.9967C228.937 56.1338 229.626 56.2709 230.22 56.408V74.008ZM267.913 92.0352C267.913 92.0349 267.913 92.0344 267.913 92.0339L267.913 92.0352Z" fill="#D9D9D9"/>
</svg>
