<svg width="279" height="143" viewBox="0 0 279 143" fill="none" xmlns="http://www.w3.org/2000/svg">
<path d="M100.719 5.672L109.423 1.896L112.815 12.36L118.607 3.464L123.439 11.848L127.279 0.391998L134.639 5.672L126.703 29.192L118.735 21.032L110.511 31.4L100.719 5.672Z" fill="black"/>
<path d="M141.53 11.912H141.594C142.127 11.208 142.746 10.7067 143.45 10.408C144.154 10.088 144.943 9.928 145.818 9.928C146.714 9.928 147.503 10.088 148.186 10.408C148.89 10.728 149.476 11.176 149.946 11.752C150.415 12.328 150.767 13.0107 151.002 13.8C151.258 14.568 151.375 15.4 151.354 16.296L151.162 28.68L144.41 29.256V17.576C144.41 17.2133 144.282 16.904 144.026 16.648C143.77 16.392 143.428 16.264 143.002 16.264C142.596 16.264 142.244 16.392 141.946 16.648C141.668 16.8827 141.53 17.2133 141.53 17.64V29.288L134.81 28.712L134.586 3.496L141.754 2.92L141.53 11.912Z" fill="black"/>
<path d="M163.543 26.824H163.479C162.903 27.6347 162.167 28.2 161.271 28.52C160.396 28.84 159.447 29 158.423 29C157.57 29 156.759 28.8507 155.991 28.552C155.223 28.232 154.551 27.784 153.975 27.208C153.399 26.632 152.94 25.9387 152.599 25.128C152.258 24.3173 152.087 23.4107 152.087 22.408C152.087 21.5333 152.258 20.7333 152.599 20.008C152.94 19.2613 153.399 18.6213 153.975 18.088C154.572 17.5333 155.266 17.1067 156.055 16.808C156.866 16.488 157.74 16.328 158.679 16.328C159.66 16.328 160.482 16.4773 161.143 16.776C161.826 17.0533 162.402 17.3733 162.871 17.736V16.776C162.871 15.7947 162.551 15.144 161.911 14.824C161.271 14.504 160.439 14.344 159.415 14.344C158.476 14.344 157.602 14.44 156.791 14.632C155.98 14.824 155.159 15.048 154.327 15.304L155.575 10.216C156.599 9.91733 157.666 9.71467 158.775 9.608C159.884 9.48 161.015 9.416 162.167 9.416C163.212 9.416 164.236 9.544 165.239 9.8C166.242 10.0347 167.116 10.4293 167.863 10.984C168.631 11.5387 169.239 12.2533 169.687 13.128C170.135 14.0027 170.348 15.08 170.327 16.36L169.975 28.456L163.543 29V26.824ZM159.479 20.904C158.754 21.0107 158.156 21.2667 157.687 21.672C157.218 22.056 157.015 22.4933 157.079 22.984C157.164 23.4747 157.463 23.848 157.975 24.104C158.508 24.3387 159.191 24.392 160.023 24.264C160.855 24.136 161.474 23.8693 161.879 23.464C162.284 23.0587 162.444 22.6213 162.359 22.152C162.295 21.7467 162.018 21.4053 161.527 21.128C161.058 20.8293 160.375 20.7547 159.479 20.904Z" fill="black"/>
<path d="M189 26.728C188.467 27.1973 187.891 27.592 187.272 27.912C186.675 28.2107 186.056 28.456 185.416 28.648C184.776 28.84 184.126 28.968 183.464 29.032C182.803 29.1173 182.163 29.16 181.544 29.16C180.094 29.16 178.75 28.9147 177.512 28.424C176.296 27.9333 175.23 27.2613 174.312 26.408C173.416 25.5333 172.712 24.52 172.2 23.368C171.688 22.1947 171.432 20.936 171.432 19.592C171.432 18.0347 171.699 16.6373 172.232 15.4C172.766 14.1413 173.502 13.0853 174.44 12.232C175.4 11.3573 176.531 10.696 177.832 10.248C179.134 9.77867 180.542 9.544 182.056 9.544C183.571 9.544 184.883 9.78933 185.992 10.28C187.123 10.7707 188.072 11.272 188.84 11.784L184.616 17.32C184.318 17.0853 183.966 16.8933 183.56 16.744C183.176 16.5947 182.782 16.488 182.376 16.424C181.971 16.36 181.576 16.3387 181.192 16.36C180.83 16.3813 180.531 16.456 180.296 16.584C179.891 16.7973 179.539 17.0533 179.24 17.352C178.963 17.6293 178.739 17.9387 178.568 18.28C178.419 18.6213 178.344 18.9947 178.344 19.4C178.366 19.784 178.483 20.1787 178.696 20.584C179.123 21.4373 179.731 21.96 180.52 22.152C181.31 22.344 182.142 22.2267 183.016 21.8L184.648 20.968L189 26.728Z" fill="black"/>
<path d="M189.491 3.56L196.755 2.984L196.115 16.488H196.179L199.219 9.992L206.291 10.568L202.131 18.632L206.931 26.024L200.275 29.32L196.115 21.288H196.051L196.307 28.744L189.651 29.32L189.491 3.56Z" fill="black"/>
<path d="M209.463 16.104L219.607 15.656L219.287 19.944L209.175 19.784L209.463 16.104Z" fill="black"/>
<path d="M232.824 26.824H232.76C232.184 27.6347 231.448 28.2 230.552 28.52C229.678 28.84 228.728 29 227.704 29C226.851 29 226.04 28.8507 225.272 28.552C224.504 28.232 223.832 27.784 223.256 27.208C222.68 26.632 222.222 25.9387 221.88 25.128C221.539 24.3173 221.368 23.4107 221.368 22.408C221.368 21.5333 221.539 20.7333 221.88 20.008C222.222 19.2613 222.68 18.6213 223.256 18.088C223.854 17.5333 224.547 17.1067 225.336 16.808C226.147 16.488 227.022 16.328 227.96 16.328C228.942 16.328 229.763 16.4773 230.424 16.776C231.107 17.0533 231.683 17.3733 232.152 17.736V16.776C232.152 15.7947 231.832 15.144 231.192 14.824C230.552 14.504 229.72 14.344 228.696 14.344C227.758 14.344 226.883 14.44 226.072 14.632C225.262 14.824 224.44 15.048 223.608 15.304L224.856 10.216C225.88 9.91733 226.947 9.71467 228.056 9.608C229.166 9.48 230.296 9.416 231.448 9.416C232.494 9.416 233.518 9.544 234.52 9.8C235.523 10.0347 236.398 10.4293 237.144 10.984C237.912 11.5387 238.52 12.2533 238.968 13.128C239.416 14.0027 239.63 15.08 239.608 16.36L239.256 28.456L232.824 29V26.824ZM228.76 20.904C228.035 21.0107 227.438 21.2667 226.968 21.672C226.499 22.056 226.296 22.4933 226.36 22.984C226.446 23.4747 226.744 23.848 227.256 24.104C227.79 24.3387 228.472 24.392 229.304 24.264C230.136 24.136 230.755 23.8693 231.16 23.464C231.566 23.0587 231.726 22.6213 231.64 22.152C231.576 21.7467 231.299 21.4053 230.808 21.128C230.339 20.8293 229.656 20.7547 228.76 20.904Z" fill="black"/>
<path d="M20.8148 113.4C23.1482 114.2 25.4815 114.867 27.8148 115.4C30.2148 115.933 32.6815 116.2 35.2148 116.2C36.2815 116.2 37.3482 116.133 38.4148 116C39.4815 115.867 40.4482 115.567 41.3148 115.1C42.1815 114.7 42.8815 114.133 43.4148 113.4C43.9482 112.6 44.2148 111.567 44.2148 110.3C44.2148 109.033 43.8815 108 43.2148 107.2C42.6148 106.333 41.7482 105.667 40.6148 105.2C39.5482 104.667 38.3148 104.333 36.9148 104.2C35.5148 104 34.0815 103.9 32.6148 103.9C30.8815 103.9 29.1148 104.167 27.3148 104.7C25.5148 105.167 23.8482 105.8 22.3148 106.6L24.2148 100.6C19.8148 98.4667 16.3815 95.5667 13.9148 91.9C11.5148 88.1667 10.3148 83.6667 10.3148 78.4C10.3148 75.6667 10.8148 72.8667 11.8148 70C12.8815 67.0667 14.5148 64.4 16.7148 62C18.9148 59.6 21.7148 57.6333 25.1148 56.1C28.5148 54.5667 32.5815 53.8 37.3148 53.8C39.7148 53.8 41.8148 53.9667 43.6148 54.3C45.4148 54.6333 47.1148 55.0667 48.7148 55.6L50.4148 45.1L66.4148 52L61.2148 62.2C63.3482 64.2667 64.9482 66.6667 66.0148 69.4C67.1482 72.0667 67.7148 74.9333 67.7148 78C67.7148 82.2 66.8482 85.8 65.1148 88.8C63.4482 91.7333 60.9482 94.3 57.6148 96.5C64.1482 100.167 67.4148 105.7 67.4148 113.1C67.4148 116.633 66.6482 119.767 65.1148 122.5C63.5815 125.3 61.3815 127.633 58.5148 129.5C55.7148 131.367 52.3148 132.767 48.3148 133.7C44.3815 134.7 39.9815 135.2 35.1148 135.2C29.2482 135.2 24.3815 134.7 20.5148 133.7C16.6482 132.7 13.5148 131.8 11.1148 131L20.8148 113.4ZM40.1148 85.3C42.3815 84.8333 44.0815 83.9 45.2148 82.5C46.3482 81.1 46.7482 79.5333 46.4148 77.8C46.0148 76.0667 44.9815 74.8 43.3148 74C41.7148 73.2 39.8148 73.0333 37.6148 73.5C35.3482 74.0333 33.6482 75 32.5148 76.4C31.3815 77.8 30.9815 79.3333 31.3148 81C31.6482 82.7333 32.6148 84.0333 34.2148 84.9C35.8815 85.7 37.8482 85.8333 40.1148 85.3Z" fill="black"/>
<path d="M95.1945 61.6H95.3945C97.0612 59.4 98.9945 57.8333 101.195 56.9C103.395 55.9 105.861 55.4 108.595 55.4C111.395 55.4 113.861 55.9 115.995 56.9C118.195 57.9 120.028 59.3 121.495 61.1C122.961 62.9 124.061 65.0333 124.795 67.5C125.595 69.9 125.961 72.5 125.895 75.3L125.295 114L104.195 115.8V79.3C104.195 78.1667 103.795 77.2 102.995 76.4C102.195 75.6 101.128 75.2 99.7945 75.2C98.5278 75.2 97.4278 75.6 96.4945 76.4C95.6278 77.1333 95.1945 78.1667 95.1945 79.5V115.9L74.1945 114.1L73.4945 35.3L95.8945 33.5L95.1945 61.6Z" fill="black"/>
<path d="M190.447 95.2C192.247 95.7333 194.047 96.1667 195.847 96.5C197.714 96.8333 199.714 97 201.847 97C202.78 97 203.747 97 204.747 97C205.814 96.9333 206.747 96.8333 207.547 96.7C208.414 96.5 209.114 96.2 209.647 95.8C210.247 95.4 210.547 94.8 210.547 94C210.547 93 210.014 92.2667 208.947 91.8C207.947 91.2667 206.68 90.7667 205.147 90.3C203.68 89.8333 202.047 89.3 200.247 88.7C198.447 88.0333 196.78 87.1 195.247 85.9C193.78 84.6333 192.514 82.9667 191.447 80.9C190.447 78.8333 189.947 76.1333 189.947 72.8C189.947 70.6 190.38 68.4333 191.247 66.3C192.114 64.1667 193.514 62.2333 195.447 60.5C197.38 58.7667 199.88 57.3667 202.947 56.3C206.014 55.2333 209.714 54.7 214.047 54.7C215.714 54.7 217.38 54.7667 219.047 54.9C220.714 55.0333 222.28 55.2333 223.747 55.5C225.28 55.7 226.68 55.9333 227.947 56.2C229.214 56.4 230.28 56.6 231.147 56.8V74.4C229.48 74 227.847 73.6667 226.247 73.4C224.647 73.1333 222.914 73 221.047 73C220.647 73 220.014 73.0333 219.147 73.1C218.28 73.1 217.414 73.2 216.547 73.4C215.68 73.5333 214.914 73.8 214.247 74.2C213.58 74.6 213.247 75.1333 213.247 75.8C213.247 76.8667 213.78 77.6667 214.847 78.2C215.914 78.7333 217.214 79.2333 218.747 79.7C220.347 80.1667 222.08 80.7333 223.947 81.4C225.814 82.0667 227.514 83.0333 229.047 84.3C230.647 85.5 231.98 87.1333 233.047 89.2C234.114 91.2667 234.647 93.9667 234.647 97.3C234.647 100.9 233.847 103.9 232.247 106.3C230.714 108.7 228.647 110.633 226.047 112.1C223.514 113.5 220.58 114.5 217.247 115.1C213.914 115.7 210.447 116 206.847 116C204.047 116 201.28 115.833 198.547 115.5C195.88 115.167 193.18 114.633 190.447 113.9V95.2Z" fill="black"/>
<path d="M266.576 115.7C265.509 115.833 264.476 115.9 263.476 115.9C262.542 115.967 261.509 116 260.376 116C253.976 116 248.976 114.567 245.376 111.7C241.842 108.767 240.076 104.033 240.076 97.5V73.8L234.576 73.9L235.176 56.6H239.876V50L261.576 40.2V56.6L269.676 55.4L268.576 73.8H261.776V91.3C261.776 93.3 262.042 94.6333 262.576 95.3C263.176 95.9667 264.476 96.3 266.476 96.3C267.342 96.3 268.042 96.2667 268.576 96.2C269.109 96.1333 269.609 96.0333 270.076 95.9L266.576 115.7Z" fill="black"/>
<path fill-rule="evenodd" clip-rule="evenodd" d="M22.3148 106.6C22.3479 106.583 22.3811 106.566 22.4143 106.548C23.9202 105.773 25.5537 105.157 27.3148 104.7C28.3782 104.385 29.4299 104.163 30.47 104.034C31.1905 103.945 31.9055 103.9 32.6148 103.9C34.0815 103.9 35.5148 104 36.9148 104.2C38.3148 104.333 39.5482 104.667 40.6148 105.2C41.7482 105.667 42.6148 106.333 43.2148 107.2C43.8815 108 44.2148 109.033 44.2148 110.3C44.2148 111.567 43.9482 112.6 43.4148 113.4C42.8815 114.133 42.1815 114.7 41.3148 115.1C40.4482 115.567 39.4815 115.867 38.4148 116C37.3482 116.133 36.2815 116.2 35.2148 116.2C32.6815 116.2 30.2148 115.933 27.8148 115.4C26.2211 115.036 24.6273 114.609 23.0335 114.121C22.2939 113.894 21.5544 113.654 20.8148 113.4L11.1148 131C12.9683 131.618 15.2592 132.295 17.9874 133.032C18.7919 133.25 19.6343 133.472 20.5148 133.7C24.3815 134.7 29.2482 135.2 35.1148 135.2C39.9815 135.2 44.3815 134.7 48.3148 133.7C52.3148 132.767 55.7148 131.367 58.5148 129.5C61.3815 127.633 63.5815 125.3 65.1148 122.5C66.1932 120.578 66.8924 118.457 67.2124 116.139C67.3013 115.495 67.3609 114.835 67.3913 114.16C67.407 113.811 67.4148 113.458 67.4148 113.1C67.4148 111.894 67.3281 110.738 67.1545 109.631C66.6376 106.333 65.3507 103.476 63.2937 101.059C61.8044 99.3085 59.9115 97.7889 57.6148 96.5C59.8126 95.0495 61.6481 93.4396 63.1213 91.6703C63.8825 90.7561 64.547 89.7993 65.1148 88.8C65.896 87.448 66.5011 85.9742 66.9302 84.3785C67.4533 82.4334 67.7148 80.3072 67.7148 78C67.7148 75.7713 67.4155 73.6483 66.817 71.6309C66.5919 70.8723 66.3245 70.1287 66.0148 69.4C64.9482 66.6667 63.3482 64.2667 61.2148 62.2L66.4148 52L50.4148 45.1L48.7148 55.6C47.1148 55.0667 45.4148 54.6333 43.6148 54.3C43.0634 54.1979 42.4839 54.1114 41.8762 54.0406C40.5001 53.8802 38.9796 53.8 37.3148 53.8C32.5815 53.8 28.5148 54.5667 25.1148 56.1C21.7148 57.6333 18.9148 59.6 16.7148 62C14.5148 64.4 12.8815 67.0667 11.8148 70C10.8148 72.8667 10.3148 75.6667 10.3148 78.4C10.3148 83.6667 11.5148 88.1667 13.9148 91.9C15.8808 94.8224 18.4608 97.2577 21.6549 99.2061C22.4684 99.7023 23.3217 100.167 24.2148 100.6L22.3148 106.6ZM15.8697 103.766C12.8176 101.577 10.2073 98.9297 8.10677 95.8072L8.06604 95.7467L8.02658 95.6853C4.77452 90.6266 3.31483 84.7547 3.31483 78.4C3.31483 74.7997 3.97531 71.2207 5.20542 67.6944L5.22056 67.651L5.23627 67.6078C6.63099 63.7723 8.76012 60.3186 11.5547 57.2699C14.4825 54.076 18.0974 51.5858 22.2371 49.7189C26.7503 47.6835 31.847 46.8 37.3148 46.8C39.3025 46.8 41.2038 46.9006 42.9958 47.125L44.9402 35.1159L66.5755 44.4461L66.4369 28.8446L103.086 25.8995L102.508 49.0896C104.479 48.621 106.515 48.4 108.595 48.4C112.216 48.4 115.716 49.0463 118.928 50.544C122.053 51.9711 124.753 54.0175 126.921 56.6783C129.008 59.2394 130.502 62.1821 131.472 65.3958C132.524 68.5981 132.973 71.9642 132.893 75.4356L132.196 120.437L102.195 122.996V123.526L99.0976 123.26L97.1945 123.423V123.097L73.2891 121.048C72.7846 122.723 72.1046 124.342 71.2376 125.893C69.1167 129.754 66.1048 132.904 62.3656 135.346C58.7569 137.745 54.5753 139.42 49.9727 140.501C45.3955 141.658 40.4259 142.2 35.1148 142.2C28.9057 142.2 23.4004 141.677 18.7621 140.477C14.8178 139.457 11.5139 138.512 8.90123 137.641L0.927063 134.983L12.8146 113.414L15.8697 103.766ZM95.1945 115.9V79.5C95.1945 78.1667 95.6278 77.1333 96.4945 76.4C97.4278 75.6 98.5279 75.2 99.7945 75.2C101.128 75.2 102.195 75.6 102.995 76.4C103.795 77.2 104.195 78.1667 104.195 79.3V115.8L125.295 114L125.895 75.3C125.961 72.5 125.595 69.9 124.795 67.5C124.061 65.0333 122.961 62.9 121.495 61.1C120.028 59.3 118.195 57.9 115.995 56.9C113.861 55.9 111.395 55.4 108.595 55.4C106.32 55.4 104.23 55.7462 102.325 56.4386C101.941 56.5783 101.564 56.7321 101.195 56.9C98.9945 57.8333 97.0612 59.4 95.3945 61.6H95.1945L95.8945 33.5L73.4945 35.3L74.1945 114.1L95.1945 115.9ZM37.6148 73.5C39.8148 73.0333 41.7148 73.2 43.3148 74C44.9815 74.8 46.0148 76.0667 46.4148 77.8C46.7482 79.5333 46.3482 81.1 45.2148 82.5C44.0815 83.9 42.3815 84.8333 40.1148 85.3C37.8482 85.8333 35.8815 85.7 34.2148 84.9C32.6148 84.0333 31.6482 82.7333 31.3148 81C30.9815 79.3333 31.3815 77.8 32.5148 76.4C33.6482 75 35.3482 74.0333 37.6148 73.5ZM186.831 86.8277C186.246 85.9613 185.713 85.0528 185.226 84.1105L185.185 84.0302L185.146 83.9489C183.526 80.6014 182.947 76.748 182.947 72.8C182.947 69.6549 183.571 66.5958 184.762 63.6654C186.077 60.4271 188.15 57.6403 190.774 55.288C193.547 52.8016 196.917 50.9861 200.647 49.6885C204.654 48.2948 209.176 47.7 214.047 47.7C215.9 47.7 217.753 47.7741 219.605 47.9223C221.413 48.067 223.155 48.2844 224.823 48.5813C226.373 48.7869 227.838 49.0293 229.212 49.3132C229.792 49.406 230.349 49.5015 230.88 49.6H232.876V45.4805L268.576 29.358V48.4866L277.178 47.2122L275.17 80.8H268.776V88.9913L278.918 86.0936L272.57 122.005L267.444 122.646C266.197 122.802 264.958 122.888 263.73 122.899C262.672 122.968 261.551 123 260.376 123C253.002 123 246.26 121.352 241.015 117.176L240.959 117.131L240.904 117.086C239.168 115.644 237.764 113.983 236.652 112.154C234.689 114.605 232.279 116.622 229.486 118.197L229.459 118.212L229.433 118.227C226.128 120.053 222.447 121.276 218.487 121.989C214.72 122.667 210.837 123 206.847 123C203.768 123 200.719 122.817 197.699 122.449L197.689 122.447L197.679 122.446C194.677 122.071 191.661 121.473 188.633 120.661L183.447 119.27V85.8251L186.831 86.8277ZM240.811 104.051C241.637 107.31 243.159 109.859 245.376 111.7C248.976 114.567 253.976 116 260.376 116C261.509 116 262.542 115.967 263.476 115.9C264.476 115.9 265.509 115.833 266.576 115.7L270.076 95.9C269.609 96.0333 269.109 96.1333 268.576 96.2C268.042 96.2667 267.342 96.3 266.476 96.3C264.869 96.3 263.714 96.0848 263.011 95.6544C262.839 95.5492 262.694 95.431 262.576 95.3C262.042 94.6333 261.776 93.3 261.776 91.3V73.8H268.576L269.676 55.4L261.576 56.6V40.2L239.876 50V56.6H235.176L234.576 73.9L240.076 73.8V97.5C240.076 99.9335 240.321 102.117 240.811 104.051ZM231.147 74.4C229.988 74.1218 228.845 73.8758 227.718 73.6621C227.672 73.6535 227.626 73.6449 227.581 73.6363C227.134 73.5524 226.689 73.4737 226.247 73.4C225.571 73.2873 224.871 73.1984 224.147 73.1333C223.158 73.0444 222.125 73 221.047 73C220.969 73 220.883 73.0012 220.788 73.0037C220.787 73.0038 220.786 73.0038 220.785 73.0038C220.757 73.0046 220.728 73.0054 220.699 73.0064C220.345 73.0179 219.881 73.045 219.308 73.0878C219.255 73.0917 219.202 73.0958 219.147 73.1C218.539 73.1 217.931 73.1492 217.323 73.2476C217.064 73.2895 216.806 73.3403 216.547 73.4C215.68 73.5333 214.914 73.8 214.247 74.2C213.58 74.6 213.247 75.1333 213.247 75.8C213.247 76.8667 213.78 77.6667 214.847 78.2C215.548 78.5504 216.349 78.8865 217.252 79.2081C217.318 79.2317 217.384 79.2551 217.451 79.2785C217.612 79.3344 217.775 79.3898 217.942 79.4449C218.149 79.5134 218.362 79.5813 218.579 79.6485C218.635 79.6657 218.691 79.6829 218.747 79.7C218.879 79.7386 219.013 79.7779 219.147 79.8179C219.322 79.87 219.498 79.9232 219.676 79.9776C219.765 80.0048 219.854 80.0322 219.943 80.06C221.202 80.4495 222.536 80.8962 223.947 81.4C225.814 82.0667 227.514 83.0333 229.047 84.3C230.647 85.5 231.98 87.1333 233.047 89.2C233.057 89.2187 233.066 89.2375 233.076 89.2564C234.123 91.3157 234.647 93.9969 234.647 97.3C234.647 97.3669 234.647 97.4335 234.646 97.5C234.627 99.8136 234.273 101.876 233.585 103.688C233.228 104.626 232.782 105.497 232.247 106.3C230.714 108.7 228.647 110.633 226.047 112.1C223.514 113.5 220.58 114.5 217.247 115.1C213.914 115.7 210.447 116 206.847 116C204.047 116 201.28 115.833 198.547 115.5C195.88 115.167 193.18 114.633 190.447 113.9V95.2C192.247 95.7333 194.047 96.1667 195.847 96.5C196.37 96.5934 196.903 96.6737 197.447 96.7409C198.844 96.9136 200.311 97 201.847 97H204.747C205.277 96.9668 205.775 96.9254 206.24 96.8758C206.415 96.857 206.586 96.837 206.752 96.8159C207.03 96.7806 207.295 96.7419 207.547 96.7C208.414 96.5 209.114 96.2 209.647 95.8C210.247 95.4 210.547 94.8 210.547 94C210.547 93 210.014 92.2667 208.947 91.8C208.272 91.4401 207.476 91.0953 206.558 90.7657C206.443 90.7246 206.327 90.6838 206.209 90.6432C206.187 90.6358 206.166 90.6284 206.144 90.621C205.979 90.5646 205.809 90.5086 205.637 90.4531C205.521 90.4159 205.403 90.3788 205.284 90.3419C205.238 90.3279 205.193 90.3139 205.147 90.3C205.015 90.258 204.882 90.2155 204.747 90.1724C204.603 90.1265 204.458 90.0799 204.311 90.0328C204.278 90.0219 204.244 90.0109 204.21 90C202.993 89.6085 201.672 89.1751 200.247 88.7C198.447 88.0333 196.78 87.1 195.247 85.9C193.78 84.6333 192.514 82.9667 191.447 80.9C190.447 78.8333 189.947 76.1333 189.947 72.8C189.947 70.6 190.38 68.4333 191.247 66.3C192.114 64.1667 193.514 62.2333 195.447 60.5C197.38 58.7667 199.88 57.3667 202.947 56.3C206.014 55.2333 209.714 54.7 214.047 54.7C215.714 54.7 217.38 54.7667 219.047 54.9C220.714 55.0333 222.28 55.2333 223.747 55.5C225.28 55.7 226.68 55.9333 227.947 56.2C228.027 56.2126 228.106 56.2252 228.184 56.2378C228.496 56.2881 228.796 56.3384 229.082 56.3887C229.865 56.5258 230.553 56.6629 231.147 56.8V74.4ZM268.84 92.4272C268.84 92.4269 268.84 92.4264 268.84 92.4259Z" fill="#D9D9D9"/>
<path fill-rule="evenodd" clip-rule="evenodd" d="M132.93 64.2133C132.93 49.5391 144.826 37.6433 159.5 37.6433C174.174 37.6433 186.07 49.5391 186.07 64.2133V74.0158C186.07 74.1377 186.069 74.2594 186.067 74.3808L186.182 74.2738V88.4979C186.431 90.2182 187.65 93.9609 190.536 95.1693C194.143 96.6799 197.004 99.8268 194.268 103.729C192.184 106.701 185.988 106.387 181.942 102.789V111.42C181.942 114.555 179.402 117.095 176.267 117.095C173.133 117.095 170.592 114.555 170.592 111.42V115.032C170.592 118.166 168.051 120.707 164.917 120.707C161.783 120.707 159.242 118.166 159.242 115.032C159.242 118.166 156.701 120.707 153.567 120.707C150.432 120.707 147.892 118.166 147.892 115.032V111.42C147.892 114.555 145.351 117.095 142.216 117.095C139.082 117.095 136.541 114.555 136.541 111.42V103.221C132.503 106.408 126.729 106.577 124.732 103.729C121.995 99.8268 124.856 96.6799 128.464 95.1693C131.349 93.9609 132.568 90.2182 132.817 88.4979V74.2738L132.932 74.3808C132.931 74.2594 132.93 74.1377 132.93 74.0158V64.2133Z" fill="white"/>
<path fill-rule="evenodd" clip-rule="evenodd" d="M132.93 64.2133C132.93 49.5391 144.826 37.6433 159.5 37.6433C174.174 37.6433 186.07 49.5391 186.07 64.2133V74.0158C186.07 74.0614 186.07 74.107 186.07 74.1526C186.069 74.193 186.069 74.2334 186.069 74.2738C186.068 74.3095 186.068 74.3452 186.068 74.3808L186.183 74.2738V88.4979C186.431 90.2182 187.65 93.9609 190.536 95.1693C194.143 96.6799 197.004 99.8268 194.268 103.729C192.895 105.687 189.737 106.219 186.586 105.325C184.954 104.862 183.323 104.016 181.943 102.789V111.42C181.943 114.555 179.402 117.095 176.267 117.095C175.851 117.095 175.445 117.051 175.055 116.965C173.791 116.69 172.685 115.994 171.89 115.032C171.079 114.05 170.592 112.792 170.592 111.42V115.032C170.592 116.504 170.032 117.846 169.112 118.854C168.074 119.993 166.579 120.707 164.917 120.707C164.058 120.707 163.244 120.516 162.514 120.175C160.581 119.27 159.242 117.307 159.242 115.032C159.242 117.307 157.903 119.27 155.97 120.175C155.24 120.516 154.426 120.707 153.567 120.707C151.905 120.707 150.41 119.993 149.372 118.854C148.453 117.846 147.892 116.504 147.892 115.032V111.42C147.892 112.792 147.405 114.05 146.595 115.032C145.799 115.994 144.693 116.69 143.429 116.965C143.039 117.051 142.633 117.095 142.217 117.095C139.082 117.095 136.541 114.555 136.541 111.42V103.221C135.128 104.337 133.501 105.083 131.898 105.459C128.923 106.156 126.03 105.58 124.732 103.729C121.996 99.8268 124.857 96.6799 128.464 95.1693C131.35 93.9609 132.569 90.2182 132.817 88.4979V74.2738L132.932 74.3808C132.932 74.3452 132.932 74.3095 132.931 74.2738C132.931 74.2334 132.931 74.193 132.93 74.1526C132.93 74.107 132.93 74.0614 132.93 74.0158V64.2133ZM128.291 63.7153L128.174 63.6069V88.0917C128.079 88.5301 127.873 89.2045 127.536 89.8348C127.106 90.6372 126.749 90.8534 126.67 90.8864C124.361 91.8535 121.699 93.5637 120.173 96.2738C119.369 97.7021 118.891 99.4045 119.021 101.279C119.15 103.139 119.855 104.862 120.93 106.395C123.198 109.628 127.034 110.494 130.05 110.378C130.66 110.354 131.278 110.292 131.898 110.19V111.42C131.898 117.119 136.518 121.739 142.217 121.739C143.305 121.739 144.353 121.57 145.338 121.258C147.222 123.744 150.207 125.35 153.567 125.35C155.663 125.35 157.614 124.725 159.242 123.651C160.87 124.725 162.821 125.35 164.917 125.35C168.277 125.35 171.262 123.744 173.146 121.258C174.131 121.57 175.179 121.739 176.267 121.739C181.966 121.739 186.586 117.119 186.586 111.42V110.097C187.237 110.226 187.886 110.312 188.527 110.355C191.651 110.567 195.706 109.765 198.07 106.395C199.145 104.862 199.85 103.139 199.979 101.279C200.109 99.4045 199.631 97.7021 198.827 96.2738C197.301 93.5637 194.639 91.8535 192.33 90.8864C192.251 90.8534 191.894 90.6372 191.464 89.8348C191.127 89.2045 190.921 88.5301 190.826 88.0917V63.6069L190.709 63.7153C190.443 46.7063 176.572 33 159.5 33C142.428 33 128.557 46.7063 128.291 63.7153Z" fill="black"/>
<ellipse cx="150.729" cy="78.1432" rx="5.93311" ry="11.6083" fill="white"/>
<ellipse cx="150.729" cy="78.1432" rx="5.93311" ry="11.6083" fill="black"/>
<ellipse cx="167.755" cy="78.1432" rx="5.93311" ry="11.6083" fill="white"/>
<ellipse cx="167.755" cy="78.1432" rx="5.93311" ry="11.6083" fill="black"/>
</svg>
