<svg width="274" height="247" viewBox="0 0 274 247" fill="none" xmlns="http://www.w3.org/2000/svg">
<path fill-rule="evenodd" clip-rule="evenodd" d="M61.2613 0.263386C66.9161 1.54857 70.4583 7.17452 69.1731 12.8293C67.527 20.0725 65.1075 31.3327 63.2063 41.5273C62.2537 46.6349 61.4515 51.3676 60.9392 55.1493C60.6909 56.9819 60.5241 58.4949 60.4363 59.6651C60.9187 60.1645 61.5721 60.7924 62.4255 61.5491C65.2318 64.0375 69.2688 67.1039 74.0125 70.4302C83.4408 77.0413 94.7342 84.0359 102.249 88.4469L111.305 93.762L105.002 104.5L106.206 113.048L95.8082 114.512C86.8313 115.776 73.0415 117.391 60.8027 118.116C54.7194 118.476 48.7335 118.635 43.8152 118.365C41.3788 118.232 38.8846 117.978 36.6354 117.484C34.8906 117.101 31.2523 116.183 28.4183 113.403C26.1203 111.149 23.706 107.295 21.7677 104.032C19.5635 100.322 17.0667 95.7708 14.5665 91.0413C9.55615 81.5638 4.32718 70.9818 1.03502 64.1176C-1.47275 58.8889 0.733002 52.6173 5.96171 50.1095C11.1904 47.6017 17.4621 49.8075 19.9698 55.0362C23.182 61.7336 28.2851 72.0585 33.1319 81.2266C35.5601 85.82 37.8732 90.0261 39.8222 93.3072C40.7668 94.8971 41.5764 96.186 42.2349 97.1573C42.9232 97.2487 43.8254 97.3345 44.9642 97.3969C48.7092 97.6022 53.7776 97.4953 59.5612 97.1528C64.3549 96.8689 69.4442 96.4356 74.3747 95.9388C70.1964 93.2495 65.9371 90.416 61.956 87.6244C56.9664 84.1257 52.1784 80.5296 48.493 77.2617C46.6672 75.6428 44.8711 73.8938 43.4161 72.1089C42.2873 70.7243 40.0077 67.7438 39.5153 63.8046C39.1161 60.6105 39.6198 56.0911 40.1293 52.3302C40.7087 48.0536 41.5814 42.9363 42.5622 37.6773C44.5276 27.1386 47.0082 15.5988 48.6954 8.17526C49.9805 2.52047 55.6065 -1.02179 61.2613 0.263386ZM59.4298 58.48C59.4357 58.4812 59.4831 58.5437 59.5541 58.664C59.4594 58.539 59.4239 58.4789 59.4298 58.48ZM111.599 243.447C115.948 239.61 116.363 232.975 112.527 228.626C107.613 223.056 100.097 214.33 93.5458 206.291C90.2636 202.263 87.293 198.492 85.0322 195.418C83.9367 193.928 83.0657 192.68 82.4282 191.694C82.6125 191.025 82.8855 190.161 83.2723 189.088C84.5442 185.559 86.6197 180.934 89.1912 175.742C94.3022 165.424 100.867 153.875 105.352 146.404L110.756 137.401L100.081 130.993L95.17 119.418L85.5041 123.519C77.1588 127.06 64.5077 132.78 53.6445 138.464C48.2449 141.289 43.0327 144.237 38.9561 147.001C36.9366 148.371 34.9297 149.873 33.2564 151.456C31.9583 152.683 29.3129 155.344 28.316 159.187C27.5076 162.302 27.4236 166.849 27.4432 170.644C27.4655 174.96 27.6702 180.147 27.9637 185.489C28.5518 196.193 29.5215 207.956 30.236 215.536C30.7802 221.309 35.9017 225.548 41.6751 225.004C47.4485 224.46 51.6875 219.338 51.1433 213.565C50.4462 206.17 49.501 194.691 48.932 184.337C48.647 179.149 48.4626 174.352 48.4429 170.536C48.4333 168.687 48.4632 167.165 48.5273 165.993C49.0702 165.56 49.7992 165.022 50.7431 164.382C53.8472 162.276 58.2464 159.757 63.3799 157.071C68.5271 154.378 74.1576 151.649 79.5037 149.17C76.4146 154.709 73.2014 160.711 70.373 166.422C67.6683 171.883 65.1871 177.332 63.5167 181.966C62.6892 184.262 61.9499 186.657 61.5274 188.921C61.1995 190.677 60.6256 194.385 62.0798 198.079C63.2589 201.074 65.8653 204.8 68.1137 207.858C70.6703 211.335 73.8871 215.409 77.2665 219.557C84.0387 227.867 91.7426 236.81 96.7787 242.519C100.615 246.867 107.25 247.283 111.599 243.447ZM82.1121 193.217C82.1168 193.213 82.1284 193.135 82.1331 192.996C82.1099 193.151 82.1075 193.22 82.1121 193.217ZM40.7099 96.8545C40.7152 96.8518 40.7911 96.8713 40.9216 96.9214C40.7698 96.8823 40.7045 96.8573 40.7099 96.8545ZM47.3762 167.038C47.3822 167.038 47.4372 166.982 47.5232 166.872C47.4132 166.983 47.3702 167.038 47.3762 167.038ZM211.892 0.263386C206.237 1.54857 202.695 7.17452 203.98 12.8293C205.626 20.0725 208.045 31.3327 209.947 41.5273C210.899 46.6349 211.701 51.3676 212.214 55.1493C212.462 56.9819 212.629 58.4949 212.717 59.6651C212.234 60.1645 211.581 60.7924 210.727 61.5491C207.921 64.0375 203.884 67.1039 199.14 70.4302C189.712 77.0413 178.419 84.0359 170.904 88.4469L161.848 93.762L168.151 104.5L166.947 113.048L177.345 114.512C186.322 115.776 200.111 117.391 212.35 118.116C218.434 118.476 224.419 118.635 229.338 118.365C231.774 118.232 234.268 117.978 236.518 117.484C238.262 117.101 241.901 116.183 244.735 113.403C247.033 111.149 249.447 107.295 251.385 104.032C253.589 100.322 256.086 95.7708 258.586 91.0413C263.597 81.5638 268.826 70.9818 272.118 64.1176C274.626 58.8889 272.42 52.6173 267.191 50.1095C261.963 47.6017 255.691 49.8075 253.183 55.0362C249.971 61.7336 244.868 72.0585 240.021 81.2266C237.593 85.82 235.28 90.0261 233.331 93.3072C232.386 94.8971 231.577 96.186 230.918 97.1573C230.23 97.2487 229.328 97.3345 228.189 97.3969C224.444 97.6022 219.375 97.4953 213.592 97.1528C208.798 96.8689 203.709 96.4356 198.778 95.9388C202.957 93.2495 207.216 90.416 211.197 87.6244C216.187 84.1257 220.975 80.5296 224.66 77.2617C226.486 75.6428 228.282 73.8938 229.737 72.1089C230.866 70.7243 233.145 67.7438 233.638 63.8046C234.037 60.6105 233.533 56.0911 233.024 52.3302C232.444 48.0536 231.572 42.9363 230.591 37.6773C228.625 27.1386 226.145 15.5988 224.458 8.17526C223.172 2.52047 217.546 -1.02179 211.892 0.263386ZM213.723 58.48C213.717 58.4812 213.67 58.5437 213.599 58.664C213.694 58.539 213.729 58.4789 213.723 58.48ZM161.554 243.447C157.205 239.61 156.79 232.975 160.626 228.626C165.54 223.056 173.056 214.33 179.607 206.291C182.889 202.263 185.86 198.492 188.121 195.418C189.216 193.928 190.087 192.68 190.725 191.694C190.54 191.025 190.267 190.161 189.881 189.088C188.609 185.559 186.533 180.934 183.962 175.742C178.851 165.424 172.286 153.875 167.801 146.404L162.397 137.401L173.072 130.993L177.983 119.418L187.649 123.519C195.994 127.06 208.645 132.78 219.508 138.464C224.908 141.289 230.12 144.237 234.197 147.001C236.216 148.371 238.223 149.873 239.897 151.456C241.195 152.683 243.84 155.344 244.837 159.187C245.645 162.302 245.729 166.849 245.71 170.644C245.687 174.96 245.483 180.147 245.189 185.489C244.601 196.193 243.631 207.956 242.917 215.536C242.373 221.309 237.251 225.548 231.478 225.004C225.704 224.46 221.465 219.338 222.01 213.565C222.707 206.17 223.652 194.691 224.221 184.337C224.506 179.149 224.69 174.352 224.71 170.536C224.72 168.687 224.69 167.165 224.626 165.993C224.083 165.56 223.354 165.022 222.41 164.382C219.306 162.276 214.907 159.757 209.773 157.071C204.626 154.378 198.995 151.649 193.649 149.17C196.738 154.709 199.952 160.711 202.78 166.422C205.485 171.883 207.966 177.332 209.636 181.966C210.464 184.262 211.203 186.657 211.626 188.921C211.953 190.677 212.527 194.385 211.073 198.079C209.894 201.074 207.288 204.8 205.039 207.858C202.483 211.335 199.266 215.409 195.886 219.557C189.114 227.867 181.41 236.81 176.374 242.519C172.538 246.867 165.903 247.283 161.554 243.447ZM191.041 193.217C191.036 193.213 191.025 193.135 191.02 192.996C191.043 193.151 191.045 193.22 191.041 193.217ZM232.443 96.8545C232.438 96.8518 232.362 96.8713 232.231 96.9214C232.383 96.8823 232.448 96.8573 232.443 96.8545ZM225.777 167.038C225.771 167.038 225.716 166.982 225.63 166.872C225.74 166.983 225.783 167.038 225.777 167.038Z" fill="black"/>
</svg>
