<svg width="112" height="158" viewBox="0 0 112 158" fill="none" xmlns="http://www.w3.org/2000/svg">
<path fill-rule="evenodd" clip-rule="evenodd" d="M85.8055 108.958C101.543 98.5139 112 80.0435 112 59C112 26.4152 86.9279 0 56 0C25.0721 0 0 26.4152 0 59C0 80.0435 10.4568 98.5139 26.1945 108.958C24.1464 113.515 23 118.616 23 124C23 140.021 33.149 153.527 47 157.682V144C47 141.239 49.2386 139 52 139H60C62.7614 139 65 141.239 65 144V157.682C78.851 153.527 89 140.021 89 124C89 118.616 87.8536 113.515 85.8055 108.958Z" fill="black"/>
</svg>
