<svg width="308" height="244" viewBox="0 0 308 244" fill="none" xmlns="http://www.w3.org/2000/svg">
<path d="M231.016 214.833C226.789 213.335 222.971 211.36 219.562 208.909C216.29 206.593 213.563 204.006 211.381 201.146C209.336 198.286 207.904 195.29 207.086 192.157C206.405 189.025 206.609 186.029 207.7 183.169C208.654 180.309 210.359 177.858 212.813 175.815C215.267 173.772 218.199 172.274 221.608 171.321C225.153 170.367 228.97 170.027 233.061 170.299C237.152 170.435 241.31 171.184 245.537 172.546C249.764 174.044 253.514 176.019 256.786 178.471C260.195 180.786 262.922 183.373 264.967 186.233C267.149 189.093 268.58 192.089 269.262 195.222C269.944 198.354 269.807 201.35 268.853 204.21C267.898 207.07 266.194 209.453 263.74 211.36C261.285 213.403 258.286 214.901 254.741 215.854C251.332 216.944 247.582 217.42 243.492 217.284C239.401 217.148 235.243 216.331 231.016 214.833ZM270.285 167.031C266.739 164.579 262.649 162.605 258.013 161.107C253.514 159.472 248.673 158.451 243.492 158.042C238.447 157.634 233.606 157.838 228.971 158.655C224.471 159.336 220.312 160.562 216.494 162.332L227.334 20.9694L287.874 18.518L270.285 167.031Z" fill="black"/>
<path fill-rule="evenodd" clip-rule="evenodd" d="M262.214 182.962C263.239 184.009 264.156 185.1 264.967 186.233C267.149 189.093 268.58 192.089 269.262 195.222C269.944 198.354 269.807 201.35 268.853 204.21C267.898 207.07 266.194 209.453 263.74 211.36C261.285 213.403 258.286 214.901 254.741 215.854C251.332 216.944 247.582 217.42 243.492 217.284C239.401 217.148 235.243 216.331 231.016 214.833C226.789 213.335 222.971 211.36 219.562 208.909C216.29 206.593 213.563 204.006 211.381 201.146C209.336 198.286 207.904 195.29 207.086 192.157C206.649 190.149 206.576 188.196 206.868 186.299C207.031 185.238 207.309 184.195 207.7 183.169C208.654 180.309 210.359 177.858 212.813 175.815C215.066 173.94 217.72 172.524 220.777 171.567C221.051 171.481 221.327 171.399 221.608 171.321C224.467 170.552 227.505 170.181 230.719 170.21C230.815 170.211 230.911 170.212 231.008 170.214C231.684 170.225 232.369 170.253 233.061 170.299C236.132 170.402 239.242 170.849 242.39 171.643C242.4 171.645 242.409 171.647 242.419 171.65C243.454 171.911 244.493 172.21 245.537 172.546C248.093 173.452 250.474 174.532 252.681 175.787C252.847 175.881 253.013 175.977 253.177 176.073C254.438 176.814 255.641 177.613 256.786 178.471C258.104 179.365 259.319 180.301 260.433 181.277C261.059 181.826 261.653 182.387 262.214 182.962ZM285.62 187.983L307.884 0L210.896 3.92727L198.548 164.96C195.24 168.411 192.662 172.517 191.037 177.214C188.78 183.335 188.447 189.716 189.798 195.92L189.875 196.276L189.967 196.629C191.377 202.025 193.796 206.972 196.99 211.438L197.148 211.66L197.314 211.877C200.685 216.296 204.739 220.087 209.286 223.312C214.126 226.784 219.432 229.499 225.105 231.51C230.881 233.557 236.833 234.765 242.903 234.968C248.594 235.157 254.26 234.526 259.731 232.832C265.141 231.327 270.306 228.855 274.833 225.145C279.837 221.187 283.573 215.994 285.636 209.811C287.662 203.74 287.865 197.497 286.55 191.459C286.293 190.276 285.982 189.117 285.62 187.983ZM234.574 157.973C237.472 157.772 240.445 157.796 243.492 158.042C245.701 158.217 247.849 158.502 249.934 158.899C250.071 158.926 250.209 158.952 250.345 158.979C251.359 159.18 252.357 159.407 253.341 159.661C254.937 160.073 256.494 160.555 258.013 161.107C260.975 162.064 263.715 163.216 266.232 164.562C266.464 164.686 266.694 164.812 266.922 164.939C268.093 165.593 269.214 166.29 270.285 167.031L287.874 18.518L227.334 20.9694L216.494 162.332C217.255 161.98 218.029 161.649 218.816 161.339C218.848 161.327 218.881 161.314 218.913 161.301C222.052 160.077 225.404 159.195 228.971 158.655C230.449 158.395 231.948 158.196 233.468 158.06C233.605 158.048 233.742 158.037 233.878 158.025C234.11 158.006 234.342 157.989 234.574 157.973Z" fill="white"/>
<path fill-rule="evenodd" clip-rule="evenodd" d="M126.154 104.299C124.863 104.447 123.548 104.598 122.207 104.753L124.671 224.612L161.936 228.448L162.552 200.824C171.176 199.187 178.927 196.424 185.805 192.537C192.786 188.546 198.791 183.891 203.821 178.571C208.954 173.148 213.061 167.317 216.14 161.076C219.22 154.732 221.273 148.491 222.3 142.352C223.327 136.111 223.224 130.177 221.992 124.55C220.76 118.821 218.348 113.91 214.755 109.817C211.264 105.725 206.491 102.655 200.434 100.609C194.479 98.4604 187.191 97.8465 178.567 98.7673L165.016 100.149C156.603 100.911 143.649 102.294 126.154 104.299ZM163.674 86.2128L176.936 84.8611L177.081 84.8465C177.092 84.8452 177.104 84.844 177.115 84.8428M177.115 84.8428C187.044 83.7863 196.546 84.3534 205.047 87.3905C212.959 90.0846 219.961 94.3794 225.341 100.655C230.584 106.654 233.984 113.742 235.673 121.579C237.315 129.092 237.399 136.815 236.114 144.625L236.111 144.643L236.108 144.662C234.834 152.282 232.323 159.8 228.735 167.19L228.715 167.231L228.695 167.271C224.953 174.854 220.017 181.825 213.994 188.189C207.931 194.602 200.811 200.085 192.752 204.691L192.723 204.708L192.694 204.724C187.554 207.63 182.082 209.976 176.311 211.792L175.595 243.928L110.928 237.271L110.722 227.233C108.68 229.231 106.463 231.078 104.086 232.777L104.063 232.794L104.039 232.811C97.4209 237.501 89.6276 240.435 81.1635 242.047C69.3114 244.318 58.1436 244.745 48.0677 242.603C38.3793 240.543 29.6816 236.517 22.5484 230.133L22.4949 230.085L22.4419 230.037C15.5966 223.783 10.7562 215.993 7.80853 207.046L7.79894 207.017L7.78948 206.988C4.99875 198.391 3.80541 189.229 4.02565 179.632V178.264C4.02565 176.981 4.08534 174.606 4.18652 171.38C4.2861 168.203 4.38744 163.676 4.48971 157.764C4.59396 151.738 4.80147 143.736 5.11031 133.784C5.41787 123.873 5.77686 111.811 6.18732 97.5959L6.65404 81.4321L78.8907 94.0183L78.8133 95.4132L125.467 86.8346L125.602 90.2705C142.548 88.3327 155.262 86.9762 163.674 86.2128M18.0256 179.799C17.8203 188.086 18.8469 195.708 21.1054 202.666C23.3639 209.52 26.957 215.199 31.8846 219.701C36.9149 224.202 43.2798 227.272 50.9792 228.909C58.6787 230.546 67.8666 230.341 78.5432 228.295C85.524 226.965 91.3243 224.663 95.9439 221.389C100.666 218.012 104.362 214.022 107.031 209.418C108.268 207.318 109.331 205.116 110.22 202.813C111.324 199.954 112.16 196.937 112.729 193.764C113.755 188.035 114.217 182.05 114.115 175.809V173.353C114.115 171.716 114.063 168.34 113.961 163.224C113.858 158.109 113.653 150.793 113.345 141.278C113.205 134.82 112.971 126.948 112.643 117.662C112.502 113.687 112.344 109.452 112.169 104.959C112.15 104.484 112.132 104.006 112.113 103.525L70.3818 111.198L73.6156 170.13C73.7667 173.294 73.7231 176.097 73.4847 178.54C73.4417 178.981 73.3923 179.411 73.3365 179.829C73.2817 180.239 73.2207 180.639 73.1536 181.026C73.1277 181.176 73.1017 181.324 73.0758 181.469C73.0652 181.529 73.0547 181.587 73.0441 181.646C73.0029 181.874 72.9617 182.097 72.9205 182.314C72.8631 182.616 72.8058 182.907 72.7485 183.187C72.3702 185.037 71.992 186.414 71.6137 187.319C71.1004 188.444 70.7924 189.058 70.6898 189.16C69.0472 191.82 67.5587 193.048 66.2241 192.844C64.8895 192.639 63.709 191.974 62.6824 190.848C62.5797 190.746 62.2717 190.235 61.7584 189.314C61.2451 188.393 60.7318 186.909 60.2185 184.863C60.0698 184.122 59.9749 183.341 59.934 182.519C59.9325 182.491 59.9312 182.462 59.9299 182.434C59.9232 182.285 59.9182 182.135 59.915 181.983C59.9075 181.631 59.9095 181.271 59.9211 180.904C59.9286 180.664 59.9403 180.42 59.956 180.173C59.9579 180.144 59.9598 180.115 59.9617 180.087C59.9908 179.656 60.0324 179.215 60.0863 178.766C60.1242 178.45 60.1683 178.129 60.2185 177.804L64.2222 105.673L20.1815 98C20.0378 102.976 19.9004 107.689 19.7693 112.139C19.5257 120.407 19.3038 127.767 19.1036 134.219C18.7956 144.143 18.5903 152.072 18.4876 158.006C18.385 163.94 18.2823 168.544 18.1796 171.818C18.077 175.092 18.0256 177.241 18.0256 178.264V179.799ZM181.031 146.496C180.826 147.417 180.21 148.696 179.183 150.333C178.157 151.867 176.719 153.504 174.872 155.244C174.248 155.831 173.572 156.406 172.843 156.969C171.412 158.076 169.779 159.138 167.942 160.155C165.273 161.689 162.09 162.866 158.395 163.685L159.935 139.13C164.862 137.186 168.763 136.214 171.638 136.214C174.615 136.111 176.771 136.572 178.105 137.595C179.44 138.516 180.312 139.692 180.723 141.125C181.134 142.557 181.288 143.785 181.185 144.808C181.082 145.831 181.031 146.394 181.031 146.496Z" fill="white"/>
<path d="M112.113 103.525C112.729 119.179 113.139 131.763 113.345 141.278C113.653 150.793 113.858 158.109 113.961 163.224C114.063 168.34 114.115 171.716 114.115 173.353C114.115 174.99 114.115 175.809 114.115 175.809C114.217 182.05 113.755 188.035 112.729 193.764C111.702 199.494 109.803 204.712 107.031 209.418C104.362 214.022 100.666 218.012 95.9439 221.389C91.3243 224.663 85.524 226.965 78.5432 228.295C67.8667 230.341 58.6787 230.546 50.9792 228.909C43.2798 227.272 36.9149 224.202 31.8846 219.701C26.957 215.199 23.3639 209.52 21.1054 202.666C18.8469 195.708 17.8203 188.086 18.0257 179.799C18.0257 179.696 18.0257 179.185 18.0257 178.264C18.0257 177.241 18.077 175.092 18.1797 171.818C18.2823 168.544 18.385 163.94 18.4876 158.006C18.5903 152.072 18.7956 144.143 19.1036 134.219C19.4116 124.294 19.7709 112.221 20.1815 98L64.2223 105.673L60.2186 177.804C59.8079 180.464 59.8079 182.817 60.2186 184.863C60.7319 186.909 61.2452 188.393 61.7584 189.314C62.2717 190.235 62.5797 190.746 62.6824 190.848C63.709 191.974 64.8895 192.639 66.2241 192.844C67.5587 193.048 69.0472 191.82 70.6898 189.16C70.7924 189.058 71.1004 188.444 71.6137 187.319C72.127 186.091 72.6403 183.994 73.1536 181.026C73.6669 178.059 73.8209 174.427 73.6156 170.13L70.3818 111.198L112.113 103.525Z" fill="black"/>
<path d="M178.567 98.7673C187.191 97.8465 194.479 98.4604 200.434 100.609C206.491 102.655 211.264 105.725 214.755 109.817C218.348 113.91 220.76 118.821 221.992 124.55C223.224 130.177 223.327 136.111 222.3 142.352C221.273 148.491 219.22 154.732 216.141 161.076C213.061 167.317 208.954 173.148 203.821 178.571C198.791 183.891 192.786 188.546 185.805 192.537C178.927 196.424 171.176 199.187 162.552 200.824L161.936 228.448L124.671 224.612L122.207 104.753C141.713 102.502 155.982 100.967 165.016 100.149C174.05 99.2277 178.567 98.7673 178.567 98.7673ZM181.031 146.496C181.031 146.394 181.082 145.831 181.185 144.808C181.288 143.785 181.134 142.557 180.723 141.125C180.312 139.692 179.44 138.516 178.105 137.595C176.771 136.572 174.615 136.111 171.638 136.214C168.763 136.214 164.862 137.186 159.935 139.13L158.395 163.685C162.09 162.866 165.273 161.689 167.942 160.155C170.714 158.62 173.024 156.983 174.872 155.244C176.719 153.504 178.157 151.867 179.183 150.333C180.21 148.696 180.826 147.417 181.031 146.496Z" fill="black"/>
<path fill-rule="evenodd" clip-rule="evenodd" d="M52.681 86.473L68.7105 85.1177L69.5422 41.673L52.681 43.0283V86.473ZM69.013 36.4777L69.9203 23.2259L52.6054 23.9788L52.5298 37.6824L69.013 36.4777ZM51.359 23L10.5293 26.4636L9.99999 44.9859L19.9806 44.0071L18.8464 87L40.3199 84.3647V41.9741L49.3932 40.92L51.359 23ZM43.681 93.0198L9.57409 97.2055L10.7149 53.959L0.711884 54.94L1.76244 18.1749L61.4983 13.1076L61.3356 14.5907L79.5869 13.797L78.345 31.9364L78.7309 31.9054L78.7148 32.7471L99.2359 30.944V32.0676C100.557 31.8645 101.896 31.7694 103.241 31.7694C106.44 31.7694 109.789 32.26 112.887 33.7158C113.172 33.8427 113.452 33.9757 113.727 34.1146C113.81 34.0729 113.893 34.0315 113.977 33.9906C116.982 32.4701 120.211 31.7694 123.505 31.7694C126.783 31.7694 130.071 32.3431 133.152 33.7575C136.027 35.0081 138.568 36.843 140.628 39.2718C143.327 36.827 146.409 34.9258 149.825 33.5971C153.695 32.0617 157.766 31.3177 161.962 31.3177C167.814 31.3177 173.33 32.649 178.234 35.5231C178.274 35.2846 178.314 35.0479 178.352 34.8128L178.375 34.6734L178.402 34.5347C178.686 33.0708 178.917 31.7563 179.098 30.5859L180.276 22.96H200.029L205.323 31.2441L204.937 32.7395C208.226 31.7239 211.777 31.3177 215.424 31.3177C216.924 31.3177 218.422 31.3774 219.919 31.4967C221.362 31.6116 222.77 31.7846 224.135 32.0236C225.32 32.1818 226.462 32.3693 227.551 32.5912C228.554 32.7522 229.505 32.9289 230.369 33.1275L237.354 34.7325V61.367C237.501 61.6264 237.644 61.8884 237.781 62.1527C239.475 65.4207 240 69.0234 240 72.393C240 76.4171 239.098 80.5018 236.715 84.1C234.725 87.1762 232.065 89.6085 228.905 91.3832L228.871 91.4025L228.837 91.4214C225.931 93.0206 222.755 94.0585 219.432 94.6541C216.355 95.2055 213.201 95.473 209.98 95.473C207.507 95.473 205.052 95.3263 202.62 95.0309L202.606 95.0292L202.593 95.0276C200.147 94.7231 197.701 94.2397 195.257 93.5868L188.58 91.8029V87.3169L188.384 87.458C184.618 90.1628 180.608 92.2374 176.356 93.5606L176.295 93.5797L176.233 93.5978C172.006 94.8475 167.414 95.3977 162.567 95.3977C158.113 95.3977 153.809 94.6437 149.76 93.0169L149.671 92.9812L149.583 92.9436C148.773 92.5981 147.982 92.2253 147.208 91.8249L147.23 93.1681L112.526 96.0347L112.558 94.1084L100.844 95.076L100.874 96.1469L94.483 95.6014L89.2925 96.0302L89.3022 95.1592L73.1139 93.7775L43.681 96.266V93.0198ZM91.5969 86.3224L90.8408 59.1412C90.8383 59.0863 90.8369 59.032 90.8365 58.9784C90.8357 58.8737 90.839 58.7713 90.8463 58.6713C90.9059 57.856 91.2336 57.1977 91.8295 56.6965C91.8763 56.6571 91.9248 56.6187 91.975 56.5812C92.8319 55.9789 93.7392 55.6777 94.697 55.6777C95.0162 55.6777 95.3196 55.7004 95.6073 55.7458C96.4097 55.8726 97.0892 56.1761 97.6458 56.6565C98.3292 57.201 98.6832 57.9095 98.7077 58.7821C98.709 58.8284 98.7094 58.8751 98.7088 58.9223C98.7083 58.9697 98.7068 59.0176 98.7043 59.0659L98.4019 86.2471L114.809 84.8918L114.356 59.1412C114.356 59.0657 114.359 58.9904 114.365 58.9153C114.369 58.8723 114.373 58.8293 114.379 58.7864C114.468 58.1084 114.813 57.4486 115.414 56.8071C116.12 56.0541 117.078 55.6777 118.288 55.6777C119.447 55.6777 120.379 55.9789 121.085 56.5812C121.791 57.1836 122.144 57.9616 122.144 58.9153L121.69 86.2471L138.098 84.8918L137.644 56.2047C137.615 54.9655 137.486 53.7758 137.258 52.6358C137.089 51.7903 136.864 50.9721 136.585 50.1812C136.15 48.8089 135.558 47.5665 134.81 46.4541C134.518 46.0202 134.203 45.6061 133.863 45.2118C132.704 43.8063 131.242 42.7271 129.478 41.9741C127.764 41.171 125.773 40.7694 123.505 40.7694C121.488 40.7694 119.648 41.1961 117.985 42.0494C117.307 42.377 116.658 42.7505 116.038 43.1699C115.138 43.7788 114.3 44.4845 113.524 45.2871C112.864 44.5029 112.165 43.827 111.427 43.2595C110.702 42.701 109.939 42.2474 109.139 41.8989C107.576 41.1459 105.61 40.7694 103.241 40.7694C101.805 40.7694 100.47 40.9261 99.2359 41.2394C98.0001 41.5532 96.8651 42.0239 95.8311 42.6518C93.9841 43.7554 92.3063 45.2591 90.7977 47.1629C90.7656 47.2034 90.7336 47.2441 90.7017 47.2849C90.596 47.4201 90.4912 47.5573 90.3872 47.6965H90.2359V40.7694L74.8114 42.1247L75.7187 84.9671L91.5969 86.3224ZM145.162 47.453C145.158 47.4569 145.155 47.4609 145.151 47.4648C143.449 49.3582 142.071 51.5938 141.018 54.1718C140.757 54.81 140.525 55.4668 140.32 56.1422C140.318 56.149 140.316 56.1558 140.314 56.1625C139.574 58.6163 139.203 61.3158 139.203 64.2612C139.203 67.273 139.783 70.1341 140.942 72.8447C142.102 75.5051 143.715 77.8392 145.781 79.8471C146.185 80.2396 146.604 80.6167 147.037 80.9785C148.818 82.4676 150.845 83.6967 153.116 84.6659C155.989 85.8204 159.139 86.3977 162.567 86.3977C166.751 86.3977 170.456 85.9208 173.682 84.9671C174.193 84.8078 174.703 84.6335 175.211 84.4439C176.26 84.0525 177.3 83.5966 178.333 83.076C179.953 82.2592 181.553 81.2832 183.133 80.1483L175.648 67.8753C174.337 69.0298 172.875 70.0338 171.262 70.8871C170.763 71.1436 170.226 71.3591 169.65 71.5337C168.422 71.9057 167.018 72.0918 165.44 72.0918C164.684 72.0918 163.852 72.0416 162.945 71.9412C162.069 71.8442 161.357 71.6536 160.81 71.3692C160.79 71.3592 160.771 71.3491 160.752 71.3389L183.36 54.3977C182.602 52.6149 181.676 50.9811 180.584 49.4962C179.349 47.8188 177.901 46.3314 176.24 45.0343C175.853 44.7317 175.453 44.4395 175.043 44.1577C171.363 41.5977 167.003 40.3177 161.962 40.3177C158.837 40.3177 155.888 40.8698 153.116 41.9741C150.394 43.0283 147.999 44.5843 145.933 46.6424C145.67 46.9044 145.413 47.1738 145.164 47.4505C145.163 47.4513 145.163 47.4522 145.162 47.453ZM155.66 63.908C155.669 63.9253 155.678 63.9426 155.686 63.96L166.952 55.4518C166.951 55.4507 166.951 55.4495 166.95 55.4484C166.245 54.5969 165.464 54.0208 164.609 53.72C163.802 53.4189 162.869 53.2683 161.811 53.2683C160.803 53.2683 159.87 53.4941 159.013 53.9459C158.207 54.3475 157.501 54.9247 156.896 55.6777C156.291 56.3804 155.812 57.1836 155.46 58.0871C155.157 58.9906 155.006 59.9192 155.006 60.873C155.006 61.7765 155.056 62.429 155.157 62.8306C155.302 63.1668 155.47 63.5259 155.66 63.908ZM188.58 61.7325L184.368 64.8888L188.58 71.7947V61.7325ZM199.552 62.01C199.7 62.2097 199.851 62.4021 200.007 62.5871C200.386 63.0383 200.787 63.4458 201.209 63.8094C201.745 64.2272 202.303 64.6021 202.882 64.934C202.896 64.9418 202.91 64.9496 202.923 64.9574C203.584 65.3332 204.273 65.6533 204.99 65.9177C204.99 65.9178 204.991 65.9179 204.991 65.9181C205.406 66.0557 205.809 66.1886 206.2 66.3169C206.855 66.5317 207.477 66.7334 208.066 66.9221C208.176 66.9573 208.285 66.992 208.392 67.0263C208.494 67.0587 208.595 67.0908 208.695 67.1224C208.832 67.164 208.967 67.206 209.099 67.2484C209.221 67.2877 209.341 67.3274 209.458 67.3673C209.481 67.375 209.504 67.3827 209.526 67.3904C209.608 67.4186 209.689 67.4469 209.768 67.4754C210.459 67.7229 211.059 67.9816 211.568 68.2518C212.375 68.6032 212.778 69.1553 212.778 69.9083C212.778 70.5106 212.551 70.9624 212.097 71.2636C211.694 71.5647 211.165 71.7906 210.51 71.9412C210.324 71.972 210.128 72.0005 209.923 72.0266C209.799 72.0425 209.671 72.0575 209.539 72.0716C209.183 72.1099 208.801 72.1417 208.392 72.1671H206.2C205.487 72.1671 204.794 72.1426 204.121 72.0936C203.733 72.0654 203.351 72.029 202.976 71.9845C202.905 71.976 202.833 71.9672 202.762 71.9581C202.389 71.9104 202.023 71.8546 201.663 71.7906C200.302 71.5396 198.941 71.2134 197.58 70.8118V84.8918C199.647 85.444 201.688 85.8455 203.705 86.0965C205.771 86.3475 207.863 86.473 209.98 86.473C212.702 86.473 215.323 86.2471 217.844 85.7953C220.364 85.3436 222.582 84.5906 224.497 83.5365C226.463 82.4322 228.026 80.9765 229.185 79.1694C230.395 77.3624 231 75.1036 231 72.393C231 69.8832 230.597 67.8502 229.79 66.2941C229.445 65.6271 229.062 65.0201 228.642 64.473C228.082 63.7437 227.457 63.121 226.766 62.6047C226.712 62.5605 226.658 62.5167 226.604 62.4734C225.682 61.7392 224.682 61.145 223.604 60.6908C223.376 60.5946 223.145 60.5048 222.91 60.4212C222.814 60.3874 222.72 60.3539 222.626 60.3207C221.967 60.089 221.331 59.874 220.717 59.6757C220.363 59.5613 220.016 59.4525 219.677 59.3492C219.544 59.3086 219.411 59.2689 219.28 59.23C219.179 59.1999 219.078 59.1703 218.978 59.1412C218.766 59.077 218.56 59.0119 218.36 58.946C218.235 58.9049 218.112 58.8635 217.992 58.8217C217.935 58.802 217.879 58.7822 217.823 58.7623C217.151 58.5227 216.553 58.2725 216.029 58.0118C215.223 57.6102 214.819 57.0079 214.819 56.2047C214.819 55.7028 215.071 55.3012 215.575 55C216.079 54.6988 216.659 54.4981 217.314 54.3977C217.504 54.354 217.694 54.3167 217.884 54.2857C218.35 54.2098 218.815 54.1718 219.28 54.1718C219.305 54.1699 219.329 54.168 219.354 54.1662C219.803 54.1325 220.165 54.1109 220.442 54.1017C220.464 54.101 220.485 54.1003 220.506 54.0997C220.584 54.0976 220.654 54.0965 220.717 54.0965C221.705 54.0965 222.644 54.1457 223.533 54.2442C223.914 54.2863 224.286 54.3375 224.649 54.3977C224.775 54.4187 224.902 54.4402 225.029 54.4623C226.117 54.6515 227.225 54.8809 228.354 55.1506V41.8989C227.698 41.7483 226.892 41.5977 225.934 41.4471C224.976 41.2463 223.918 41.0706 222.758 40.92C221.649 40.7192 220.465 40.5687 219.205 40.4683C217.945 40.3679 216.684 40.3177 215.424 40.3177C212.148 40.3177 209.35 40.7192 207.031 41.5224C204.713 42.3255 202.822 43.3796 201.361 44.6847C201.293 44.7451 201.226 44.8058 201.16 44.8669C200.233 45.7257 199.476 46.6484 198.891 47.6349C198.874 47.6638 198.857 47.6927 198.84 47.7217C198.589 48.1529 198.371 48.5963 198.185 49.0518C197.53 50.6581 197.202 52.2894 197.202 53.9459C197.202 53.9678 197.202 53.9896 197.202 54.0114C197.202 54.1377 197.204 54.2628 197.206 54.3867C197.248 56.6948 197.625 58.5808 198.336 60.0447C198.709 60.7642 199.114 61.4193 199.552 62.01ZM195.541 33.1262C195.571 33.0129 195.6 32.9003 195.629 32.7883L195.1 31.96H187.992C187.792 33.2592 187.541 34.6826 187.24 36.2305C187.239 36.2376 187.238 36.2447 187.236 36.2518C186.984 37.8079 186.682 39.4141 186.329 41.0706C186.308 41.1828 186.286 41.2949 186.265 41.4071C186.223 41.6225 186.181 41.8379 186.138 42.0534C186.114 42.17 186.09 42.2866 186.066 42.4032C186.061 42.4279 186.056 42.4527 186.051 42.4775C185.816 43.6148 185.556 44.7521 185.27 45.8894C185.078 46.7656 184.885 47.6119 184.693 48.4283C184.533 49.1087 184.372 49.7682 184.212 50.4071H189.126C189.489 49.5958 189.851 48.7643 190.213 47.9125C190.312 47.6783 190.412 47.4425 190.511 47.2052C190.532 47.1551 190.554 47.1049 190.575 47.0546C190.706 46.7415 190.837 46.4258 190.968 46.1074C191.16 45.6389 191.353 45.1647 191.546 44.6847C191.866 43.9164 192.175 43.148 192.474 42.3796C192.493 42.3324 192.511 42.2852 192.529 42.238C192.694 41.812 192.856 41.386 193.014 40.96C193.135 40.6346 193.255 40.3091 193.372 39.9837C193.549 39.4927 193.722 39.0016 193.89 38.5106C193.995 38.2053 194.097 37.9032 194.196 37.6045C194.219 37.5329 194.243 37.4616 194.266 37.3905C194.571 36.4652 194.849 35.572 195.1 34.711C195.257 34.1701 195.404 33.6418 195.541 33.1262Z" fill="white"/>
<path d="M49.3932 40.92L40.3199 41.9741V84.3647L18.8465 87L19.9806 44.0071L10 44.9859L10.5293 26.4635L51.359 23L49.3932 40.92Z" fill="black"/>
<path d="M52.6811 43.0282L69.5422 41.6729L68.7105 85.1176L52.6811 86.4729V43.0282ZM52.6054 23.9788L69.9203 23.2259L69.013 36.4776L52.5298 37.6824L52.6054 23.9788Z" fill="black"/>
<path d="M122.144 58.9153C122.144 57.9616 121.791 57.1835 121.085 56.5812C120.379 55.9788 119.447 55.6777 118.288 55.6777C117.078 55.6777 116.12 56.0541 115.414 56.8071C114.709 57.56 114.356 58.338 114.356 59.1412L114.809 84.8918L98.4019 86.2471L98.7043 59.0659C98.7547 58.062 98.4019 57.2588 97.6458 56.6565C96.8897 56.0039 95.9067 55.6777 94.697 55.6777C93.7392 55.6777 92.8319 55.9788 91.975 56.5812C91.1685 57.1835 90.7904 58.0369 90.8408 59.1412L91.5969 86.3224L75.7187 84.9671L74.8114 42.1247L90.2359 40.7694V47.6965H90.3872C92.0002 45.538 93.8149 43.8565 95.8311 42.6518C97.8978 41.3969 100.368 40.7694 103.241 40.7694C105.61 40.7694 107.576 41.1459 109.139 41.8988C110.752 42.6016 112.213 43.731 113.524 45.2871C114.835 43.9318 116.322 42.8526 117.985 42.0494C119.649 41.1961 121.488 40.7694 123.505 40.7694C125.773 40.7694 127.764 41.171 129.478 41.9741C131.242 42.7271 132.704 43.8063 133.863 45.2118C135.073 46.6173 135.98 48.2737 136.585 50.1812C137.241 52.0384 137.593 54.0463 137.644 56.2047L138.098 84.8918L121.69 86.2471L122.144 58.9153Z" fill="black"/>
<path d="M183.133 80.1482C180.058 82.3569 176.908 83.9631 173.682 84.9671C170.456 85.9208 166.751 86.3977 162.567 86.3977C159.139 86.3977 155.989 85.8204 153.116 84.6659C150.293 83.4612 147.848 81.8549 145.781 79.8471C143.715 77.8392 142.102 75.5051 140.942 72.8447C139.783 70.1341 139.203 67.2729 139.203 64.2612C139.203 60.4965 139.808 57.1333 141.018 54.1718C142.228 51.2102 143.866 48.7004 145.933 46.6424C147.999 44.5843 150.394 43.0282 153.116 41.9741C155.888 40.8698 158.837 40.3176 161.962 40.3176C167.003 40.3176 171.363 41.5977 175.043 44.1576C178.773 46.7176 181.545 50.131 183.36 54.3977L160.752 71.3388C161.307 71.64 162.038 71.8408 162.945 71.9412C163.852 72.0416 164.684 72.0918 165.44 72.0918C167.759 72.0918 169.7 71.6902 171.262 70.8871C172.875 70.0337 174.337 69.0298 175.648 67.8753L183.133 80.1482ZM166.952 55.4518C166.247 54.5984 165.465 54.0212 164.609 53.72C163.802 53.4188 162.869 53.2682 161.811 53.2682C160.803 53.2682 159.87 53.4941 159.013 53.9459C158.207 54.3475 157.501 54.9247 156.896 55.6777C156.291 56.3804 155.812 57.1835 155.46 58.0871C155.157 58.9906 155.006 59.9192 155.006 60.8729C155.006 61.7765 155.056 62.429 155.157 62.8306C155.308 63.182 155.485 63.5584 155.686 63.96L166.952 55.4518Z" fill="black"/>
<path d="M195.629 32.7882C195.175 34.5451 194.596 36.4526 193.89 38.5106C193.184 40.5686 192.403 42.6267 191.546 44.6847C190.739 46.6926 189.933 48.6 189.126 50.4071H184.212C184.565 49.0016 184.917 47.4957 185.27 45.8894C185.674 44.2831 186.026 42.6769 186.329 41.0706C186.682 39.4141 186.984 37.8078 187.236 36.2518C187.539 34.6957 187.791 33.2651 187.992 31.96H195.1L195.629 32.7882Z" fill="black"/>
<path d="M197.58 70.8118C198.941 71.2133 200.302 71.5396 201.663 71.7906C203.074 72.0416 204.587 72.1671 206.2 72.1671C206.905 72.1671 207.636 72.1671 208.392 72.1671C209.199 72.1169 209.905 72.0416 210.51 71.9412C211.165 71.7906 211.694 71.5647 212.097 71.2635C212.551 70.9624 212.778 70.5106 212.778 69.9082C212.778 69.1553 212.375 68.6031 211.568 68.2518C210.812 67.8502 209.854 67.4737 208.695 67.1224C207.586 66.771 206.351 66.3694 204.99 65.9177C203.629 65.4157 202.369 64.7129 201.209 63.8094C200.1 62.8557 199.143 61.6008 198.336 60.0447C197.58 58.4886 197.202 56.4557 197.202 53.9459C197.202 52.2894 197.53 50.658 198.185 49.0518C198.84 47.4455 199.899 45.9898 201.361 44.6847C202.822 43.3796 204.713 42.3255 207.031 41.5224C209.35 40.7192 212.148 40.3176 215.424 40.3176C216.684 40.3176 217.945 40.3678 219.205 40.4682C220.465 40.5686 221.649 40.7192 222.758 40.92C223.918 41.0706 224.976 41.2463 225.934 41.4471C226.892 41.5977 227.698 41.7482 228.354 41.8988V55.1506C227.093 54.8494 225.858 54.5984 224.649 54.3977C223.439 54.1969 222.128 54.0965 220.717 54.0965C220.415 54.0965 219.936 54.1216 219.28 54.1718C218.625 54.1718 217.97 54.2471 217.314 54.3977C216.659 54.498 216.079 54.6988 215.575 55C215.071 55.3012 214.819 55.7028 214.819 56.2047C214.819 57.0078 215.223 57.6102 216.029 58.0118C216.836 58.4133 217.819 58.7898 218.978 59.1412C220.188 59.4926 221.498 59.9192 222.91 60.4212C224.321 60.9231 225.606 61.651 226.766 62.6047C227.976 63.5082 228.984 64.738 229.79 66.2941C230.597 67.8502 231 69.8831 231 72.3929C231 75.1035 230.395 77.3624 229.185 79.1694C228.026 80.9765 226.463 82.4322 224.497 83.5365C222.582 84.5906 220.364 85.3435 217.844 85.7953C215.323 86.2471 212.702 86.4729 209.98 86.4729C207.863 86.4729 205.771 86.3475 203.705 86.0965C201.688 85.8455 199.647 85.4439 197.58 84.8918V70.8118Z" fill="black"/>
</svg>
