<svg width="39" height="44" viewBox="0 0 39 44" fill="none" xmlns="http://www.w3.org/2000/svg">
<path fill-rule="evenodd" clip-rule="evenodd" d="M19.2961 2.21228C12.3046 2.21228 6.63686 7.88 6.63686 14.8715V19.5419C6.63686 19.5999 6.63725 19.6579 6.63803 19.7158L6.58325 19.6648V26.4418C6.46472 27.2615 5.88392 29.0447 4.50897 29.6204C2.79027 30.3401 1.42717 31.8394 2.731 33.6986C3.68261 35.0556 6.43368 34.9749 8.35753 33.4566V37.3631C8.35753 38.8564 9.56811 40.067 11.0614 40.067C12.5548 40.067 13.7654 38.8564 13.7654 37.3631V39.0838C13.7654 40.5771 14.9759 41.7877 16.4693 41.7877C17.9626 41.7877 19.1732 40.5771 19.1732 39.0838C19.1732 40.5771 20.3838 41.7877 21.8771 41.7877C23.3704 41.7877 24.581 40.5771 24.581 39.0838V37.3631C24.581 38.8564 25.7916 40.067 27.2849 40.067C28.7782 40.067 29.9888 38.8564 29.9888 37.3631V33.2506C31.9161 34.9652 34.8682 35.1145 35.8612 33.6986C37.165 31.8394 35.8019 30.3401 34.0832 29.6204C32.7082 29.0447 32.1274 27.2615 32.0089 26.4418V19.6648L31.9541 19.7158C31.9549 19.6579 31.9553 19.5999 31.9553 19.5419V14.8715C31.9553 7.88001 26.2876 2.21228 19.2961 2.21228ZM17.9441 21.5084C17.9441 24.5629 16.6785 27.0391 15.1173 27.0391C13.5561 27.0391 12.2905 24.5629 12.2905 21.5084C12.2905 18.4539 13.5561 15.9777 15.1173 15.9777C16.6785 15.9777 17.9441 18.4539 17.9441 21.5084ZM26.0559 21.5084C26.0559 24.5629 24.7902 27.0391 23.229 27.0391C21.6678 27.0391 20.4022 24.5629 20.4022 21.5084C20.4022 18.4539 21.6678 15.9777 23.229 15.9777C24.7902 15.9777 26.0559 18.4539 26.0559 21.5084Z" fill="white"/>
</svg>
